<?xml version="1.0" standalone="no"?><!DOCTYPE svg PUBLIC "-//W3C//DTD SVG 1.1//EN" "http://www.w3.org/Graphics/SVG/1.1/DTD/svg11.dtd"><svg t="1712804391639" class="icon" viewBox="0 0 1024 1024" version="1.1" xmlns="http://www.w3.org/2000/svg" p-id="10136" xmlns:xlink="http://www.w3.org/1999/xlink" width="200" height="200"><path d="M402.432 307.968m-286.5152 0a286.5152 286.5152 0 1 0 573.0304 0 286.5152 286.5152 0 1 0-573.0304 0Z" fill="#9FDFFF" p-id="10137"></path><path d="M731.648 498.5856m-253.0816 0a253.0816 253.0816 0 1 0 506.1632 0 253.0816 253.0816 0 1 0-506.1632 0Z" fill="#78CCFF" p-id="10138"></path><path d="M268.4416 522.4448m-229.2224 0a229.2224 229.2224 0 1 0 458.4448 0 229.2224 229.2224 0 1 0-458.4448 0Z" fill="#78CCFF" p-id="10139"></path><path d="M266.0864 522.4448h463.2064v229.2224H266.0864zM436.6336 810.8032c0.9216-0.4096 1.5872-1.1776 1.8944-2.1504 0.3072-0.9728 0.1024-2.048-0.4608-2.8672a3.89632 3.89632 0 0 0-2.4064-1.6896 4.43392 4.43392 0 0 0-3.1232 0.4608l-30.3616 16.2304 6.1952-21.504c0.3072-0.9728 0.1536-2.048-0.4096-2.9184a3.57376 3.57376 0 0 0-2.4576-1.6384c-2.048-0.4608-4.096 0.6656-4.7616 2.6112l-8.3456 28.416-23.1936 12.4416v-24.832l22.4768-20.7872c0.8192-0.6144 1.28-1.5872 1.28-2.6112s-0.4608-1.9968-1.28-2.6112a4.02432 4.02432 0 0 0-5.4784 0l-16.9472 15.7696v-32.256a4.10112 4.10112 0 0 0-3.9424-3.072c-1.8432 0-3.4816 1.28-3.9424 3.072v32.256l-16.9472-15.7696a4.02432 4.02432 0 0 0-5.4784 0c-0.8192 0.6144-1.28 1.5872-1.28 2.6112s0.4608 1.9968 1.28 2.6112l22.4768 20.7872v24.832l-23.1936-12.4416-8.3456-28.416a3.9936 3.9936 0 0 0-4.7616-2.6112c-1.024 0.1536-1.8944 0.768-2.4576 1.6384-0.5632 0.8704-0.7168 1.9456-0.4096 2.9184l6.1952 21.504-30.3616-16.2304-1.8944-0.4608a3.8144 3.8144 0 0 0-3.84 2.6112c-0.4096 1.6384 0.4096 3.328 1.8944 4.0448l30.3616 16.0256-23.1936 5.7344c-0.9728 0.2048-1.792 0.8192-2.304 1.6896-0.512 0.8704-0.6144 1.8944-0.3072 2.8672 0.6656 1.9968 2.7648 3.1232 4.7616 2.6112l30.5664-7.6288 23.1936 12.4416-26.2656 14.08-30.8224-7.6288c-2.048-0.4608-4.096 0.6656-4.7616 2.6112-0.3072 0.9728-0.1536 2.048 0.4096 2.9184 0.5632 0.8704 1.4336 1.4848 2.4576 1.6384l23.3984 5.4784-27.2384 14.592a3.61472 3.61472 0 0 0-1.4336 5.0176c1.1264 1.7408 3.3792 2.3552 5.2736 1.4336l27.2384-14.7968-6.1952 21.504c-0.3072 0.9728-0.1536 2.048 0.4096 2.9184 0.5632 0.8704 1.4336 1.4848 2.4576 1.6384 2.048 0.4608 4.096-0.6656 4.7616-2.6112l8.1408-28.2112 26.2656-14.08v27.9552l-22.4768 20.7872c-0.8192 0.6144-1.28 1.5872-1.28 2.6112s0.4608 1.9968 1.28 2.6112c1.536 1.4336 3.9424 1.4336 5.4784 0l16.9472-15.7696v29.1328c0.4608 1.792 2.0992 3.072 3.9424 3.072 1.8432 0 3.4816-1.28 3.9424-3.072v-29.1328l16.9472 15.7696c1.536 1.4336 3.9424 1.4336 5.4784 0 0.8192-0.6144 1.28-1.5872 1.28-2.6112s-0.4608-1.9968-1.28-2.6112l-22.4768-20.7872v-28.2112l26.2656 14.08 8.3456 28.672c0.6656 1.9968 2.7648 3.1232 4.7616 2.6112 1.024-0.1536 1.8944-0.768 2.4576-1.6384 0.5632-0.8704 0.7168-1.9456 0.4096-2.9184l-6.1952-21.504 27.2384 14.7968c1.8432 0.9216 4.1472 0.3072 5.2736-1.4336a3.61472 3.61472 0 0 0-1.4336-5.0176l-27.2384-14.592 23.1936-5.7344c1.8944-0.3584 3.1744-2.1504 2.8672-4.0448a3.85536 3.85536 0 0 0-3.84-3.1232h-0.9728l-30.8224 7.6288-26.2656-14.08 23.1936-12.4416 30.8224 7.8848c2.048 0.4608 4.096-0.6656 4.7616-2.6112 0.3072-0.9728 0.1536-2.048-0.4096-2.9184s-1.4336-1.4848-2.4576-1.6384l-23.1936-5.7344 30.6688-16.1792z m-30.5664 16.2304M729.7536 810.8032c0.9216-0.4096 1.5872-1.1776 1.8944-2.1504 0.3072-0.9728 0.1024-2.048-0.4608-2.8672a3.89632 3.89632 0 0 0-2.4064-1.6896 4.43392 4.43392 0 0 0-3.1232 0.4608l-30.3616 16.2304 6.1952-21.504c0.3072-0.9728 0.1536-2.048-0.4096-2.9184a3.57376 3.57376 0 0 0-2.4576-1.6384c-2.048-0.4608-4.096 0.6656-4.7616 2.6112l-8.3456 28.416-23.1936 12.4416v-24.832l22.4768-20.7872c0.8192-0.6144 1.28-1.5872 1.28-2.6112s-0.4608-1.9968-1.28-2.6112a4.02432 4.02432 0 0 0-5.4784 0l-16.9472 15.7696v-32.256a4.10112 4.10112 0 0 0-3.9424-3.072c-1.8432 0-3.4816 1.28-3.9424 3.072v32.256l-16.9472-15.7696a4.02432 4.02432 0 0 0-5.4784 0c-0.8192 0.6144-1.28 1.5872-1.28 2.6112s0.4608 1.9968 1.28 2.6112l22.4768 20.7872v24.832l-23.1936-12.4416-8.3456-28.416a3.9936 3.9936 0 0 0-4.7616-2.6112c-1.024 0.1536-1.8944 0.768-2.4576 1.6384-0.5632 0.8704-0.7168 1.9456-0.4096 2.9184l6.1952 21.504-30.3616-16.2304-1.8944-0.4608a3.8144 3.8144 0 0 0-3.84 2.6112c-0.4096 1.6384 0.4096 3.328 1.8944 4.0448l30.3616 16.0256-23.1936 5.7344c-0.9728 0.2048-1.792 0.8192-2.304 1.6896-0.512 0.8704-0.6144 1.8944-0.3072 2.8672 0.6656 1.9968 2.7648 3.1232 4.7616 2.6112l30.5664-7.6288 23.1936 12.4416-26.2656 14.08-30.8224-7.6288c-2.048-0.4608-4.096 0.6656-4.7616 2.6112-0.3072 0.9728-0.1536 2.048 0.4096 2.9184 0.5632 0.8704 1.4336 1.4848 2.4576 1.6384l23.3984 5.4784-27.2384 14.592a3.61472 3.61472 0 0 0-1.4336 5.0176c1.1264 1.7408 3.3792 2.3552 5.2736 1.4336l27.2384-14.7968-6.1952 21.504c-0.3072 0.9728-0.1536 2.048 0.4096 2.9184 0.5632 0.8704 1.4336 1.4848 2.4576 1.6384 2.048 0.4608 4.096-0.6656 4.7616-2.6112l8.1408-28.2112 26.2656-14.08v27.9552l-22.4768 20.7872c-0.8192 0.6144-1.28 1.5872-1.28 2.6112s0.4608 1.9968 1.28 2.6112c1.536 1.4336 3.9424 1.4336 5.4784 0l16.9472-15.7696v29.1328c0.4608 1.792 2.0992 3.072 3.9424 3.072 1.8432 0 3.4816-1.28 3.9424-3.072v-29.1328l16.9472 15.7696c1.536 1.4336 3.9424 1.4336 5.4784 0 0.8192-0.6144 1.28-1.5872 1.28-2.6112s-0.4608-1.9968-1.28-2.6112l-22.4768-20.7872v-28.2112l26.2656 14.08 8.3456 28.672c0.6656 1.9968 2.7648 3.1232 4.7616 2.6112 1.024-0.1536 1.8944-0.768 2.4576-1.6384 0.5632-0.8704 0.7168-1.9456 0.4096-2.9184l-6.1952-21.504 27.2384 14.7968c1.8432 0.9216 4.1472 0.3072 5.2736-1.4336a3.61472 3.61472 0 0 0-1.4336-5.0176l-27.2384-14.592 23.1936-5.7344c1.8944-0.3584 3.1744-2.1504 2.8672-4.0448a3.85536 3.85536 0 0 0-3.84-3.1232h-0.9728l-30.8224 7.6288-26.2656-14.08 23.1936-12.4416 30.8224 7.8848c2.048 0.4608 4.096-0.6656 4.7616-2.6112 0.3072-0.9728 0.1536-2.048-0.4096-2.9184s-1.4336-1.4848-2.4576-1.6384l-23.1936-5.7344 30.6688-16.1792z m-30.6176 16.2304" fill="#78CCFF" p-id="10140"></path><path d="M290.0992 716.4416c0.9216-0.4096 1.5872-1.1776 1.8944-2.1504 0.3072-0.9728 0.1024-2.048-0.4608-2.8672a3.89632 3.89632 0 0 0-2.4064-1.6896 4.43392 4.43392 0 0 0-3.1232 0.4608l-30.3616 16.2304 6.1952-21.504c0.3072-0.9728 0.1536-2.048-0.4096-2.9184a3.57376 3.57376 0 0 0-2.4576-1.6384c-2.048-0.4608-4.096 0.6656-4.7616 2.6112l-8.3456 28.416-23.1936 12.4416v-24.832l22.4768-20.7872c0.8192-0.6144 1.28-1.5872 1.28-2.6112s-0.4608-1.9968-1.28-2.6112a4.02432 4.02432 0 0 0-5.4784 0l-16.9472 15.7696v-32.256a4.10112 4.10112 0 0 0-3.9424-3.072c-1.8432 0-3.4816 1.28-3.9424 3.072v32.256l-16.9472-15.7696a4.02432 4.02432 0 0 0-5.4784 0c-0.8192 0.6144-1.28 1.5872-1.28 2.6112s0.4608 1.9968 1.28 2.6112l22.4768 20.7872v24.832l-23.1936-12.4416-8.3456-28.416a3.9936 3.9936 0 0 0-4.7616-2.6112c-1.024 0.1536-1.8944 0.768-2.4576 1.6384-0.5632 0.8704-0.7168 1.9456-0.4096 2.9184l6.1952 21.504-30.3616-16.2304-1.8944-0.4608a3.8144 3.8144 0 0 0-3.84 2.6112c-0.4096 1.6384 0.4096 3.328 1.8944 4.0448l30.3616 16.0256-23.1936 5.7344c-0.9728 0.2048-1.792 0.8192-2.304 1.6896-0.512 0.8704-0.6144 1.8944-0.3072 2.8672 0.6656 1.9968 2.7648 3.1232 4.7616 2.6112l30.5664-7.6288 23.1936 12.4416-26.2656 14.08-30.8224-7.6288c-2.048-0.4608-4.096 0.6656-4.7616 2.6112-0.3072 0.9728-0.1536 2.048 0.4096 2.9184 0.5632 0.8704 1.4336 1.4848 2.4576 1.6384l23.3984 5.4784-27.2384 14.592a3.61472 3.61472 0 0 0-1.4336 5.0176c1.1264 1.7408 3.3792 2.3552 5.2736 1.4336l27.2384-14.7968-6.1952 21.504c-0.3072 0.9728-0.1536 2.048 0.4096 2.9184 0.5632 0.8704 1.4336 1.4848 2.4576 1.6384 2.048 0.4608 4.096-0.6656 4.7616-2.6112l8.1408-28.2112 26.2656-14.08v27.9552l-22.4768 20.7872c-0.8192 0.6144-1.28 1.5872-1.28 2.6112s0.4608 1.9968 1.28 2.6112c1.536 1.4336 3.9424 1.4336 5.4784 0l16.9472-15.7696v29.1328c0.4608 1.792 2.0992 3.072 3.9424 3.072 1.8432 0 3.4816-1.28 3.9424-3.072v-29.1328l16.9472 15.7696c1.536 1.4336 3.9424 1.4336 5.4784 0 0.8192-0.6144 1.28-1.5872 1.28-2.6112s-0.4608-1.9968-1.28-2.6112l-22.4768-20.7872v-28.2112l26.2656 14.08 8.3456 28.672c0.6656 1.9968 2.7648 3.1232 4.7616 2.6112 1.024-0.1536 1.8944-0.768 2.4576-1.6384 0.5632-0.8704 0.7168-1.9456 0.4096-2.9184l-6.1952-21.504 27.2384 14.7968c1.8432 0.9216 4.1472 0.3072 5.2736-1.4336 0.512-0.8704 0.6144-1.8944 0.3584-2.816a3.5072 3.5072 0 0 0-1.792-2.2016l-27.2384-14.592 23.1936-5.7344c1.8944-0.3584 3.1744-2.1504 2.8672-4.0448a3.85536 3.85536 0 0 0-3.84-3.1232h-0.9728l-30.8224 7.6288-26.2656-14.08 23.1936-12.4416 30.8224 7.8848c2.048 0.4608 4.096-0.6656 4.7616-2.6112 0.3072-0.9728 0.1536-2.048-0.4096-2.9184a3.57376 3.57376 0 0 0-2.4576-1.6384l-23.1936-5.7344 30.6688-16.1792z m-30.6176 16.2304" fill="#9FDFFF" p-id="10141"></path><path d="M583.168 716.4416c0.9216-0.4096 1.5872-1.1776 1.8944-2.1504 0.3072-0.9728 0.1024-2.048-0.4608-2.8672a3.89632 3.89632 0 0 0-2.4064-1.6896 4.43392 4.43392 0 0 0-3.1232 0.4608l-30.3616 16.2304 6.1952-21.504c0.3072-0.9728 0.1536-2.048-0.4096-2.9184a3.57376 3.57376 0 0 0-2.4576-1.6384c-2.048-0.4608-4.096 0.6656-4.7616 2.6112l-8.3456 28.416-23.1936 12.4416v-24.832l22.4768-20.7872c0.8192-0.6144 1.28-1.5872 1.28-2.6112s-0.4608-1.9968-1.28-2.6112a4.02432 4.02432 0 0 0-5.4784 0l-16.9472 15.7696v-32.256a4.10112 4.10112 0 0 0-3.9424-3.072c-1.8432 0-3.4816 1.28-3.9424 3.072v32.256l-16.9472-15.7696a4.02432 4.02432 0 0 0-5.4784 0c-0.8192 0.6144-1.28 1.5872-1.28 2.6112s0.4608 1.9968 1.28 2.6112l22.4768 20.7872v24.832l-23.1936-12.4416-8.3456-28.416a3.9936 3.9936 0 0 0-4.7616-2.6112c-1.024 0.1536-1.8944 0.768-2.4576 1.6384-0.5632 0.8704-0.7168 1.9456-0.4096 2.9184l6.1952 21.504-30.3616-16.2304-1.8944-0.4608a3.8144 3.8144 0 0 0-3.84 2.6112c-0.4096 1.6384 0.4096 3.328 1.8944 4.0448l30.3616 16.0256-23.1936 5.7344c-0.9728 0.2048-1.792 0.8192-2.304 1.6896-0.512 0.8704-0.6144 1.8944-0.3072 2.8672 0.6656 1.9968 2.7648 3.1232 4.7616 2.6112l30.5664-7.6288 23.1936 12.4416-26.2656 14.08-30.8224-7.6288c-2.048-0.4608-4.096 0.6656-4.7616 2.6112-0.3072 0.9728-0.1536 2.048 0.4096 2.9184 0.5632 0.8704 1.4336 1.4848 2.4576 1.6384l23.3984 5.4784-27.2384 14.592a3.61472 3.61472 0 0 0-1.4336 5.0176c1.1264 1.7408 3.3792 2.3552 5.2736 1.4336l27.2384-14.7968-6.1952 21.504c-0.3072 0.9728-0.1536 2.048 0.4096 2.9184 0.5632 0.8704 1.4336 1.4848 2.4576 1.6384 2.048 0.4608 4.096-0.6656 4.7616-2.6112l8.1408-28.2112 26.2656-14.08v27.9552l-22.4768 20.7872c-0.8192 0.6144-1.28 1.5872-1.28 2.6112s0.4608 1.9968 1.28 2.6112c1.536 1.4336 3.9424 1.4336 5.4784 0l16.9472-15.7696v29.1328c0.4608 1.792 2.0992 3.072 3.9424 3.072 1.8432 0 3.4816-1.28 3.9424-3.072v-29.1328l16.9472 15.7696c1.536 1.4336 3.9424 1.4336 5.4784 0 0.8192-0.6144 1.28-1.5872 1.28-2.6112s-0.4608-1.9968-1.28-2.6112l-22.4768-20.7872v-28.2112l26.2656 14.08 8.3456 28.672c0.6656 1.9968 2.7648 3.1232 4.7616 2.6112 1.024-0.1536 1.8944-0.768 2.4576-1.6384 0.5632-0.8704 0.7168-1.9456 0.4096-2.9184l-6.1952-21.504 27.2384 14.7968c1.8432 0.9216 4.1472 0.3072 5.2736-1.4336 0.512-0.8704 0.6144-1.8944 0.3584-2.816a3.5072 3.5072 0 0 0-1.792-2.2016l-27.2384-14.592 23.1936-5.7344c1.8944-0.3584 3.1744-2.1504 2.8672-4.0448a3.85536 3.85536 0 0 0-3.84-3.1232h-0.9728l-30.8224 7.6288-26.2656-14.08 23.1936-12.4416 30.8224 7.8848c2.048 0.4608 4.096-0.6656 4.7616-2.6112 0.3072-0.9728 0.1536-2.048-0.4096-2.9184a3.57376 3.57376 0 0 0-2.4576-1.6384l-23.1936-5.7344 30.6688-16.1792z m-30.5664 16.2304" fill="#9FDFFF" p-id="10142"></path><path d="M876.288 716.4416c0.9216-0.4096 1.5872-1.1776 1.8944-2.1504 0.3072-0.9728 0.1024-2.048-0.4608-2.8672a3.89632 3.89632 0 0 0-2.4064-1.6896 4.43392 4.43392 0 0 0-3.1232 0.4608l-30.3616 16.2304 6.1952-21.504c0.3072-0.9728 0.1536-2.048-0.4096-2.9184a3.57376 3.57376 0 0 0-2.4576-1.6384c-2.048-0.4608-4.096 0.6656-4.7616 2.6112l-8.3456 28.416-23.1936 12.4416v-24.832l22.4768-20.7872c0.8192-0.6144 1.28-1.5872 1.28-2.6112s-0.4608-1.9968-1.28-2.6112a4.02432 4.02432 0 0 0-5.4784 0l-16.9472 15.7696v-32.256a4.10112 4.10112 0 0 0-3.9424-3.072c-1.8432 0-3.4816 1.28-3.9424 3.072v32.256l-16.9472-15.7696a4.02432 4.02432 0 0 0-5.4784 0c-0.8192 0.6144-1.28 1.5872-1.28 2.6112s0.4608 1.9968 1.28 2.6112l22.4768 20.7872v24.832l-23.1936-12.4416-8.3456-28.416a3.9936 3.9936 0 0 0-4.7616-2.6112c-1.024 0.1536-1.8944 0.768-2.4576 1.6384-0.5632 0.8704-0.7168 1.9456-0.4096 2.9184l6.1952 21.504-30.3616-16.2304-1.8944-0.4608a3.8144 3.8144 0 0 0-3.84 2.6112c-0.4096 1.6384 0.4096 3.328 1.8944 4.0448l30.3616 16.0256-23.1936 5.7344c-0.9728 0.2048-1.792 0.8192-2.304 1.6896-0.512 0.8704-0.6144 1.8944-0.3072 2.8672 0.6656 1.9968 2.7648 3.1232 4.7616 2.6112l30.5664-7.6288 23.1936 12.4416-26.2656 14.08-30.8224-7.6288c-2.048-0.4608-4.096 0.6656-4.7616 2.6112-0.3072 0.9728-0.1536 2.048 0.4096 2.9184 0.5632 0.8704 1.4336 1.4848 2.4576 1.6384l23.3984 5.4784-27.2384 14.592a3.61472 3.61472 0 0 0-1.4336 5.0176c1.1264 1.7408 3.3792 2.3552 5.2736 1.4336l27.2384-14.7968-6.1952 21.504c-0.3072 0.9728-0.1536 2.048 0.4096 2.9184 0.5632 0.8704 1.4336 1.4848 2.4576 1.6384 2.048 0.4608 4.096-0.6656 4.7616-2.6112l8.1408-28.2112 26.2656-14.08v27.9552l-22.4768 20.7872c-0.8192 0.6144-1.28 1.5872-1.28 2.6112s0.4608 1.9968 1.28 2.6112c1.536 1.4336 3.9424 1.4336 5.4784 0l16.9472-15.7696v29.1328c0.4608 1.792 2.0992 3.072 3.9424 3.072 1.8432 0 3.4816-1.28 3.9424-3.072v-29.1328l16.9472 15.7696c1.536 1.4336 3.9424 1.4336 5.4784 0 0.8192-0.6144 1.28-1.5872 1.28-2.6112s-0.4608-1.9968-1.28-2.6112l-22.4768-20.7872v-28.2112l26.2656 14.08 8.3456 28.672c0.6656 1.9968 2.7648 3.1232 4.7616 2.6112 1.024-0.1536 1.8944-0.768 2.4576-1.6384 0.5632-0.8704 0.7168-1.9456 0.4096-2.9184l-6.1952-21.504 27.2384 14.7968c1.8432 0.9216 4.1472 0.3072 5.2736-1.4336 0.512-0.8704 0.6144-1.8944 0.3584-2.816a3.5072 3.5072 0 0 0-1.792-2.2016l-27.2384-14.592 23.1936-5.7344c1.8944-0.3584 3.1744-2.1504 2.8672-4.0448a3.85536 3.85536 0 0 0-3.84-3.1232h-0.9728l-30.8224 7.6288-26.2656-14.08 23.1936-12.4416 30.8224 7.8848c2.048 0.4608 4.096-0.6656 4.7616-2.6112 0.3072-0.9728 0.1536-2.048-0.4096-2.9184a3.57376 3.57376 0 0 0-2.4576-1.6384l-23.1936-5.7344 30.6688-16.1792z m-30.5664 16.2304" fill="#9FDFFF" p-id="10143"></path><path d="M583.168 908.0832c0.9216-0.4096 1.5872-1.1776 1.8944-2.1504 0.3072-0.9728 0.1024-2.048-0.4608-2.8672a3.89632 3.89632 0 0 0-2.4064-1.6896 4.43392 4.43392 0 0 0-3.1232 0.4608l-30.3616 16.2304 6.1952-21.504c0.3072-0.9728 0.1536-2.048-0.4096-2.9184a3.57376 3.57376 0 0 0-2.4576-1.6384c-2.048-0.4608-4.096 0.6656-4.7616 2.6112l-8.3456 28.416-23.1936 12.4416v-24.832l22.4768-20.7872c0.8192-0.6144 1.28-1.5872 1.28-2.6112s-0.4608-1.9968-1.28-2.6112a4.02432 4.02432 0 0 0-5.4784 0l-16.9472 15.7696v-32.256a4.10112 4.10112 0 0 0-3.9424-3.072c-1.8432 0-3.4816 1.28-3.9424 3.072v32.256l-16.9472-15.7696a4.02432 4.02432 0 0 0-5.4784 0c-0.8192 0.6144-1.28 1.5872-1.28 2.6112s0.4608 1.9968 1.28 2.6112l22.4768 20.7872v24.832l-23.1936-12.4416-8.3456-28.416a3.9936 3.9936 0 0 0-4.7616-2.6112c-1.024 0.1536-1.8944 0.768-2.4576 1.6384-0.5632 0.8704-0.7168 1.9456-0.4096 2.9184l6.1952 21.504-30.3616-16.2304-1.8944-0.4608a3.8144 3.8144 0 0 0-3.84 2.6112c-0.4096 1.6384 0.4096 3.328 1.8944 4.0448l30.3616 16.0256-23.1936 5.7344c-0.9728 0.2048-1.792 0.8192-2.304 1.6896-0.512 0.8704-0.6144 1.8944-0.3072 2.8672 0.6656 1.9968 2.7648 3.1232 4.7616 2.6112l30.5664-7.6288 23.1936 12.4416-26.2656 14.08-30.8224-7.6288c-2.048-0.4608-4.096 0.6656-4.7616 2.6112-0.3072 0.9728-0.1536 2.048 0.4096 2.9184 0.5632 0.8704 1.4336 1.4848 2.4576 1.6384l23.3984 5.4784-27.2384 14.592a3.61472 3.61472 0 0 0-1.4336 5.0176c1.1264 1.7408 3.3792 2.3552 5.2736 1.4336l27.2384-14.7968-6.1952 21.504c-0.3072 0.9728-0.1536 2.048 0.4096 2.9184 0.5632 0.8704 1.4336 1.4848 2.4576 1.6384 2.048 0.4608 4.096-0.6656 4.7616-2.6112l8.1408-28.2112 26.2656-14.08v27.9552l-22.4768 20.7872c-0.8192 0.6144-1.28 1.5872-1.28 2.6112s0.4608 1.9968 1.28 2.6112c1.536 1.4336 3.9424 1.4336 5.4784 0l16.9472-15.7696v29.1328c0.4608 1.792 2.0992 3.072 3.9424 3.072 1.8432 0 3.4816-1.28 3.9424-3.072v-29.1328l16.9472 15.7696c1.536 1.4336 3.9424 1.4336 5.4784 0 0.8192-0.6144 1.28-1.5872 1.28-2.6112s-0.4608-1.9968-1.28-2.6112l-22.4768-20.7872v-28.2112l26.2656 14.08 8.3456 28.672c0.6656 1.9968 2.7648 3.1232 4.7616 2.6112 1.024-0.1536 1.8944-0.768 2.4576-1.6384 0.5632-0.8704 0.7168-1.9456 0.4096-2.9184l-6.1952-21.504 27.2384 14.7968c1.8432 0.9216 4.1472 0.3072 5.2736-1.4336 0.512-0.8704 0.6144-1.8944 0.3584-2.816a3.5072 3.5072 0 0 0-1.792-2.2016l-27.2384-14.592 23.1936-5.7344c1.8944-0.3584 3.1744-2.1504 2.8672-4.0448a3.85536 3.85536 0 0 0-3.84-3.1232h-0.9728l-30.8224 7.6288-26.2656-14.08 23.1936-12.4416 30.8224 7.8848c2.048 0.4608 4.096-0.6656 4.7616-2.6112 0.3072-0.9728 0.1536-2.048-0.4096-2.9184a3.57376 3.57376 0 0 0-2.4576-1.6384l-23.1936-5.7344 30.6688-16.1792z m-30.5664 16.2304" fill="#9FDFFF" p-id="10144"></path></svg>