<?xml version="1.0" standalone="no"?><!DOCTYPE svg PUBLIC "-//W3C//DTD SVG 1.1//EN" "http://www.w3.org/Graphics/SVG/1.1/DTD/svg11.dtd"><svg t="1712803809480" class="icon" viewBox="0 0 1024 1024" version="1.1" xmlns="http://www.w3.org/2000/svg" p-id="3701" xmlns:xlink="http://www.w3.org/1999/xlink" width="200" height="200"><path d="M732 340m-140 0a140 140 0 1 0 280 0 140 140 0 1 0-280 0Z" fill="#FFCC00" p-id="3702"></path><path d="M524 852h-264C169.6 852 96 778.4 96 688s73.6-164 164-164h264C614.4 524 688 597.6 688 688s-73.6 164-164 164z" fill="#C3D2FB" p-id="3703"></path><path d="M708.8 852H514.4C368 852 248 732 248 585.6v-51.2c0-146.4 120-266.4 266.4-266.4C676 268 808 400 808 561.6v191.2c0 54.4-44.8 99.2-99.2 99.2z" fill="#7094F3" p-id="3704"></path><path d="M732 624m-228 0a228 228 0 1 0 456 0 228 228 0 1 0-456 0Z" fill="#386BF3" p-id="3705"></path><path d="M736 136h16v48h-16zM601.36 180.68l11.32-11.312 33.936 33.944-11.312 11.312zM825.36 211.312l33.944-33.936 11.312 11.312-33.936 33.944zM880 288h48v16h-48zM880.664 384.944l13.104-9.176 27.536 39.32-13.104 9.176z" fill="#FFCC00" p-id="3706"></path></svg>