<?xml version="1.0" standalone="no"?><!DOCTYPE svg PUBLIC "-//W3C//DTD SVG 1.1//EN" "http://www.w3.org/Graphics/SVG/1.1/DTD/svg11.dtd"><svg t="1712804226214" class="icon" viewBox="0 0 1024 1024" version="1.1" xmlns="http://www.w3.org/2000/svg" p-id="17278" xmlns:xlink="http://www.w3.org/1999/xlink" width="200" height="200"><path d="M228.55 836.18a15.78 15.78 0 0 1-20.22 9.43 15.78 15.78 0 0 1-9.43-20.22l45.5-125a15.78 15.78 0 0 1 20.22-9.43 15.78 15.78 0 0 1 9.43 20.23zM562 836.18a15.77 15.77 0 0 1-20.22 9.43 15.77 15.77 0 0 1-9.43-20.22l45.5-125a15.78 15.78 0 0 1 20.22-9.43 15.78 15.78 0 0 1 9.43 20.23zM395.28 836.18a15.77 15.77 0 0 1-20.22 9.43 15.77 15.77 0 0 1-9.43-20.22l45.5-125a15.78 15.78 0 0 1 20.22-9.43 15.78 15.78 0 0 1 9.43 20.23zM466.79 876.34a15.76 15.76 0 0 1-20.21 9.43 15.77 15.77 0 0 1-9.43-20.22l20.6-58.23a15.78 15.78 0 0 1 20.25-9.44 15.77 15.77 0 0 1 9.43 20.22zM636.3 876.34a15.76 15.76 0 0 1-20.21 9.43 15.77 15.77 0 0 1-9.43-20.22l20.6-58.23a15.78 15.78 0 0 1 20.22-9.43 15.77 15.77 0 0 1 9.43 20.22zM728.76 836.18a15.77 15.77 0 0 1-20.22 9.43 15.77 15.77 0 0 1-9.43-20.22l45.5-125a15.78 15.78 0 0 1 20.22-9.43 15.78 15.78 0 0 1 9.43 20.23zM805.82 876.34a15.76 15.76 0 0 1-20.21 9.43 15.77 15.77 0 0 1-9.43-20.22l20.6-58.23a15.78 15.78 0 0 1 20.22-9.44 15.77 15.77 0 0 1 9.43 20.22zM297.27 869.5a15.76 15.76 0 0 1-20.21 9.43 15.77 15.77 0 0 1-9.43-20.22l20.61-58.23a15.78 15.78 0 0 1 20.23-9.48 15.77 15.77 0 0 1 9.43 20.22z" fill="#9CDCF8" p-id="17279"></path><path d="M247.11 424.34S93 400.1 67.67 534.39C53.72 608.5 88.15 653.66 132.23 680.9c41 25.31 81.94 28.1 81.94 28.1h605.9s30.89-1.5 58.67-12c43.55-16.52 92.24-53.52 80-140.72-14.16-101.46-122.81-97.6-122.81-97.6s3.43-79.16-79.8-104.36c-57.28-17.27-94.39 7.4-94.39 7.4s-66.61-114.12-205.4-106.4c-182.96 10.29-209.23 169.02-209.23 169.02z" fill="#78A4D6" p-id="17280"></path><path d="M946.1 556.48C928.83 465.42 824.36 470 824.36 470s4.83-78.62-73.79-104c-47.73-15.44-93.1 8.37-93.1 8.37s-69.4-117-199.71-107.58C282 279.55 255.58 438.72 255.58 438.72S108 407.29 80.22 535.46C50.18 674.47 211 696.24 211 696.24h284s62.21-4.83 87.41-32.5c34.21-37.43 36-92.35-4.29-121.84-36.36-26.6-80.55-20.7-111.55-9-12.55 4.72-13.73 6.54-15.34 6.22-1.18-0.21-4.61-3.65 2.9-9.12 9.44-6.86 20.16-13.41 38.72-17.7 62.85-14.48 122 16.95 138.25 64.89a140.63 140.63 0 0 1-4.1 102.53c-4.4 9.87-6.44 9.65-6.33 13.19 0.11 3.86 4.83 3.32 4.83 3.32h201.11c0.11-0.1 143.73-11.9 119.49-139.75z" fill="#C0E7FA" p-id="17281"></path><path d="M494.87 696.13s62.21-4.83 87.41-32.5c23-25.1 31.21-57.92 22.09-85.81a74.09 74.09 0 0 0-16.2-26.92 14.64 14.64 0 0 0-1.82-1.82c-0.75-0.75-1.5-1.5-2.36-2.25-1.93-1.72-4-3.43-6.11-5A95.79 95.79 0 0 0 534 524.09h-0.64c49.55 30.25 32.93 82.16-0.64 100.61-26.49 14.59-84.3 17.27-102.54 13.51-109.28-22.09-105.63-80.12-103.06-102.75 0.64-6.11 4.4-8.15 1.61-9.65s-11 4.29-14.59 7c-40.22 30.25-31.1 72-31.1 72s-60.81 19.95-122.59-12.33C103.6 562.49 98.34 501.89 98 490.63l-1.61 2.57c-1.5 2.68-3.86 6.65-6.44 12.23-1 2.15-1.93 4.4-2.9 6.65-0.32 0.75-0.54 1.5-0.86 2.25-1 2.57-1.82 5.26-2.68 7.94-0.32 1-0.64 2-1 3.11-0.75 2.57-1.39 5.15-1.93 7.83-1 4.08-1.82 8.37-2.57 13.19-0.64 3.86-1 7.51-1.29 11.15 0 0.43-0.11 0.75-0.11 1.18-0.21 3-0.32 5.9-0.32 8.8v3.54c0 2 0.11 4.08 0.21 6.11 6.86 101.68 134.18 118.95 134.18 118.95h284.19zM948.78 579.44a161.72 161.72 0 0 0-2.68-22.63c-0.32-1.82-0.75-3.54-1.07-5.15l-0.33-1.66c-0.21-1.07-0.54-2-0.75-3.11-6.11-22.2-17.8-38-31.53-49.23a131.37 131.37 0 0 0-11.26-8c-0.32-0.21 32.5 95.78-84.3 128.71C775.77 630 679.67 632.32 637.63 603a140.72 140.72 0 0 1-10.3 76.26c-4.4 9.87-6.44 9.65-6.33 13.19 0.11 3.86 4.83 3.32 4.83 3.32h201.11c-0.22 0.36 125.7-10.04 121.84-116.33z" fill="#9CDCF8" p-id="17282"></path><path d="M431.27 342.19a81.3 52.45 0 1 0 162.6 0 81.3 52.45 0 1 0-162.6 0Z" fill="#FFFFFF" p-id="17283"></path></svg>