<?xml version="1.0" standalone="no"?><!DOCTYPE svg PUBLIC "-//W3C//DTD SVG 1.1//EN" "http://www.w3.org/Graphics/SVG/1.1/DTD/svg11.dtd"><svg t="1712804400676" class="icon" viewBox="0 0 1024 1024" version="1.1" xmlns="http://www.w3.org/2000/svg" p-id="12837" xmlns:xlink="http://www.w3.org/1999/xlink" width="200" height="200"><path d="M402.432 307.968m-286.5152 0a286.5152 286.5152 0 1 0 573.0304 0 286.5152 286.5152 0 1 0-573.0304 0Z" fill="#9FDFFF" p-id="12838"></path><path d="M731.648 498.5856m-253.0816 0a253.0816 253.0816 0 1 0 506.1632 0 253.0816 253.0816 0 1 0-506.1632 0Z" fill="#78CCFF" p-id="12839"></path><path d="M268.4416 522.4448m-229.2224 0a229.2224 229.2224 0 1 0 458.4448 0 229.2224 229.2224 0 1 0-458.4448 0Z" fill="#78CCFF" p-id="12840"></path><path d="M266.0864 522.4448h463.2064v229.2224H266.0864z" fill="#78CCFF" p-id="12841"></path><path d="M264.2944 742.912a3.072 3.072 0 0 0 1.6384-1.8432c0.256-0.8704 0.1024-1.7408-0.4096-2.5088a3.24608 3.24608 0 0 0-2.048-1.4336 3.85536 3.85536 0 0 0-2.7136 0.4096l-26.3168 14.08 5.376-18.6368c0.256-0.8704 0.1024-1.792-0.3584-2.5088a2.8416 2.8416 0 0 0-2.1504-1.3824 3.56352 3.56352 0 0 0-4.1472 2.2528l-7.2704 24.6272-20.0704 10.752v-21.5552l19.456-18.0224c0.7168-0.5632 1.1264-1.3824 1.1264-2.2528 0-0.8704-0.4096-1.7408-1.1264-2.2528a3.5328 3.5328 0 0 0-4.7616 0l-14.6944 13.6704v-27.9552a3.5072 3.5072 0 0 0-3.4304-2.6624c-1.6384 0-3.0208 1.1264-3.4304 2.6624v27.9552l-14.6944-13.6704a3.5328 3.5328 0 0 0-4.7616 0c-0.7168 0.5632-1.1264 1.3824-1.1264 2.2528 0 0.8704 0.4096 1.7408 1.1264 2.2528l19.456 18.0224v21.5552l-20.0704-10.752-7.2704-24.6272a3.51232 3.51232 0 0 0-4.1472-2.2528c-0.8704 0.1536-1.6384 0.6656-2.1504 1.3824a3.1232 3.1232 0 0 0-0.3584 2.5088l5.376 18.6368-26.3168-14.08-1.6384-0.4096a3.38432 3.38432 0 0 0-3.328 2.2528c-0.3584 1.4336 0.3584 2.8672 1.6384 3.5328l26.3168 13.8752-20.0704 4.9664c-0.8192 0.2048-1.5872 0.7168-1.9968 1.4848a3.4304 3.4304 0 0 0-0.3072 2.4576c0.6144 1.6896 2.4064 2.7136 4.1472 2.2528l26.5216-6.6048 20.0704 10.752-22.784 12.2368-26.7264-6.6048a3.56352 3.56352 0 0 0-4.1472 2.2528c-0.256 0.8704-0.1024 1.792 0.3584 2.5088 0.4608 0.768 1.2288 1.28 2.1504 1.3824l20.2752 4.7616-23.6032 12.6464c-0.768 0.4096-1.3312 1.0752-1.536 1.8944-0.256 0.8192-0.1024 1.6896 0.3072 2.4576 0.9728 1.536 2.9184 2.048 4.5568 1.2288l23.6032-12.8512-5.376 18.6368c-0.256 0.8704-0.1024 1.792 0.3584 2.5088 0.4608 0.768 1.2288 1.28 2.1504 1.3824 1.7408 0.4096 3.5328-0.5632 4.1472-2.2528l7.0656-24.4224 22.784-12.2368v24.2176l-19.456 18.0224c-0.7168 0.5632-1.1264 1.3824-1.1264 2.2528s0.4096 1.7408 1.1264 2.2528c1.3312 1.2288 3.4304 1.2288 4.7616 0l14.6944-13.6704v25.2416c0.4096 1.5872 1.792 2.6624 3.4304 2.6624 1.6384 0 3.0208-1.1264 3.4304-2.6624v-25.2416l14.6944 13.6704c1.3312 1.2288 3.4304 1.2288 4.7616 0 0.7168-0.5632 1.1264-1.3824 1.1264-2.2528s-0.4096-1.7408-1.1264-2.2528l-19.456-18.0224v-24.4224l22.784 12.2368 7.2704 24.832c0.6144 1.6896 2.4064 2.7136 4.1472 2.2528 0.8704-0.1536 1.6384-0.6656 2.1504-1.3824a3.1232 3.1232 0 0 0 0.3584-2.5088l-5.376-18.6368 23.6032 12.8512c1.5872 0.8192 3.584 0.256 4.5568-1.2288 0.4608-0.7168 0.5632-1.6384 0.3072-2.4576a3.17952 3.17952 0 0 0-1.536-1.8944l-23.6032-12.6464 20.0704-4.9664a3.1744 3.1744 0 0 0 2.5088-3.5328 3.3536 3.3536 0 0 0-3.328-2.7136h-0.8192l-26.7264 6.6048-22.784-12.2368 20.0704-10.752 26.7264 6.8096c1.7408 0.4096 3.5328-0.5632 4.1472-2.2528 0.256-0.8704 0.1024-1.792-0.3584-2.5088a2.8416 2.8416 0 0 0-2.1504-1.3824l-20.0704-4.9664 26.5216-14.0288z m-26.5216 14.08M461.0048 742.912a3.072 3.072 0 0 0 1.6384-1.8432c0.256-0.8704 0.1024-1.7408-0.4096-2.5088a3.24608 3.24608 0 0 0-2.048-1.4336 3.85536 3.85536 0 0 0-2.7136 0.4096l-26.3168 14.08 5.376-18.6368c0.256-0.8704 0.1024-1.792-0.3584-2.5088a2.8416 2.8416 0 0 0-2.1504-1.3824 3.56352 3.56352 0 0 0-4.1472 2.2528l-7.2704 24.6272-20.0704 10.752v-21.5552l19.456-18.0224c0.7168-0.5632 1.1264-1.3824 1.1264-2.2528 0-0.8704-0.4096-1.7408-1.1264-2.2528a3.5328 3.5328 0 0 0-4.7616 0l-14.6944 13.6704v-27.9552a3.5072 3.5072 0 0 0-3.4304-2.6624c-1.6384 0-3.0208 1.1264-3.4304 2.6624v27.9552l-14.6944-13.6704a3.5328 3.5328 0 0 0-4.7616 0c-0.7168 0.5632-1.1264 1.3824-1.1264 2.2528 0 0.8704 0.4096 1.7408 1.1264 2.2528l19.456 18.0224v21.5552l-20.0704-10.752-7.2704-24.6272a3.51232 3.51232 0 0 0-4.1472-2.2528c-0.8704 0.1536-1.6384 0.6656-2.1504 1.3824a3.1232 3.1232 0 0 0-0.3584 2.5088l5.376 18.6368-26.3168-14.08-1.6384-0.4096a3.38432 3.38432 0 0 0-3.328 2.2528c-0.3584 1.4336 0.3584 2.8672 1.6384 3.5328l26.3168 13.8752-20.0704 4.9664c-0.8192 0.2048-1.5872 0.7168-1.9968 1.4848a3.4304 3.4304 0 0 0-0.3072 2.4576c0.6144 1.6896 2.4064 2.7136 4.1472 2.2528l26.5216-6.6048 20.0704 10.752-22.784 12.2368-26.7264-6.6048a3.56352 3.56352 0 0 0-4.1472 2.2528c-0.256 0.8704-0.1024 1.792 0.3584 2.5088 0.4608 0.768 1.2288 1.28 2.1504 1.3824l20.2752 4.7616-23.6032 12.6464c-0.768 0.4096-1.3312 1.0752-1.536 1.8944-0.256 0.8192-0.1024 1.6896 0.3072 2.4576 0.9728 1.536 2.9184 2.048 4.5568 1.2288l23.6032-12.8512-5.376 18.6368c-0.256 0.8704-0.1024 1.792 0.3584 2.5088 0.4608 0.768 1.2288 1.28 2.1504 1.3824 1.7408 0.4096 3.5328-0.5632 4.1472-2.2528l7.0656-24.4224 22.784-12.2368v24.2176l-19.456 18.0224c-0.7168 0.5632-1.1264 1.3824-1.1264 2.2528s0.4096 1.7408 1.1264 2.2528c1.3312 1.2288 3.4304 1.2288 4.7616 0l14.6944-13.6704v25.2416c0.4096 1.5872 1.792 2.6624 3.4304 2.6624 1.6384 0 3.0208-1.1264 3.4304-2.6624v-25.2416l14.6944 13.6704c1.3312 1.2288 3.4304 1.2288 4.7616 0 0.7168-0.5632 1.1264-1.3824 1.1264-2.2528s-0.4096-1.7408-1.1264-2.2528l-19.456-18.0224v-24.4224l22.784 12.2368 7.2704 24.832c0.6144 1.6896 2.4064 2.7136 4.1472 2.2528 0.8704-0.1536 1.6384-0.6656 2.1504-1.3824a3.1232 3.1232 0 0 0 0.3584-2.5088l-5.376-18.6368 23.6032 12.8512c1.5872 0.8192 3.584 0.256 4.5568-1.2288 0.4608-0.7168 0.5632-1.6384 0.3072-2.4576a3.17952 3.17952 0 0 0-1.536-1.8944l-23.6032-12.6464 20.0704-4.9664a3.1744 3.1744 0 0 0 2.5088-3.5328 3.3536 3.3536 0 0 0-3.328-2.7136h-0.8192l-26.7264 6.6048-22.784-12.2368 20.0704-10.752 26.7264 6.8096c1.7408 0.4096 3.5328-0.5632 4.1472-2.2528 0.256-0.8704 0.1024-1.792-0.3584-2.5088a2.8416 2.8416 0 0 0-2.1504-1.3824l-20.0704-4.9664 26.5216-14.0288z m-26.5216 14.08M657.7152 744.3456a3.072 3.072 0 0 0 1.6384-1.8432c0.256-0.8704 0.1024-1.7408-0.4096-2.5088a3.24608 3.24608 0 0 0-2.048-1.4336 3.85536 3.85536 0 0 0-2.7136 0.4096l-26.3168 14.08 5.376-18.6368c0.256-0.8704 0.1024-1.792-0.3584-2.5088a2.8416 2.8416 0 0 0-2.1504-1.3824 3.56352 3.56352 0 0 0-4.1472 2.2528l-7.2704 24.6272-20.0704 10.752v-21.5552l19.456-18.0224c0.7168-0.5632 1.1264-1.3824 1.1264-2.2528 0-0.8704-0.4096-1.7408-1.1264-2.2528a3.5328 3.5328 0 0 0-4.7616 0l-14.6944 13.6704v-27.9552a3.5072 3.5072 0 0 0-3.4304-2.6624c-1.6384 0-3.0208 1.1264-3.4304 2.6624v27.9552l-14.6944-13.6704a3.5328 3.5328 0 0 0-4.7616 0c-0.7168 0.5632-1.1264 1.3824-1.1264 2.2528 0 0.8704 0.4096 1.7408 1.1264 2.2528l19.456 18.0224v21.5552l-20.0704-10.752-7.2704-24.6272a3.51232 3.51232 0 0 0-4.1472-2.2528c-0.8704 0.1536-1.6384 0.6656-2.1504 1.3824a3.1232 3.1232 0 0 0-0.3584 2.5088l5.376 18.6368-26.3168-14.08-1.6384-0.4096a3.38432 3.38432 0 0 0-3.328 2.2528c-0.3584 1.4336 0.3584 2.8672 1.6384 3.5328l26.3168 13.8752-20.0704 4.9664c-0.8192 0.2048-1.5872 0.7168-1.9968 1.4848a3.4304 3.4304 0 0 0-0.3072 2.4576c0.6144 1.6896 2.4064 2.7136 4.1472 2.2528l26.5216-6.6048 20.0704 10.752-22.784 12.2368-26.7264-6.6048a3.56352 3.56352 0 0 0-4.1472 2.2528c-0.256 0.8704-0.1024 1.792 0.3584 2.5088 0.4608 0.768 1.2288 1.28 2.1504 1.3824l20.2752 4.7616-23.6032 12.6464c-0.768 0.4096-1.3312 1.0752-1.536 1.8944-0.256 0.8192-0.1024 1.6896 0.3072 2.4576 0.9728 1.536 2.9184 2.048 4.5568 1.2288l23.6032-12.8512-5.376 18.6368c-0.256 0.8704-0.1024 1.792 0.3584 2.5088 0.4608 0.768 1.2288 1.28 2.1504 1.3824 1.7408 0.4096 3.5328-0.5632 4.1472-2.2528l7.0656-24.4224 22.784-12.2368v24.2176l-19.456 18.0224c-0.7168 0.5632-1.1264 1.3824-1.1264 2.2528 0 0.8704 0.4096 1.7408 1.1264 2.2528 1.3312 1.2288 3.4304 1.2288 4.7616 0l14.6944-13.6704v25.2416c0.4096 1.5872 1.792 2.6624 3.4304 2.6624 1.6384 0 3.0208-1.1264 3.4304-2.6624v-25.2416l14.6944 13.6704c1.3312 1.2288 3.4304 1.2288 4.7616 0 0.7168-0.5632 1.1264-1.3824 1.1264-2.2528 0-0.8704-0.4096-1.7408-1.1264-2.2528l-19.456-18.0224v-24.4224l22.784 12.2368 7.2704 24.832c0.6144 1.6896 2.4064 2.7136 4.1472 2.2528 0.8704-0.1536 1.6384-0.6656 2.1504-1.3824a3.1232 3.1232 0 0 0 0.3584-2.5088l-5.376-18.6368 23.6032 12.8512c1.5872 0.8192 3.584 0.256 4.5568-1.2288 0.4608-0.7168 0.5632-1.6384 0.3072-2.4576a3.17952 3.17952 0 0 0-1.536-1.8944l-23.6032-12.6464 20.0704-4.9664a3.1744 3.1744 0 0 0 2.5088-3.5328 3.3536 3.3536 0 0 0-3.328-2.7136h-0.8192l-26.7264 6.6048-22.784-12.2368 20.0704-10.752 26.7264 6.8096c1.7408 0.4096 3.5328-0.5632 4.1472-2.2528 0.256-0.8704 0.1024-1.792-0.3584-2.5088a2.8416 2.8416 0 0 0-2.1504-1.3824l-20.0704-4.9664 26.5216-14.0288z m-26.4704 14.08M854.4256 742.912a3.072 3.072 0 0 0 1.6384-1.8432c0.256-0.8704 0.1024-1.7408-0.4096-2.5088a3.24608 3.24608 0 0 0-2.048-1.4336 3.85536 3.85536 0 0 0-2.7136 0.4096l-26.3168 14.08 5.376-18.6368c0.256-0.8704 0.1024-1.792-0.3584-2.5088a2.8416 2.8416 0 0 0-2.1504-1.3824 3.56352 3.56352 0 0 0-4.1472 2.2528l-7.2704 24.6272-20.0704 10.752v-21.5552l19.456-18.0224c0.7168-0.5632 1.1264-1.3824 1.1264-2.2528 0-0.8704-0.4096-1.7408-1.1264-2.2528a3.5328 3.5328 0 0 0-4.7616 0l-14.6944 13.6704v-27.9552a3.5072 3.5072 0 0 0-3.4304-2.6624c-1.6384 0-3.0208 1.1264-3.4304 2.6624v27.9552l-14.6944-13.6704a3.5328 3.5328 0 0 0-4.7616 0c-0.7168 0.5632-1.1264 1.3824-1.1264 2.2528 0 0.8704 0.4096 1.7408 1.1264 2.2528l19.456 18.0224v21.5552l-20.0704-10.752-7.2704-24.6272a3.51232 3.51232 0 0 0-4.1472-2.2528c-0.8704 0.1536-1.6384 0.6656-2.1504 1.3824a3.1232 3.1232 0 0 0-0.3584 2.5088l5.376 18.6368-26.3168-14.08-1.6384-0.4096a3.38432 3.38432 0 0 0-3.328 2.2528c-0.3584 1.4336 0.3584 2.8672 1.6384 3.5328l26.3168 13.8752-20.0704 4.9664c-0.8192 0.2048-1.5872 0.7168-1.9968 1.4848a3.4304 3.4304 0 0 0-0.3072 2.4576c0.6144 1.6896 2.4064 2.7136 4.1472 2.2528l26.5216-6.6048 20.0704 10.752-22.784 12.2368-26.7264-6.6048a3.56352 3.56352 0 0 0-4.1472 2.2528c-0.256 0.8704-0.1024 1.792 0.3584 2.5088 0.4608 0.768 1.2288 1.28 2.1504 1.3824l20.2752 4.7616-23.6032 12.6464c-0.768 0.4096-1.3312 1.0752-1.536 1.8944-0.256 0.8192-0.1024 1.6896 0.3072 2.4576 0.9728 1.536 2.9184 2.048 4.5568 1.2288l23.6032-12.8512-5.376 18.6368c-0.256 0.8704-0.1024 1.792 0.3584 2.5088 0.4608 0.768 1.2288 1.28 2.1504 1.3824 1.7408 0.4096 3.5328-0.5632 4.1472-2.2528l7.0656-24.4224 22.784-12.2368v24.2176l-19.456 18.0224c-0.7168 0.5632-1.1264 1.3824-1.1264 2.2528s0.4096 1.7408 1.1264 2.2528c1.3312 1.2288 3.4304 1.2288 4.7616 0l14.6944-13.6704v25.2416c0.4096 1.5872 1.792 2.6624 3.4304 2.6624 1.6384 0 3.0208-1.1264 3.4304-2.6624v-25.2416l14.6944 13.6704c1.3312 1.2288 3.4304 1.2288 4.7616 0 0.7168-0.5632 1.1264-1.3824 1.1264-2.2528s-0.4096-1.7408-1.1264-2.2528l-19.456-18.0224v-24.4224l22.784 12.2368 7.2704 24.832c0.6144 1.6896 2.4064 2.7136 4.1472 2.2528 0.8704-0.1536 1.6384-0.6656 2.1504-1.3824a3.1232 3.1232 0 0 0 0.3584-2.5088l-5.376-18.6368 23.6032 12.8512c1.5872 0.8192 3.584 0.256 4.5568-1.2288 0.4608-0.7168 0.5632-1.6384 0.3072-2.4576a3.17952 3.17952 0 0 0-1.536-1.8944l-23.6032-12.6464 20.0704-4.9664a3.1744 3.1744 0 0 0 2.5088-3.5328 3.3536 3.3536 0 0 0-3.328-2.7136h-0.8192l-26.7264 6.6048-22.784-12.2368 20.0704-10.752 26.7264 6.8096c1.7408 0.4096 3.5328-0.5632 4.1472-2.2528 0.256-0.8704 0.1024-1.792-0.3584-2.5088a2.8416 2.8416 0 0 0-2.1504-1.3824l-20.0704-4.9664 26.5216-14.0288z m-26.4704 14.08" fill="#9FDFFF" p-id="12842"></path><path d="M264.2944 896.512a3.072 3.072 0 0 0 1.6384-1.8432c0.256-0.8704 0.1024-1.7408-0.4096-2.5088a3.24608 3.24608 0 0 0-2.048-1.4336 3.85536 3.85536 0 0 0-2.7136 0.4096l-26.3168 14.08 5.376-18.6368c0.256-0.8704 0.1024-1.792-0.3584-2.5088a2.8416 2.8416 0 0 0-2.1504-1.3824 3.56352 3.56352 0 0 0-4.1472 2.2528l-7.2704 24.6272-20.0704 10.752v-21.5552l19.456-18.0224c0.7168-0.5632 1.1264-1.3824 1.1264-2.2528 0-0.8704-0.4096-1.7408-1.1264-2.2528a3.5328 3.5328 0 0 0-4.7616 0l-14.6944 13.6704v-27.9552a3.5072 3.5072 0 0 0-3.4304-2.6624c-1.6384 0-3.0208 1.1264-3.4304 2.6624v27.9552l-14.6944-13.6704a3.5328 3.5328 0 0 0-4.7616 0c-0.7168 0.5632-1.1264 1.3824-1.1264 2.2528 0 0.8704 0.4096 1.7408 1.1264 2.2528l19.456 18.0224v21.5552l-20.0704-10.752-7.2704-24.6272a3.51232 3.51232 0 0 0-4.1472-2.2528c-0.8704 0.1536-1.6384 0.6656-2.1504 1.3824a3.1232 3.1232 0 0 0-0.3584 2.5088l5.376 18.6368-26.3168-14.08-1.6384-0.4096a3.38432 3.38432 0 0 0-3.328 2.2528c-0.3584 1.4336 0.3584 2.8672 1.6384 3.5328l26.3168 13.8752-20.0704 4.9664c-0.8192 0.2048-1.5872 0.7168-1.9968 1.4848a3.4304 3.4304 0 0 0-0.3072 2.4576c0.6144 1.6896 2.4064 2.7136 4.1472 2.2528l26.5216-6.6048 20.0704 10.752-22.784 12.2368-26.7264-6.6048a3.56352 3.56352 0 0 0-4.1472 2.2528c-0.256 0.8704-0.1024 1.792 0.3584 2.5088 0.4608 0.768 1.2288 1.28 2.1504 1.3824l20.2752 4.7616-23.6032 12.6464c-0.768 0.4096-1.3312 1.0752-1.536 1.8944-0.256 0.8192-0.1024 1.6896 0.3072 2.4576 0.9728 1.536 2.9184 2.048 4.5568 1.2288l23.6032-12.8512-5.376 18.6368c-0.256 0.8704-0.1024 1.792 0.3584 2.5088 0.4608 0.768 1.2288 1.28 2.1504 1.3824 1.7408 0.4096 3.5328-0.5632 4.1472-2.2528l7.0656-24.4224 22.784-12.2368v24.2176l-19.456 18.0224c-0.7168 0.5632-1.1264 1.3824-1.1264 2.2528s0.4096 1.7408 1.1264 2.2528c1.3312 1.2288 3.4304 1.2288 4.7616 0l14.6944-13.6704v25.2416c0.4096 1.5872 1.792 2.6624 3.4304 2.6624 1.6384 0 3.0208-1.1264 3.4304-2.6624v-25.2416l14.6944 13.6704c1.3312 1.2288 3.4304 1.2288 4.7616 0 0.7168-0.5632 1.1264-1.3824 1.1264-2.2528s-0.4096-1.7408-1.1264-2.2528l-19.456-18.0224v-24.4224l22.784 12.2368 7.2704 24.832c0.6144 1.6896 2.4064 2.7136 4.1472 2.2528 0.8704-0.1536 1.6384-0.6656 2.1504-1.3824a3.1232 3.1232 0 0 0 0.3584-2.5088l-5.376-18.6368 23.6032 12.8512c1.5872 0.8192 3.584 0.256 4.5568-1.2288 0.4608-0.7168 0.5632-1.6384 0.3072-2.4576a3.17952 3.17952 0 0 0-1.536-1.8944l-23.6032-12.6464 20.0704-4.9664a3.1744 3.1744 0 0 0 2.5088-3.5328 3.3536 3.3536 0 0 0-3.328-2.7136h-0.8192l-26.7264 6.6048-22.784-12.2368 20.0704-10.752 26.7264 6.8096c1.7408 0.4096 3.5328-0.5632 4.1472-2.2528 0.256-0.8704 0.1024-1.792-0.3584-2.5088a2.8416 2.8416 0 0 0-2.1504-1.3824l-20.0704-4.9664 26.5216-14.0288z m-26.5216 14.08" fill="#78CCFF" p-id="12843"></path><path d="M461.0048 896.512a3.072 3.072 0 0 0 1.6384-1.8432c0.256-0.8704 0.1024-1.7408-0.4096-2.5088a3.24608 3.24608 0 0 0-2.048-1.4336 3.85536 3.85536 0 0 0-2.7136 0.4096l-26.3168 14.08 5.376-18.6368c0.256-0.8704 0.1024-1.792-0.3584-2.5088a2.8416 2.8416 0 0 0-2.1504-1.3824 3.56352 3.56352 0 0 0-4.1472 2.2528l-7.2704 24.6272-20.0704 10.752v-21.5552l19.456-18.0224c0.7168-0.5632 1.1264-1.3824 1.1264-2.2528 0-0.8704-0.4096-1.7408-1.1264-2.2528a3.5328 3.5328 0 0 0-4.7616 0l-14.6944 13.6704v-27.9552a3.5072 3.5072 0 0 0-3.4304-2.6624c-1.6384 0-3.0208 1.1264-3.4304 2.6624v27.9552l-14.6944-13.6704a3.5328 3.5328 0 0 0-4.7616 0c-0.7168 0.5632-1.1264 1.3824-1.1264 2.2528 0 0.8704 0.4096 1.7408 1.1264 2.2528l19.456 18.0224v21.5552l-20.0704-10.752-7.2704-24.6272a3.51232 3.51232 0 0 0-4.1472-2.2528c-0.8704 0.1536-1.6384 0.6656-2.1504 1.3824a3.1232 3.1232 0 0 0-0.3584 2.5088l5.376 18.6368-26.3168-14.08-1.6384-0.4096a3.38432 3.38432 0 0 0-3.328 2.2528c-0.3584 1.4336 0.3584 2.8672 1.6384 3.5328l26.3168 13.8752-20.0704 4.9664c-0.8192 0.2048-1.5872 0.7168-1.9968 1.4848a3.4304 3.4304 0 0 0-0.3072 2.4576c0.6144 1.6896 2.4064 2.7136 4.1472 2.2528l26.5216-6.6048 20.0704 10.752-22.784 12.2368-26.7264-6.6048a3.56352 3.56352 0 0 0-4.1472 2.2528c-0.256 0.8704-0.1024 1.792 0.3584 2.5088 0.4608 0.768 1.2288 1.28 2.1504 1.3824l20.2752 4.7616-23.6032 12.6464c-0.768 0.4096-1.3312 1.0752-1.536 1.8944-0.256 0.8192-0.1024 1.6896 0.3072 2.4576 0.9728 1.536 2.9184 2.048 4.5568 1.2288l23.6032-12.8512-5.376 18.6368c-0.256 0.8704-0.1024 1.792 0.3584 2.5088 0.4608 0.768 1.2288 1.28 2.1504 1.3824 1.7408 0.4096 3.5328-0.5632 4.1472-2.2528l7.0656-24.4224 22.784-12.2368v24.2176l-19.456 18.0224c-0.7168 0.5632-1.1264 1.3824-1.1264 2.2528s0.4096 1.7408 1.1264 2.2528c1.3312 1.2288 3.4304 1.2288 4.7616 0l14.6944-13.6704v25.2416c0.4096 1.5872 1.792 2.6624 3.4304 2.6624 1.6384 0 3.0208-1.1264 3.4304-2.6624v-25.2416l14.6944 13.6704c1.3312 1.2288 3.4304 1.2288 4.7616 0 0.7168-0.5632 1.1264-1.3824 1.1264-2.2528s-0.4096-1.7408-1.1264-2.2528l-19.456-18.0224v-24.4224l22.784 12.2368 7.2704 24.832c0.6144 1.6896 2.4064 2.7136 4.1472 2.2528 0.8704-0.1536 1.6384-0.6656 2.1504-1.3824a3.1232 3.1232 0 0 0 0.3584-2.5088l-5.376-18.6368 23.6032 12.8512c1.5872 0.8192 3.584 0.256 4.5568-1.2288 0.4608-0.7168 0.5632-1.6384 0.3072-2.4576a3.17952 3.17952 0 0 0-1.536-1.8944l-23.6032-12.6464 20.0704-4.9664a3.1744 3.1744 0 0 0 2.5088-3.5328 3.3536 3.3536 0 0 0-3.328-2.7136h-0.8192l-26.7264 6.6048-22.784-12.2368 20.0704-10.752 26.7264 6.8096c1.7408 0.4096 3.5328-0.5632 4.1472-2.2528 0.256-0.8704 0.1024-1.792-0.3584-2.5088a2.8416 2.8416 0 0 0-2.1504-1.3824l-20.0704-4.9664 26.5216-14.0288z m-26.5216 14.08" fill="#78CCFF" p-id="12844"></path><path d="M657.7152 897.9456a3.072 3.072 0 0 0 1.6384-1.8432c0.256-0.8704 0.1024-1.7408-0.4096-2.5088a3.24608 3.24608 0 0 0-2.048-1.4336 3.85536 3.85536 0 0 0-2.7136 0.4096l-26.3168 14.08 5.376-18.6368c0.256-0.8704 0.1024-1.792-0.3584-2.5088a2.8416 2.8416 0 0 0-2.1504-1.3824 3.56352 3.56352 0 0 0-4.1472 2.2528l-7.2704 24.6272-20.0704 10.752v-21.5552l19.456-18.0224c0.7168-0.5632 1.1264-1.3824 1.1264-2.2528 0-0.8704-0.4096-1.7408-1.1264-2.2528a3.5328 3.5328 0 0 0-4.7616 0l-14.6944 13.6704v-27.9552a3.5072 3.5072 0 0 0-3.4304-2.6624c-1.6384 0-3.0208 1.1264-3.4304 2.6624v27.9552l-14.6944-13.6704a3.5328 3.5328 0 0 0-4.7616 0c-0.7168 0.5632-1.1264 1.3824-1.1264 2.2528 0 0.8704 0.4096 1.7408 1.1264 2.2528l19.456 18.0224v21.5552l-20.0704-10.752-7.2704-24.6272a3.51232 3.51232 0 0 0-4.1472-2.2528c-0.8704 0.1536-1.6384 0.6656-2.1504 1.3824a3.1232 3.1232 0 0 0-0.3584 2.5088l5.376 18.6368-26.3168-14.08-1.6384-0.4096a3.38432 3.38432 0 0 0-3.328 2.2528c-0.3584 1.4336 0.3584 2.8672 1.6384 3.5328l26.3168 13.8752-20.0704 4.9664c-0.8192 0.2048-1.5872 0.7168-1.9968 1.4848a3.4304 3.4304 0 0 0-0.3072 2.4576c0.6144 1.6896 2.4064 2.7136 4.1472 2.2528l26.5216-6.6048 20.0704 10.752-22.784 12.2368-26.7264-6.6048a3.56352 3.56352 0 0 0-4.1472 2.2528c-0.256 0.8704-0.1024 1.792 0.3584 2.5088 0.4608 0.768 1.2288 1.28 2.1504 1.3824l20.2752 4.7616-23.6032 12.6464c-0.768 0.4096-1.3312 1.0752-1.536 1.8944-0.256 0.8192-0.1024 1.6896 0.3072 2.4576 0.9728 1.536 2.9184 2.048 4.5568 1.2288l23.6032-12.8512-5.376 18.6368c-0.256 0.8704-0.1024 1.792 0.3584 2.5088 0.4608 0.768 1.2288 1.28 2.1504 1.3824 1.7408 0.4096 3.5328-0.5632 4.1472-2.2528l7.0656-24.4224 22.784-12.2368v24.2176l-19.456 18.0224c-0.7168 0.5632-1.1264 1.3824-1.1264 2.2528 0 0.8704 0.4096 1.7408 1.1264 2.2528 1.3312 1.2288 3.4304 1.2288 4.7616 0l14.6944-13.6704v25.2416c0.4096 1.5872 1.792 2.6624 3.4304 2.6624 1.6384 0 3.0208-1.1264 3.4304-2.6624v-25.2416l14.6944 13.6704c1.3312 1.2288 3.4304 1.2288 4.7616 0 0.7168-0.5632 1.1264-1.3824 1.1264-2.2528 0-0.8704-0.4096-1.7408-1.1264-2.2528l-19.456-18.0224v-24.4224l22.784 12.2368 7.2704 24.832c0.6144 1.6896 2.4064 2.7136 4.1472 2.2528 0.8704-0.1536 1.6384-0.6656 2.1504-1.3824a3.1232 3.1232 0 0 0 0.3584-2.5088l-5.376-18.6368 23.6032 12.8512c1.5872 0.8192 3.584 0.256 4.5568-1.2288 0.4608-0.7168 0.5632-1.6384 0.3072-2.4576a3.17952 3.17952 0 0 0-1.536-1.8944l-23.6032-12.6464 20.0704-4.9664a3.1744 3.1744 0 0 0 2.5088-3.5328 3.3536 3.3536 0 0 0-3.328-2.7136h-0.8192l-26.7264 6.6048-22.784-12.2368 20.0704-10.752 26.7264 6.8096c1.7408 0.4096 3.5328-0.5632 4.1472-2.2528 0.256-0.8704 0.1024-1.792-0.3584-2.5088a2.8416 2.8416 0 0 0-2.1504-1.3824l-20.0704-4.9664 26.5216-14.0288z m-26.4704 14.08" fill="#78CCFF" p-id="12845"></path><path d="M854.4256 896.512a3.072 3.072 0 0 0 1.6384-1.8432c0.256-0.8704 0.1024-1.7408-0.4096-2.5088a3.24608 3.24608 0 0 0-2.048-1.4336 3.85536 3.85536 0 0 0-2.7136 0.4096l-26.3168 14.08 5.376-18.6368c0.256-0.8704 0.1024-1.792-0.3584-2.5088a2.8416 2.8416 0 0 0-2.1504-1.3824 3.56352 3.56352 0 0 0-4.1472 2.2528l-7.2704 24.6272-20.0704 10.752v-21.5552l19.456-18.0224c0.7168-0.5632 1.1264-1.3824 1.1264-2.2528 0-0.8704-0.4096-1.7408-1.1264-2.2528a3.5328 3.5328 0 0 0-4.7616 0l-14.6944 13.6704v-27.9552a3.5072 3.5072 0 0 0-3.4304-2.6624c-1.6384 0-3.0208 1.1264-3.4304 2.6624v27.9552l-14.6944-13.6704a3.5328 3.5328 0 0 0-4.7616 0c-0.7168 0.5632-1.1264 1.3824-1.1264 2.2528 0 0.8704 0.4096 1.7408 1.1264 2.2528l19.456 18.0224v21.5552l-20.0704-10.752-7.2704-24.6272a3.51232 3.51232 0 0 0-4.1472-2.2528c-0.8704 0.1536-1.6384 0.6656-2.1504 1.3824a3.1232 3.1232 0 0 0-0.3584 2.5088l5.376 18.6368-26.3168-14.08-1.6384-0.4096a3.38432 3.38432 0 0 0-3.328 2.2528c-0.3584 1.4336 0.3584 2.8672 1.6384 3.5328l26.3168 13.8752-20.0704 4.9664c-0.8192 0.2048-1.5872 0.7168-1.9968 1.4848a3.4304 3.4304 0 0 0-0.3072 2.4576c0.6144 1.6896 2.4064 2.7136 4.1472 2.2528l26.5216-6.6048 20.0704 10.752-22.784 12.2368-26.7264-6.6048a3.56352 3.56352 0 0 0-4.1472 2.2528c-0.256 0.8704-0.1024 1.792 0.3584 2.5088 0.4608 0.768 1.2288 1.28 2.1504 1.3824l20.2752 4.7616-23.6032 12.6464c-0.768 0.4096-1.3312 1.0752-1.536 1.8944-0.256 0.8192-0.1024 1.6896 0.3072 2.4576 0.9728 1.536 2.9184 2.048 4.5568 1.2288l23.6032-12.8512-5.376 18.6368c-0.256 0.8704-0.1024 1.792 0.3584 2.5088 0.4608 0.768 1.2288 1.28 2.1504 1.3824 1.7408 0.4096 3.5328-0.5632 4.1472-2.2528l7.0656-24.4224 22.784-12.2368v24.2176l-19.456 18.0224c-0.7168 0.5632-1.1264 1.3824-1.1264 2.2528s0.4096 1.7408 1.1264 2.2528c1.3312 1.2288 3.4304 1.2288 4.7616 0l14.6944-13.6704v25.2416c0.4096 1.5872 1.792 2.6624 3.4304 2.6624 1.6384 0 3.0208-1.1264 3.4304-2.6624v-25.2416l14.6944 13.6704c1.3312 1.2288 3.4304 1.2288 4.7616 0 0.7168-0.5632 1.1264-1.3824 1.1264-2.2528s-0.4096-1.7408-1.1264-2.2528l-19.456-18.0224v-24.4224l22.784 12.2368 7.2704 24.832c0.6144 1.6896 2.4064 2.7136 4.1472 2.2528 0.8704-0.1536 1.6384-0.6656 2.1504-1.3824a3.1232 3.1232 0 0 0 0.3584-2.5088l-5.376-18.6368 23.6032 12.8512c1.5872 0.8192 3.584 0.256 4.5568-1.2288 0.4608-0.7168 0.5632-1.6384 0.3072-2.4576a3.17952 3.17952 0 0 0-1.536-1.8944l-23.6032-12.6464 20.0704-4.9664a3.1744 3.1744 0 0 0 2.5088-3.5328 3.3536 3.3536 0 0 0-3.328-2.7136h-0.8192l-26.7264 6.6048-22.784-12.2368 20.0704-10.752 26.7264 6.8096c1.7408 0.4096 3.5328-0.5632 4.1472-2.2528 0.256-0.8704 0.1024-1.792-0.3584-2.5088a2.8416 2.8416 0 0 0-2.1504-1.3824l-20.0704-4.9664 26.5216-14.0288z m-26.4704 14.08" fill="#78CCFF" p-id="12846"></path></svg>