<?xml version="1.0" standalone="no"?><!DOCTYPE svg PUBLIC "-//W3C//DTD SVG 1.1//EN" "http://www.w3.org/Graphics/SVG/1.1/DTD/svg11.dtd"><svg t="1712804375945" class="icon" viewBox="0 0 1024 1024" version="1.1" xmlns="http://www.w3.org/2000/svg" p-id="7693" xmlns:xlink="http://www.w3.org/1999/xlink" width="200" height="200"><path d="M402.432 307.968m-286.5152 0a286.5152 286.5152 0 1 0 573.0304 0 286.5152 286.5152 0 1 0-573.0304 0Z" fill="#9FDFFF" p-id="7694"></path><path d="M731.648 498.5856m-253.0816 0a253.0816 253.0816 0 1 0 506.1632 0 253.0816 253.0816 0 1 0-506.1632 0Z" fill="#78CCFF" p-id="7695"></path><path d="M268.4416 522.4448m-229.2224 0a229.2224 229.2224 0 1 0 458.4448 0 229.2224 229.2224 0 1 0-458.4448 0Z" fill="#78CCFF" p-id="7696"></path><path d="M266.0864 522.4448h463.2064v229.2224H266.0864z" fill="#78CCFF" p-id="7697"></path><path d="M391.7312 767.7952l23.1936-5.7344c1.024-0.1536 1.8944-0.768 2.4576-1.6384 0.5632-0.8704 0.7168-1.9456 0.4096-2.9184a3.9936 3.9936 0 0 0-4.7616-2.6112l-30.8224 7.8848-23.1936-12.4416 26.2656-14.08 30.8224 7.6288h0.9728c1.8432 0.0512 3.4816-1.28 3.84-3.1232a3.55328 3.55328 0 0 0-2.8672-4.0448l-23.1936-5.7344 27.2384-14.592a3.61472 3.61472 0 0 0 1.4336-5.0176 4.11136 4.11136 0 0 0-5.2736-1.4336l-27.2384 14.7968 6.1952-21.504c0.3072-0.9728 0.1536-2.048-0.4096-2.9184a3.57376 3.57376 0 0 0-2.4576-1.6384c-2.048-0.4608-4.096 0.6656-4.7616 2.6112l-8.3456 28.672-26.2656 14.08v-28.2112l22.4768-20.7872c0.8192-0.6144 1.28-1.5872 1.28-2.6112s-0.4608-1.9968-1.28-2.6112a4.02432 4.02432 0 0 0-5.4784 0l-16.9472 15.7696v-29.1328a4.10112 4.10112 0 0 0-3.9424-3.072c-1.8432 0-3.4816 1.28-3.9424 3.072v29.1328l-16.9472-15.7696a4.02432 4.02432 0 0 0-5.4784 0c-0.8192 0.6144-1.28 1.5872-1.28 2.6112s0.4608 1.9968 1.28 2.6112l22.4768 20.7872v27.9552l-26.2656-14.08-8.1408-28.2112a3.9936 3.9936 0 0 0-4.7616-2.6112c-1.024 0.1536-1.8944 0.768-2.4576 1.6384-0.5632 0.8704-0.7168 1.9456-0.4096 2.9184l6.1952 21.504-27.2384-14.7968a4.12672 4.12672 0 0 0-5.2736 1.4336 3.61472 3.61472 0 0 0 1.4336 5.0176l27.2384 14.592-23.3984 5.4784c-1.024 0.1536-1.8944 0.768-2.4576 1.6384-0.5632 0.8704-0.7168 1.9456-0.4096 2.9184 0.6656 1.9968 2.7648 3.1232 4.7616 2.6112l30.8224-7.6288 26.2656 14.08-23.1936 12.4416-30.5664-7.6288c-2.048-0.4608-4.096 0.6656-4.7616 2.6112-0.3072 0.9728-0.1536 1.9968 0.3072 2.8672 0.512 0.8704 1.3312 1.4848 2.304 1.6896l23.1936 5.7344-30.3616 16.0256c-1.536 0.7168-2.304 2.4064-1.8944 4.0448 0.512 1.6384 2.0992 2.7136 3.84 2.6112l1.8944-0.4608 30.3616-16.2304-6.1952 21.504c-0.3072 0.9728-0.1536 2.048 0.4096 2.9184 0.5632 0.8704 1.4336 1.4848 2.4576 1.6384 2.048 0.4608 4.096-0.6656 4.7616-2.6112l8.3456-28.416 23.1936-12.4416v24.832l-22.4768 20.7872c-0.8192 0.6144-1.28 1.5872-1.28 2.6112s0.4608 1.9968 1.28 2.6112c1.536 1.4336 3.9424 1.4336 5.4784 0l16.9472-15.7696v32.256c0.4608 1.792 2.0992 3.072 3.9424 3.072 1.8432 0 3.4816-1.28 3.9424-3.072v-32.256l16.9472 15.7696c1.536 1.4336 3.9424 1.4336 5.4784 0 0.8192-0.6144 1.28-1.5872 1.28-2.6112s-0.4608-1.9968-1.28-2.6112l-22.4768-20.7872v-24.832l23.1936 12.4416 8.3456 28.416c0.6656 1.9968 2.7648 3.1232 4.7616 2.6112 1.024-0.1536 1.8944-0.768 2.4576-1.6384 0.5632-0.8704 0.7168-1.9456 0.4096-2.9184l-6.1952-21.504 30.3616 16.2304c0.9216 0.5632 2.048 0.7168 3.1232 0.4608a3.84 3.84 0 0 0 2.4064-1.6896c0.5632-0.8192 0.768-1.8944 0.4608-2.8672a3.59424 3.59424 0 0 0-1.8944-2.1504l-30.6688-16.1792z m0 0M684.8512 767.7952l23.1936-5.7344c1.024-0.1536 1.8944-0.768 2.4576-1.6384 0.5632-0.8704 0.7168-1.9456 0.4096-2.9184a3.9936 3.9936 0 0 0-4.7616-2.6112l-30.8224 7.8848-23.1936-12.4416 26.2656-14.08 30.8224 7.6288h0.9728c1.8432 0.0512 3.4816-1.28 3.84-3.1232a3.55328 3.55328 0 0 0-2.8672-4.0448l-23.1936-5.7344 27.2384-14.592a3.61472 3.61472 0 0 0 1.4336-5.0176 4.11136 4.11136 0 0 0-5.2736-1.4336l-27.2384 14.7968 6.1952-21.504c0.3072-0.9728 0.1536-2.048-0.4096-2.9184a3.57376 3.57376 0 0 0-2.4576-1.6384c-2.048-0.4608-4.096 0.6656-4.7616 2.6112l-8.3456 28.672-26.2656 14.08v-28.2112l22.4768-20.7872c0.8192-0.6144 1.28-1.5872 1.28-2.6112s-0.4608-1.9968-1.28-2.6112a4.02432 4.02432 0 0 0-5.4784 0l-16.9472 15.7696v-29.1328a4.10112 4.10112 0 0 0-3.9424-3.072c-1.8432 0-3.4816 1.28-3.9424 3.072v29.1328l-16.9472-15.7696a4.02432 4.02432 0 0 0-5.4784 0c-0.8192 0.6144-1.28 1.5872-1.28 2.6112s0.4608 1.9968 1.28 2.6112l22.4768 20.7872v27.9552l-26.2656-14.08-8.1408-28.2112a3.9936 3.9936 0 0 0-4.7616-2.6112c-1.024 0.1536-1.8944 0.768-2.4576 1.6384-0.5632 0.8704-0.7168 1.9456-0.4096 2.9184l6.1952 21.504-27.2384-14.7968a4.12672 4.12672 0 0 0-5.2736 1.4336 3.61472 3.61472 0 0 0 1.4336 5.0176l27.2384 14.592-23.3984 5.4784c-1.024 0.1536-1.8944 0.768-2.4576 1.6384-0.5632 0.8704-0.7168 1.9456-0.4096 2.9184 0.6656 1.9968 2.7648 3.1232 4.7616 2.6112l30.8224-7.6288 26.2656 14.08-23.1936 12.4416-30.5664-7.6288c-2.048-0.4608-4.096 0.6656-4.7616 2.6112-0.3072 0.9728-0.1536 1.9968 0.3072 2.8672 0.512 0.8704 1.3312 1.4848 2.304 1.6896l23.1936 5.7344-30.3616 16.0256c-1.536 0.7168-2.304 2.4064-1.8944 4.0448 0.512 1.6384 2.0992 2.7136 3.84 2.6112l1.8944-0.4608 30.3616-16.2304-6.1952 21.504c-0.3072 0.9728-0.1536 2.048 0.4096 2.9184 0.5632 0.8704 1.4336 1.4848 2.4576 1.6384 2.048 0.4608 4.096-0.6656 4.7616-2.6112l8.3456-28.416 23.1936-12.4416v24.832l-22.4768 20.7872c-0.8192 0.6144-1.28 1.5872-1.28 2.6112s0.4608 1.9968 1.28 2.6112c1.536 1.4336 3.9424 1.4336 5.4784 0l16.9472-15.7696v32.256c0.4608 1.792 2.0992 3.072 3.9424 3.072 1.8432 0 3.4816-1.28 3.9424-3.072v-32.256l16.9472 15.7696c1.536 1.4336 3.9424 1.4336 5.4784 0 0.8192-0.6144 1.28-1.5872 1.28-2.6112s-0.4608-1.9968-1.28-2.6112l-22.4768-20.7872v-24.832l23.1936 12.4416 8.3456 28.416c0.6656 1.9968 2.7648 3.1232 4.7616 2.6112 1.024-0.1536 1.8944-0.768 2.4576-1.6384 0.5632-0.8704 0.7168-1.9456 0.4096-2.9184l-6.1952-21.504 30.3616 16.2304c0.9216 0.5632 2.048 0.7168 3.1232 0.4608a3.84 3.84 0 0 0 2.4064-1.6896c0.5632-0.8192 0.768-1.8944 0.4608-2.8672a3.59424 3.59424 0 0 0-1.8944-2.1504l-30.6688-16.1792z m0 0" fill="#9FDFFF" p-id="7698"></path><path d="M245.1456 895.8464l23.1936-5.7344c1.024-0.1536 1.8944-0.768 2.4576-1.6384 0.5632-0.8704 0.7168-1.9456 0.4096-2.9184a3.9936 3.9936 0 0 0-4.7616-2.6112l-30.8224 7.8848-23.1936-12.4416 26.2656-14.08 30.8224 7.6288h0.9728c1.8432 0.0512 3.4816-1.28 3.84-3.1232a3.55328 3.55328 0 0 0-2.8672-4.0448l-23.1936-5.7344 27.2384-14.592a3.61472 3.61472 0 0 0 1.4336-5.0176 4.11136 4.11136 0 0 0-5.2736-1.4336l-27.2384 14.7968 6.1952-21.504c0.3072-0.9728 0.1536-2.048-0.4096-2.9184a3.57376 3.57376 0 0 0-2.4576-1.6384c-2.048-0.4608-4.096 0.6656-4.7616 2.6112l-8.3456 28.672-26.2656 14.08v-28.2112l22.4768-20.7872c0.8192-0.6144 1.28-1.5872 1.28-2.6112s-0.4608-1.9968-1.28-2.6112a4.02432 4.02432 0 0 0-5.4784 0l-16.9472 15.7696v-29.1328a4.10112 4.10112 0 0 0-3.9424-3.072c-1.8432 0-3.4816 1.28-3.9424 3.072v29.1328l-16.9472-15.7696a4.02432 4.02432 0 0 0-5.4784 0c-0.8192 0.6144-1.28 1.5872-1.28 2.6112s0.4608 1.9968 1.28 2.6112l22.4768 20.7872v27.9552l-26.2656-14.08-8.1408-28.2112a3.9936 3.9936 0 0 0-4.7616-2.6112c-1.024 0.1536-1.8944 0.768-2.4576 1.6384-0.5632 0.8704-0.7168 1.9456-0.4096 2.9184l6.1952 21.504-27.2384-14.7968a4.12672 4.12672 0 0 0-5.2736 1.4336 3.61472 3.61472 0 0 0 1.4336 5.0176l27.2384 14.592-23.3984 5.4784c-1.024 0.1536-1.8944 0.768-2.4576 1.6384-0.5632 0.8704-0.7168 1.9456-0.4096 2.9184 0.6656 1.9968 2.7648 3.1232 4.7616 2.6112l30.8224-7.6288 26.2656 14.08-23.1936 12.4416-30.5664-7.6288c-2.048-0.4608-4.096 0.6656-4.7616 2.6112-0.3072 0.9728-0.1536 1.9968 0.3072 2.8672 0.512 0.8704 1.3312 1.4848 2.304 1.6896l23.1936 5.7344-30.3616 16.0256c-1.536 0.7168-2.304 2.4064-1.8944 4.0448 0.512 1.6384 2.0992 2.7136 3.84 2.6112l1.8944-0.4608 30.3616-16.2304-6.1952 21.504c-0.3072 0.9728-0.1536 2.048 0.4096 2.9184 0.5632 0.8704 1.4336 1.4848 2.4576 1.6384 2.048 0.4608 4.096-0.6656 4.7616-2.6112l8.3456-28.416 23.1936-12.4416v24.832l-22.4768 20.7872c-0.8192 0.6144-1.28 1.5872-1.28 2.6112s0.4608 1.9968 1.28 2.6112c1.536 1.4336 3.9424 1.4336 5.4784 0l16.9472-15.7696v32.256c0.4608 1.792 2.0992 3.072 3.9424 3.072 1.8432 0 3.4816-1.28 3.9424-3.072v-32.256l16.9472 15.7696c1.536 1.4336 3.9424 1.4336 5.4784 0 0.8192-0.6144 1.28-1.5872 1.28-2.6112s-0.4608-1.9968-1.28-2.6112l-22.4768-20.7872v-24.832l23.1936 12.4416 8.3456 28.416c0.6656 1.9968 2.7648 3.1232 4.7616 2.6112 1.024-0.1536 1.8944-0.768 2.4576-1.6384 0.5632-0.8704 0.7168-1.9456 0.4096-2.9184l-6.1952-21.504 30.3616 16.2304c0.9216 0.5632 2.048 0.7168 3.1232 0.4608a3.84 3.84 0 0 0 2.4064-1.6896c0.5632-0.8192 0.768-1.8944 0.4608-2.8672a3.59424 3.59424 0 0 0-1.8944-2.1504l-30.6688-16.1792z m0 0" fill="#78CCFF" p-id="7699"></path><path d="M538.2656 895.8464l23.1936-5.7344c1.024-0.1536 1.8944-0.768 2.4576-1.6384 0.5632-0.8704 0.7168-1.9456 0.4096-2.9184a3.9936 3.9936 0 0 0-4.7616-2.6112l-30.8224 7.8848-23.1936-12.4416 26.2656-14.08 30.8224 7.6288h0.9728c1.8432 0.0512 3.4816-1.28 3.84-3.1232a3.55328 3.55328 0 0 0-2.8672-4.0448l-23.1936-5.7344 27.2384-14.592a3.61472 3.61472 0 0 0 1.4336-5.0176 4.11136 4.11136 0 0 0-5.2736-1.4336l-27.2384 14.7968 6.1952-21.504c0.3072-0.9728 0.1536-2.048-0.4096-2.9184a3.57376 3.57376 0 0 0-2.4576-1.6384c-2.048-0.4608-4.096 0.6656-4.7616 2.6112l-8.3456 28.672-26.2656 14.08v-28.2112l22.4768-20.7872c0.8192-0.6144 1.28-1.5872 1.28-2.6112s-0.4608-1.9968-1.28-2.6112a4.02432 4.02432 0 0 0-5.4784 0l-16.9472 15.7696v-29.1328a4.10112 4.10112 0 0 0-3.9424-3.072c-1.8432 0-3.4816 1.28-3.9424 3.072v29.1328l-16.9472-15.7696a4.02432 4.02432 0 0 0-5.4784 0c-0.8192 0.6144-1.28 1.5872-1.28 2.6112s0.4608 1.9968 1.28 2.6112l22.4768 20.7872v27.9552l-26.2656-14.08-8.1408-28.2112a3.9936 3.9936 0 0 0-4.7616-2.6112c-1.024 0.1536-1.8944 0.768-2.4576 1.6384-0.5632 0.8704-0.7168 1.9456-0.4096 2.9184l6.1952 21.504-27.2384-14.7968a4.12672 4.12672 0 0 0-5.2736 1.4336 3.61472 3.61472 0 0 0 1.4336 5.0176l27.2384 14.592-23.3984 5.4784c-1.024 0.1536-1.8944 0.768-2.4576 1.6384-0.5632 0.8704-0.7168 1.9456-0.4096 2.9184 0.6656 1.9968 2.7648 3.1232 4.7616 2.6112l30.8224-7.6288 26.2656 14.08-23.1936 12.4416-30.5664-7.6288c-2.048-0.4608-4.096 0.6656-4.7616 2.6112-0.3072 0.9728-0.1536 1.9968 0.3072 2.8672 0.512 0.8704 1.3312 1.4848 2.304 1.6896l23.1936 5.7344-30.3616 16.0256c-1.536 0.7168-2.304 2.4064-1.8944 4.0448 0.512 1.6384 2.0992 2.7136 3.84 2.6112l1.8944-0.4608 30.3616-16.2304-6.1952 21.504c-0.3072 0.9728-0.1536 2.048 0.4096 2.9184 0.5632 0.8704 1.4336 1.4848 2.4576 1.6384 2.048 0.4608 4.096-0.6656 4.7616-2.6112l8.3456-28.416 23.1936-12.4416v24.832l-22.4768 20.7872c-0.8192 0.6144-1.28 1.5872-1.28 2.6112s0.4608 1.9968 1.28 2.6112c1.536 1.4336 3.9424 1.4336 5.4784 0l16.9472-15.7696v32.256c0.4608 1.792 2.0992 3.072 3.9424 3.072 1.8432 0 3.4816-1.28 3.9424-3.072v-32.256l16.9472 15.7696c1.536 1.4336 3.9424 1.4336 5.4784 0 0.8192-0.6144 1.28-1.5872 1.28-2.6112s-0.4608-1.9968-1.28-2.6112l-22.4768-20.7872v-24.832l23.1936 12.4416 8.3456 28.416c0.6656 1.9968 2.7648 3.1232 4.7616 2.6112 1.024-0.1536 1.8944-0.768 2.4576-1.6384 0.5632-0.8704 0.7168-1.9456 0.4096-2.9184l-6.1952-21.504 30.3616 16.2304c0.9216 0.5632 2.048 0.7168 3.1232 0.4608a3.84 3.84 0 0 0 2.4064-1.6896c0.5632-0.8192 0.768-1.8944 0.4608-2.8672a3.59424 3.59424 0 0 0-1.8944-2.1504l-30.6688-16.1792z m0 0" fill="#78CCFF" p-id="7700"></path><path d="M831.3856 895.8464l23.1936-5.7344c1.024-0.1536 1.8944-0.768 2.4576-1.6384 0.5632-0.8704 0.7168-1.9456 0.4096-2.9184a3.9936 3.9936 0 0 0-4.7616-2.6112l-30.8224 7.8848-23.1936-12.4416 26.2656-14.08 30.8224 7.6288h0.9728c1.8432 0.0512 3.4816-1.28 3.84-3.1232a3.55328 3.55328 0 0 0-2.8672-4.0448l-23.1936-5.7344 27.2384-14.592a3.61472 3.61472 0 0 0 1.4336-5.0176 4.11136 4.11136 0 0 0-5.2736-1.4336l-27.2384 14.7968 6.1952-21.504c0.3072-0.9728 0.1536-2.048-0.4096-2.9184a3.57376 3.57376 0 0 0-2.4576-1.6384c-2.048-0.4608-4.096 0.6656-4.7616 2.6112l-8.3456 28.672-26.2656 14.08v-28.2112l22.4768-20.7872c0.8192-0.6144 1.28-1.5872 1.28-2.6112s-0.4608-1.9968-1.28-2.6112a4.02432 4.02432 0 0 0-5.4784 0l-16.9472 15.7696v-29.1328a4.10112 4.10112 0 0 0-3.9424-3.072c-1.8432 0-3.4816 1.28-3.9424 3.072v29.1328l-16.9472-15.7696a4.02432 4.02432 0 0 0-5.4784 0c-0.8192 0.6144-1.28 1.5872-1.28 2.6112s0.4608 1.9968 1.28 2.6112l22.4768 20.7872v27.9552l-26.2656-14.08-8.1408-28.2112a3.9936 3.9936 0 0 0-4.7616-2.6112c-1.024 0.1536-1.8944 0.768-2.4576 1.6384-0.5632 0.8704-0.7168 1.9456-0.4096 2.9184l6.1952 21.504-27.2384-14.7968a4.12672 4.12672 0 0 0-5.2736 1.4336 3.61472 3.61472 0 0 0 1.4336 5.0176l27.2384 14.592-23.3984 5.4784c-1.024 0.1536-1.8944 0.768-2.4576 1.6384-0.5632 0.8704-0.7168 1.9456-0.4096 2.9184 0.6656 1.9968 2.7648 3.1232 4.7616 2.6112l30.8224-7.6288 26.2656 14.08-23.1936 12.4416-30.5664-7.6288c-2.048-0.4608-4.096 0.6656-4.7616 2.6112-0.3072 0.9728-0.1536 1.9968 0.3072 2.8672 0.512 0.8704 1.3312 1.4848 2.304 1.6896l23.1936 5.7344-30.3616 16.0256c-1.536 0.7168-2.304 2.4064-1.8944 4.0448 0.512 1.6384 2.0992 2.7136 3.84 2.6112l1.8944-0.4608 30.3616-16.2304-6.1952 21.504c-0.3072 0.9728-0.1536 2.048 0.4096 2.9184 0.5632 0.8704 1.4336 1.4848 2.4576 1.6384 2.048 0.4608 4.096-0.6656 4.7616-2.6112l8.3456-28.416 23.1936-12.4416v24.832l-22.4768 20.7872c-0.8192 0.6144-1.28 1.5872-1.28 2.6112s0.4608 1.9968 1.28 2.6112c1.536 1.4336 3.9424 1.4336 5.4784 0l16.9472-15.7696v32.256c0.4608 1.792 2.0992 3.072 3.9424 3.072 1.8432 0 3.4816-1.28 3.9424-3.072v-32.256l16.9472 15.7696c1.536 1.4336 3.9424 1.4336 5.4784 0 0.8192-0.6144 1.28-1.5872 1.28-2.6112s-0.4608-1.9968-1.28-2.6112l-22.4768-20.7872v-24.832l23.1936 12.4416 8.3456 28.416c0.6656 1.9968 2.7648 3.1232 4.7616 2.6112 1.024-0.1536 1.8944-0.768 2.4576-1.6384 0.5632-0.8704 0.7168-1.9456 0.4096-2.9184l-6.1952-21.504 30.3616 16.2304c0.9216 0.5632 2.048 0.7168 3.1232 0.4608a3.84 3.84 0 0 0 2.4064-1.6896c0.5632-0.8192 0.768-1.8944 0.4608-2.8672a3.59424 3.59424 0 0 0-1.8944-2.1504l-30.6688-16.1792z m0 0" fill="#78CCFF" p-id="7701"></path></svg>