<?xml version="1.0" standalone="no"?><!DOCTYPE svg PUBLIC "-//W3C//DTD SVG 1.1//EN" "http://www.w3.org/Graphics/SVG/1.1/DTD/svg11.dtd"><svg t="1712804662000" class="icon" viewBox="0 0 1024 1024" version="1.1" xmlns="http://www.w3.org/2000/svg" p-id="18595" xmlns:xlink="http://www.w3.org/1999/xlink" width="200" height="200"><path d="M172.544 618.496c-41.984-35.328-66.048-87.552-66.048-142.336 0-99.328 77.824-180.224 175.616-186.88C315.904 195.584 406.016 128 512 128c125.44 0 228.352 93.696 241.664 214.528h1.536c89.6 0 162.304 72.192 162.304 160.768 0 45.568-18.944 86.528-49.664 115.712H172.544z m140.8 223.744h432.64c14.848 0 26.624 11.776 26.624 26.624s-11.776 26.624-26.624 26.624H313.344c-14.848 0-26.624-11.776-26.624-26.624s12.288-26.624 26.624-26.624z m-89.6-142.848h432.64c14.848-0.512 27.136 11.264 27.648 26.112s-11.264 27.136-26.112 27.648H223.744c-14.848-0.512-26.624-12.8-26.112-27.648 0.512-14.336 11.776-25.6 26.112-26.112z m540.16 0c15.36-0.512 27.648 11.264 28.16 26.112 0.512 14.848-11.264 27.136-26.112 27.648h-2.048c-14.848-0.512-26.624-12.8-26.112-27.648 0.512-14.336 11.776-25.6 26.112-26.112z m90.112 142.848c15.36 0 27.136 11.776 27.136 26.624s-11.776 26.624-26.624 26.624h-0.512c-14.848 0-26.624-11.776-26.624-26.624s11.776-26.624 26.624-26.624z" fill="#E0B877" p-id="18596"></path></svg>