<?xml version="1.0" standalone="no"?><!DOCTYPE svg PUBLIC "-//W3C//DTD SVG 1.1//EN" "http://www.w3.org/Graphics/SVG/1.1/DTD/svg11.dtd"><svg t="1712804606737" class="icon" viewBox="0 0 1024 1024" version="1.1" xmlns="http://www.w3.org/2000/svg" p-id="16045" xmlns:xlink="http://www.w3.org/1999/xlink" width="200" height="200"><path d="M467.9696 571.424c96.96 0 175.52 79.84 175.52 178.304S564.8976 928 467.9696 928a172.8 172.8 0 0 1-119.904-48.128 45.088 45.088 0 0 1-1.664-62.624 43.392 43.392 0 0 1 61.632-2.464 86.72 86.72 0 0 0 105.504 11.136 89.792 89.792 0 0 0 38.944-100.224 87.968 87.968 0 0 0-84.48-65.12H160.8336a44.224 44.224 0 0 1-43.84-44.576c0-24.64 19.616-44.576 43.84-44.576h307.104z m321.76 237.728c32.32 0 58.496 26.592 58.496 59.424 0 32.8-26.208 59.424-58.496 59.424-32.32 0-58.496-26.624-58.496-59.424 0.096-32.8 26.24-59.328 58.496-59.424z m190.08-89.152c24.256 0 43.904 19.968 43.904 44.576 0 24.64-19.648 44.576-43.872 44.576a44.224 44.224 0 0 1-43.872-44.576c0-24.64 19.648-44.576 43.84-44.576z m-190.08-148.576c32.32 0 58.496 26.624 58.496 59.424 0 32.832-26.208 59.424-58.496 59.424-32.32 0-58.496-26.592-58.496-59.424 0.096-32.768 26.24-59.328 58.496-59.424z m190.08-89.152c24.256 0 43.904 19.968 43.904 44.576 0 24.64-19.648 44.576-43.872 44.576a44.224 44.224 0 0 1-43.872-44.576c0-24.608 19.648-44.576 43.84-44.576zM497.2816 96c96.896 0 175.488 79.808 175.488 178.272 0 98.464-78.592 178.304-175.52 178.304H43.8736A44.224 44.224 0 0 1 0.0016 408c0-24.64 19.648-44.576 43.872-44.576h453.344c39.36 0 73.92-26.624 84.512-65.12a89.792 89.792 0 0 0-38.944-100.224 86.72 86.72 0 0 0-105.504 11.136 43.392 43.392 0 0 1-61.632-2.464 45.088 45.088 0 0 1 1.664-62.624A172.8 172.8 0 0 1 497.2176 96z m292.48 237.728c23.648 0 44.992 14.464 54.048 36.672a60.128 60.128 0 0 1-12.704 64.768c-16.736 16.992-41.888 22.08-63.744 12.864a59.456 59.456 0 0 1-36.096-54.88c0.096-32.8 26.24-59.328 58.496-59.424z m190.4-89.152c24.224 0 43.872 19.936 43.872 44.576 0 24.608-19.648 44.576-43.872 44.576a44.224 44.224 0 0 1-43.872-44.576c0-24.64 19.648-44.576 43.872-44.576zM789.7296 96c32.32 0 58.496 26.624 58.496 59.424 0 32.832-26.208 59.424-58.496 59.424-32.32 0-58.496-26.592-58.496-59.424 0.096-32.768 26.24-59.328 58.496-59.424z" fill="#A6977B" p-id="16046"></path></svg>