<?xml version="1.0" standalone="no"?><!DOCTYPE svg PUBLIC "-//W3C//DTD SVG 1.1//EN" "http://www.w3.org/Graphics/SVG/1.1/DTD/svg11.dtd"><svg t="1712804160853" class="icon" viewBox="0 0 1024 1024" version="1.1" xmlns="http://www.w3.org/2000/svg" p-id="15178" xmlns:xlink="http://www.w3.org/1999/xlink" width="200" height="200"><path d="M402.432 307.968m-286.5152 0a286.5152 286.5152 0 1 0 573.0304 0 286.5152 286.5152 0 1 0-573.0304 0Z" fill="#9FDFFF" p-id="15179"></path><path d="M731.648 498.5856m-253.0816 0a253.0816 253.0816 0 1 0 506.1632 0 253.0816 253.0816 0 1 0-506.1632 0Z" fill="#78CCFF" p-id="15180"></path><path d="M268.4416 522.4448m-229.2224 0a229.2224 229.2224 0 1 0 458.4448 0 229.2224 229.2224 0 1 0-458.4448 0Z" fill="#78CCFF" p-id="15181"></path><path d="M266.0864 522.4448h463.2064v229.2224H266.0864zM277.8624 940.7488c0 37.8368-27.2896 68.4544-60.928 68.4544s-60.928-30.6688-60.928-68.4544 60.928-112.7424 60.928-112.7424 60.928 74.9056 60.928 112.7424zM676.5568 940.7488c0 37.8368-27.2896 68.4544-60.928 68.4544s-60.928-30.6688-60.928-68.4544 60.928-112.7424 60.928-112.7424 60.928 74.9056 60.928 112.7424zM477.184 940.7488c0 37.8368-27.2896 68.4544-60.928 68.4544s-60.928-30.6688-60.928-68.4544 60.928-112.7424 60.928-112.7424 60.928 74.9056 60.928 112.7424zM875.9296 940.7488c0 37.8368-27.2896 68.4544-60.928 68.4544s-60.928-30.6688-60.928-68.4544 60.928-112.7424 60.928-112.7424 60.928 74.9056 60.928 112.7424z" fill="#78CCFF" p-id="15182"></path><path d="M277.8624 735.3856c0 37.8368-27.2896 68.4544-60.928 68.4544s-60.928-30.6688-60.928-68.4544 60.928-112.7424 60.928-112.7424 60.928 74.9056 60.928 112.7424zM676.5568 735.3856c0 37.8368-27.2896 68.4544-60.928 68.4544s-60.928-30.6688-60.928-68.4544 60.928-112.7424 60.928-112.7424 60.928 74.9056 60.928 112.7424zM477.184 735.3856c0 37.8368-27.2896 68.4544-60.928 68.4544s-60.928-30.6688-60.928-68.4544 60.928-112.7424 60.928-112.7424 60.928 74.9056 60.928 112.7424zM875.9296 735.3856c0 37.8368-27.2896 68.4544-60.928 68.4544s-60.928-30.6688-60.928-68.4544 60.928-112.7424 60.928-112.7424 60.928 74.9056 60.928 112.7424z" fill="#9FDFFF" p-id="15183"></path></svg>