<?xml version="1.0" standalone="no"?><!DOCTYPE svg PUBLIC "-//W3C//DTD SVG 1.1//EN" "http://www.w3.org/Graphics/SVG/1.1/DTD/svg11.dtd"><svg t="1712804504927" class="icon" viewBox="0 0 1024 1024" version="1.1" xmlns="http://www.w3.org/2000/svg" p-id="10143" xmlns:xlink="http://www.w3.org/1999/xlink" width="200" height="200"><path d="M167.936 597.333A189.163 189.163 0 0 1 282.475 269.27C315.733 174.55 405.93 106.667 512 106.667c125.184 0 228.267 94.592 241.707 216.192h1.493a162.133 162.133 0 0 1 116.907 274.474H167.915z m37.803 265.963H638.1a27.03 27.03 0 1 1 0 54.037H205.74a27.03 27.03 0 0 1 0-54.037zM313.835 755.2h432.362a27.03 27.03 0 0 1 0 54.037H313.813a27.03 27.03 0 1 1 0-54.037z m-90.07-108.096h432.363a27.03 27.03 0 0 1 0 54.059H223.765a27.03 27.03 0 0 1 0-54.059z m540.438 0a27.03 27.03 0 1 1 0 54.059 27.03 27.03 0 0 1 0-54.059zM854.272 755.2a27.03 27.03 0 1 1 0 54.037 27.03 27.03 0 0 1 0-54.037zM746.197 863.296a27.03 27.03 0 1 1 0 54.037 27.03 27.03 0 0 1 0-54.037z" fill="#d68c41" p-id="10144"></path></svg>