<?xml version="1.0" standalone="no"?><!DOCTYPE svg PUBLIC "-//W3C//DTD SVG 1.1//EN" "http://www.w3.org/Graphics/SVG/1.1/DTD/svg11.dtd"><svg t="1712804284510" class="icon" viewBox="0 0 1024 1024" version="1.1" xmlns="http://www.w3.org/2000/svg" p-id="2566" xmlns:xlink="http://www.w3.org/1999/xlink" width="200" height="200"><path d="M783.26 672.56H657.38c-96.91 0-176.21-79.29-176.21-176.21 0-96.91 79.29-176.21 176.21-176.21h125.88c96.91 0 176.21 79.29 176.21 176.21-0.01 96.91-79.3 176.21-176.21 176.21z" fill="#AFC9E2" p-id="2567"></path><path d="M776.91 348.82c3.05-15.19 4.65-30.9 4.65-46.98 0-131.24-106.39-237.62-237.62-237.62S306.31 170.61 306.31 301.84c0 10.99 0.76 21.79 2.21 32.38-21.22-9.06-44.58-14.08-69.12-14.08-97.32 0-176.21 78.89-176.21 176.21 0 1.31 0.02 2.62 0.05 3.93-0.03 1.3-0.05 2.59-0.05 3.9 0 92.61 75.77 168.37 168.37 168.37h480.62c92.61 0 168.37-75.77 168.37-168.37 0.02-69.71-42.92-129.87-103.64-155.36z" fill="#C0DCFA" p-id="2568"></path><path d="M410.75 918.26c-3.72 0-7.48-1.04-10.83-3.2-9.28-5.99-11.94-18.37-5.95-27.65l123.52-191.18c6-9.28 18.38-11.94 27.65-5.95 9.28 5.99 11.94 18.37 5.95 27.65L427.57 909.12c-3.83 5.92-10.25 9.14-16.82 9.14zM88.52 918.26c-3.72 0-7.48-1.04-10.83-3.2-9.28-5.99-11.94-18.37-5.95-27.65l123.52-191.18c5.99-9.28 18.37-11.94 27.65-5.95 9.28 5.99 11.94 18.37 5.95 27.65L105.34 909.12c-3.83 5.92-10.26 9.14-16.82 9.14zM732.99 918.26c-3.72 0-7.48-1.04-10.83-3.2-9.28-5.99-11.94-18.37-5.95-27.65l123.52-191.18c6-9.28 18.38-11.94 27.65-5.95 9.28 5.99 11.94 18.37 5.95 27.65L749.8 909.12c-3.82 5.92-10.25 9.14-16.81 9.14zM571.87 918.26c-3.72 0-7.48-1.04-10.83-3.2-9.28-5.99-11.94-18.37-5.95-27.65l123.52-191.18c6-9.28 18.38-11.94 27.65-5.95 9.28 5.99 11.94 18.37 5.95 27.65L588.69 909.12c-3.83 5.92-10.26 9.14-16.82 9.14zM249.64 918.26c-3.72 0-7.48-1.04-10.83-3.2-9.28-5.99-11.94-18.37-5.95-27.65l123.52-191.18c6-9.28 18.38-11.94 27.65-5.95 9.28 5.99 11.94 18.37 5.95 27.65L266.45 909.12c-3.82 5.92-10.25 9.14-16.81 9.14z" fill="#43A3FB" p-id="2569"></path></svg>