<?xml version="1.0" standalone="no"?><!DOCTYPE svg PUBLIC "-//W3C//DTD SVG 1.1//EN" "http://www.w3.org/Graphics/SVG/1.1/DTD/svg11.dtd"><svg t="1712803882399" class="icon" viewBox="0 0 1024 1024" version="1.1" xmlns="http://www.w3.org/2000/svg" p-id="8980" xmlns:xlink="http://www.w3.org/1999/xlink" width="200" height="200"><path d="M402.432 307.968m-286.5152 0a286.5152 286.5152 0 1 0 573.0304 0 286.5152 286.5152 0 1 0-573.0304 0Z" fill="#9FDFFF" p-id="8981"></path><path d="M731.648 498.5856m-253.0816 0a253.0816 253.0816 0 1 0 506.1632 0 253.0816 253.0816 0 1 0-506.1632 0Z" fill="#78CCFF" p-id="8982"></path><path d="M268.4416 522.4448m-229.2224 0a229.2224 229.2224 0 1 0 458.4448 0 229.2224 229.2224 0 1 0-458.4448 0Z" fill="#78CCFF" p-id="8983"></path><path d="M266.0864 522.4448h463.2064v229.2224H266.0864z" fill="#78CCFF" p-id="8984"></path><path d="M294.2464 776.2944c0 42.0864-30.3616 76.1344-67.7888 76.1344S158.72 818.3808 158.72 776.2944c0-42.0864 67.7888-125.44 67.7888-125.44s67.7376 83.4048 67.7376 125.44zM828.2112 776.2944c0 42.0864-30.3616 76.1344-67.7888 76.1344-37.4272 0-67.7888-34.0992-67.7888-76.1344 0-42.0864 67.7888-125.44 67.7888-125.44s67.7888 83.4048 67.7888 125.44z" fill="#9FDFFF" p-id="8985"></path><path d="M565.4528 926.4128c0 42.0864-30.3616 76.1344-67.7888 76.1344-37.4272 0-67.7888-34.0992-67.7888-76.1344s67.7888-125.44 67.7888-125.44 67.7888 83.3536 67.7888 125.44z" fill="#78CCFF" p-id="8986"></path></svg>