<?xml version="1.0" standalone="no"?><!DOCTYPE svg PUBLIC "-//W3C//DTD SVG 1.1//EN" "http://www.w3.org/Graphics/SVG/1.1/DTD/svg11.dtd"><svg t="1712804326880" class="icon" viewBox="0 0 1024 1024" version="1.1" xmlns="http://www.w3.org/2000/svg" p-id="4885" xmlns:xlink="http://www.w3.org/1999/xlink" width="200" height="200"><path d="M402.432 307.968m-286.5152 0a286.5152 286.5152 0 1 0 573.0304 0 286.5152 286.5152 0 1 0-573.0304 0Z" fill="#9FDFFF" p-id="4886"></path><path d="M731.648 498.5856m-253.0816 0a253.0816 253.0816 0 1 0 506.1632 0 253.0816 253.0816 0 1 0-506.1632 0Z" fill="#78CCFF" p-id="4887"></path><path d="M268.4416 522.4448m-229.2224 0a229.2224 229.2224 0 1 0 458.4448 0 229.2224 229.2224 0 1 0-458.4448 0Z" fill="#78CCFF" p-id="4888"></path><path d="M266.0864 522.4448h463.2064v229.2224H266.0864z" fill="#78CCFF" p-id="4889"></path><path d="M550.0416 912.4352l29.9008-7.3728c1.3312-0.2048 2.4576-0.9728 3.1744-2.0992 0.7168-1.1264 0.9216-2.5088 0.512-3.7376-0.8704-2.56-3.5328-3.9936-6.144-3.3792l-39.7312 10.1888-29.9008-16.0256 33.8944-18.176 39.7312 9.8816h1.2288c2.4064 0.0512 4.4544-1.6384 4.9152-3.9936a4.6336 4.6336 0 0 0-3.6864-5.2224l-29.9008-7.3728 35.1232-18.7904c1.1264-0.5632 1.9968-1.5872 2.304-2.816 0.3584-1.2288 0.1536-2.56-0.4608-3.6352-1.4336-2.2528-4.4032-3.072-6.7584-1.8432l-35.1232 19.0976 7.9872-27.7504c0.3584-1.28 0.1536-2.6624-0.512-3.7376a4.56704 4.56704 0 0 0-3.1744-2.0992c-2.6112-0.6144-5.2736 0.8192-6.144 3.3792l-10.8032 36.9664-33.8944 18.176v-36.352l28.9792-26.7776c1.024-0.8192 1.6384-2.048 1.6384-3.3792s-0.6144-2.56-1.6384-3.3792c-1.9968-1.8432-5.0688-1.8432-7.0656 0l-21.8624 20.3264v-37.5808c-0.5632-2.3552-2.6624-3.9936-5.0688-3.9936s-4.5056 1.6384-5.0688 3.9936v37.5808l-21.8624-20.3264c-1.9968-1.8432-5.0688-1.8432-7.0656 0-1.024 0.8192-1.6384 2.048-1.6384 3.3792s0.6144 2.56 1.6384 3.3792l28.9792 26.7776v36.0448l-33.8944-18.176-10.496-36.352c-0.8704-2.56-3.5328-3.9936-6.144-3.3792-1.3312 0.2048-2.4576 0.9728-3.1744 2.0992-0.7168 1.1264-0.9216 2.5088-0.512 3.7376l7.9872 27.7504-35.1232-19.0976c-2.4064-1.2288-5.3248-0.4096-6.7584 1.8432-0.6656 1.0752-0.8192 2.4064-0.4608 3.6352s1.1776 2.2528 2.304 2.816l35.1232 18.7904-30.208 7.0656c-1.3312 0.2048-2.4576 0.9728-3.1744 2.0992-0.7168 1.1264-0.9216 2.5088-0.512 3.7376 0.8704 2.56 3.5328 3.9936 6.144 3.3792l39.7312-9.8816 33.8944 18.176-29.9008 16.0256-39.424-9.8816c-2.6112-0.6144-5.2736 0.8192-6.144 3.3792-0.3584 1.2288-0.2048 2.56 0.4096 3.6864 0.6656 1.1264 1.7408 1.8944 2.9696 2.2016l29.9008 7.3728-39.1168 20.6336c-1.9456 0.9728-2.9696 3.1232-2.4576 5.2224 0.7168 2.0992 2.7136 3.4816 4.9152 3.3792l2.4576-0.6144 39.1168-20.9408-7.9872 27.7504c-0.3584 1.28-0.1536 2.6624 0.512 3.7376 0.7168 1.1264 1.8432 1.8944 3.1744 2.0992 2.6112 0.6144 5.2736-0.8192 6.144-3.3792l10.8032-36.6592 29.9008-16.0256v32.0512l-28.9792 26.7776c-1.024 0.8192-1.6384 2.048-1.6384 3.3792s0.6144 2.56 1.6384 3.3792c1.9968 1.8432 5.0688 1.8432 7.0656 0l21.8624-20.3264v41.5744c0.5632 2.3552 2.6624 3.9936 5.0688 3.9936s4.5056-1.6384 5.0688-3.9936v-41.5744l21.8624 20.3264c1.9968 1.8432 5.0688 1.8432 7.0656 0 1.024-0.8192 1.6384-2.048 1.6384-3.3792s-0.6144-2.56-1.6384-3.3792l-28.9792-26.7776v-32.0512l29.9008 16.0256 10.8032 36.6592c0.8704 2.56 3.5328 3.9936 6.144 3.3792 1.3312-0.2048 2.4576-0.9728 3.1744-2.0992 0.7168-1.1264 0.9216-2.5088 0.512-3.7376l-7.9872-27.7504 39.1168 20.9408c1.2288 0.7168 2.6624 0.9216 3.9936 0.6144 1.28-0.3072 2.3552-1.0752 3.072-2.1504 0.768-1.0752 0.9728-2.4576 0.6144-3.6864a4.54144 4.54144 0 0 0-2.4576-2.7648l-39.424-20.992z m0 0" fill="#78CCFF" p-id="4890"></path><path d="M287.232 813.4144l29.9008-7.3728c1.3312-0.2048 2.4576-0.9728 3.1744-2.0992 0.7168-1.1264 0.9216-2.5088 0.512-3.7376-0.8704-2.56-3.5328-3.9936-6.144-3.3792l-39.7312 10.1888-29.9008-16.0256 33.8944-18.176 39.7312 9.8816h1.2288c2.4064 0.0512 4.4544-1.6384 4.9152-3.9936a4.6336 4.6336 0 0 0-3.6864-5.2224l-29.9008-7.3728 35.1232-18.7904c1.1264-0.5632 1.9968-1.5872 2.304-2.816 0.3584-1.2288 0.1536-2.56-0.4608-3.6352-1.4336-2.2528-4.4032-3.072-6.7584-1.8432l-35.1232 19.0976 7.9872-27.7504c0.3584-1.28 0.1536-2.6624-0.512-3.7376a4.56704 4.56704 0 0 0-3.1744-2.0992c-2.6112-0.6144-5.2736 0.8192-6.144 3.3792l-10.8032 36.9664-33.8944 18.176v-36.352l28.9792-26.7776c1.024-0.8192 1.6384-2.048 1.6384-3.3792s-0.6144-2.56-1.6384-3.3792c-1.9968-1.8432-5.0688-1.8432-7.0656 0l-21.8624 20.3264v-37.5808c-0.5632-2.3552-2.6624-3.9936-5.0688-3.9936s-4.5056 1.6384-5.0688 3.9936v37.5808l-21.8624-20.3264c-1.9968-1.8432-5.0688-1.8432-7.0656 0-1.024 0.8192-1.6384 2.048-1.6384 3.3792s0.6144 2.56 1.6384 3.3792l28.9792 26.7776v36.0448l-33.8944-18.176-10.496-36.352c-0.8704-2.56-3.5328-3.9936-6.144-3.3792-1.3312 0.2048-2.4576 0.9728-3.1744 2.0992-0.7168 1.1264-0.9216 2.5088-0.512 3.7376l7.9872 27.7504-35.1232-19.0976c-2.4064-1.2288-5.3248-0.4096-6.7584 1.8432-0.6656 1.0752-0.8192 2.4064-0.4608 3.6352s1.1776 2.2528 2.304 2.816l35.1232 18.7904-30.208 7.0656c-1.3312 0.2048-2.4576 0.9728-3.1744 2.0992-0.7168 1.1264-0.9216 2.5088-0.512 3.7376 0.8704 2.56 3.5328 3.9936 6.144 3.3792l39.7312-9.8816 33.8944 18.176-29.9008 16.0256-39.424-9.8816c-2.6112-0.6144-5.2736 0.8192-6.144 3.3792-0.3584 1.2288-0.2048 2.56 0.4096 3.6864 0.6656 1.1264 1.7408 1.8944 2.9696 2.2016l29.9008 7.3728-39.1168 20.6336c-1.9456 0.9728-2.9696 3.1232-2.4576 5.2224 0.7168 2.0992 2.7136 3.4816 4.9152 3.3792l2.4576-0.6144 39.1168-20.9408-7.9872 27.7504c-0.3584 1.28-0.1536 2.6624 0.512 3.7376 0.7168 1.1264 1.8432 1.8944 3.1744 2.0992 2.6112 0.6144 5.2736-0.8192 6.144-3.3792l10.8032-36.6592 29.9008-16.0256v32.0512l-28.9792 26.7776c-1.024 0.8192-1.6384 2.048-1.6384 3.3792s0.6144 2.56 1.6384 3.3792c1.9968 1.8432 5.0688 1.8432 7.0656 0l21.8624-20.3264v41.5744c0.5632 2.3552 2.6624 3.9936 5.0688 3.9936s4.5056-1.6384 5.0688-3.9936v-41.5744l21.8624 20.3264c1.9968 1.8432 5.0688 1.8432 7.0656 0 1.024-0.8192 1.6384-2.048 1.6384-3.3792s-0.6144-2.56-1.6384-3.3792l-28.9792-26.7776v-32.0512l29.9008 16.0256 10.8032 36.6592c0.8704 2.56 3.5328 3.9936 6.144 3.3792 1.3312-0.2048 2.4576-0.9728 3.1744-2.0992 0.7168-1.1264 0.9216-2.5088 0.512-3.7376l-7.9872-27.7504 39.1168 20.9408c1.2288 0.7168 2.6624 0.9216 3.9936 0.6144 1.28-0.3072 2.3552-1.0752 3.072-2.1504 0.768-1.0752 0.9728-2.4576 0.6144-3.6864a4.54144 4.54144 0 0 0-2.4576-2.7648l-39.424-20.992z m0 0" fill="#9FDFFF" p-id="4891"></path><path d="M812.8 813.4144l29.9008-7.3728c1.3312-0.2048 2.4576-0.9728 3.1744-2.0992 0.7168-1.1264 0.9216-2.5088 0.512-3.7376-0.8704-2.56-3.5328-3.9936-6.144-3.3792l-39.7312 10.1888-29.9008-16.0256 33.8944-18.176 39.7312 9.8816h1.2288c2.4064 0.0512 4.4544-1.6384 4.9152-3.9936a4.6336 4.6336 0 0 0-3.6864-5.2224l-29.9008-7.3728 35.1232-18.7904c1.1264-0.5632 1.9968-1.5872 2.304-2.816 0.3584-1.2288 0.1536-2.56-0.4608-3.6352-1.4336-2.2528-4.4032-3.072-6.7584-1.8432l-35.1232 19.0976 7.9872-27.7504c0.3584-1.28 0.1536-2.6624-0.512-3.7376a4.56704 4.56704 0 0 0-3.1744-2.0992c-2.6112-0.6144-5.2736 0.8192-6.144 3.3792l-10.8032 36.9664-33.8944 18.176v-36.352l28.9792-26.7776c1.024-0.8192 1.6384-2.048 1.6384-3.3792s-0.6144-2.56-1.6384-3.3792c-1.9968-1.8432-5.0688-1.8432-7.0656 0l-21.8624 20.3264v-37.5808c-0.5632-2.3552-2.6624-3.9936-5.0688-3.9936s-4.5056 1.6384-5.0688 3.9936v37.5808l-21.8624-20.3264c-1.9968-1.8432-5.0688-1.8432-7.0656 0-1.024 0.8192-1.6384 2.048-1.6384 3.3792s0.6144 2.56 1.6384 3.3792l28.9792 26.7776v36.0448l-33.8944-18.176-10.496-36.352c-0.8704-2.56-3.5328-3.9936-6.144-3.3792-1.3312 0.2048-2.4576 0.9728-3.1744 2.0992-0.7168 1.1264-0.9216 2.5088-0.512 3.7376l7.9872 27.7504-35.1232-19.0976c-2.4064-1.2288-5.3248-0.4096-6.7584 1.8432-0.6656 1.0752-0.8192 2.4064-0.4608 3.6352s1.1776 2.2528 2.304 2.816l35.1232 18.7904-30.208 7.0656c-1.3312 0.2048-2.4576 0.9728-3.1744 2.0992-0.7168 1.1264-0.9216 2.5088-0.512 3.7376 0.8704 2.56 3.5328 3.9936 6.144 3.3792l39.7312-9.8816 33.8944 18.176-29.9008 16.0256-39.424-9.8816c-2.6112-0.6144-5.2736 0.8192-6.144 3.3792-0.3584 1.2288-0.2048 2.56 0.4096 3.6864 0.6656 1.1264 1.7408 1.8944 2.9696 2.2016l29.9008 7.3728-39.1168 20.6336c-1.9456 0.9728-2.9696 3.1232-2.4576 5.2224 0.7168 2.0992 2.7136 3.4816 4.9152 3.3792l2.4576-0.6144 39.1168-20.9408-7.9872 27.7504c-0.3584 1.28-0.1536 2.6624 0.512 3.7376 0.7168 1.1264 1.8432 1.8944 3.1744 2.0992 2.6112 0.6144 5.2736-0.8192 6.144-3.3792l10.8032-36.6592 29.9008-16.0256v32.0512l-28.9792 26.7776c-1.024 0.8192-1.6384 2.048-1.6384 3.3792s0.6144 2.56 1.6384 3.3792c1.9968 1.8432 5.0688 1.8432 7.0656 0l21.8624-20.3264v41.5744c0.5632 2.3552 2.6624 3.9936 5.0688 3.9936s4.5056-1.6384 5.0688-3.9936v-41.5744l21.8624 20.3264c1.9968 1.8432 5.0688 1.8432 7.0656 0 1.024-0.8192 1.6384-2.048 1.6384-3.3792s-0.6144-2.56-1.6384-3.3792l-28.9792-26.7776v-32.0512l29.9008 16.0256 10.8032 36.6592c0.8704 2.56 3.5328 3.9936 6.144 3.3792 1.3312-0.2048 2.4576-0.9728 3.1744-2.0992 0.7168-1.1264 0.9216-2.5088 0.512-3.7376l-7.9872-27.7504 39.1168 20.9408c1.2288 0.7168 2.6624 0.9216 3.9936 0.6144 1.28-0.3072 2.3552-1.0752 3.072-2.1504 0.768-1.0752 0.9728-2.4576 0.6144-3.6864a4.54144 4.54144 0 0 0-2.4576-2.7648l-39.424-20.992z m0 0" fill="#9FDFFF" p-id="4892"></path></svg>