<?xml version="1.0" standalone="no"?><!DOCTYPE svg PUBLIC "-//W3C//DTD SVG 1.1//EN" "http://www.w3.org/Graphics/SVG/1.1/DTD/svg11.dtd"><svg t="1712803979853" class="icon" viewBox="0 0 1024 1024" version="1.1" xmlns="http://www.w3.org/2000/svg" p-id="1815" xmlns:xlink="http://www.w3.org/1999/xlink" width="200" height="200"><path d="M366.1 701.9c0 23.2-18.8 42.1-42.1 42.1-23.2 0-42.1-18.8-42.1-42.1s42.1-73.4 42.1-73.4 42.1 50.1 42.1 73.4zM367.5 874.2c0 23.2-18.8 42.1-42.1 42.1-23.2 0-42.1-18.8-42.1-42.1 0-23.2 42.1-73.4 42.1-73.4s42.1 50.2 42.1 73.4z" fill="#6695FF" p-id="1816"></path><path d="M703.1 243c-19.3-77.3-88.9-134.8-172.2-135.3-83.1-0.5-153.1 56-173.5 132.8-1.7-0.1-3.5-0.3-5.2-0.3-98.8-0.5-179.2 79.1-179.8 177.8-0.5 98.1 78.1 178.1 176 179.6v0.1h317v-0.4c2.2 0.1 4.3 0.4 6.5 0.4 98.7 0.5 179.2-79.1 179.7-177.8 0.5-88.7-63.8-162.5-148.5-176.9z" fill="#94B0FF" p-id="1817"></path><path d="M611 672.8l-50.4-18.3c-3.6-1.3-5.4-5.3-4.1-8.9l60-164.8c2.6-7.1-6.4-12.6-11.5-7.1L446.2 640.9c-3.4 3.6-2 9.6 2.7 11.3l50.4 18.3c3.6 1.3 5.4 5.3 4.1 8.9l-60 164.8c-2.6 7.1 6.4 12.6 11.5 7.1l158.8-167.2c3.4-3.6 2-9.6-2.7-11.3z" fill="#FFE02C" p-id="1818"></path><path d="M729.5 701.3m-42.6 0a42.6 42.6 0 1 0 85.2 0 42.6 42.6 0 1 0-85.2 0Z" fill="#6695FF" p-id="1819"></path><path d="M729.5 873.7m-42.6 0a42.6 42.6 0 1 0 85.2 0 42.6 42.6 0 1 0-85.2 0Z" fill="#6695FF" p-id="1820"></path></svg>