<?xml version="1.0" standalone="no"?><!DOCTYPE svg PUBLIC "-//W3C//DTD SVG 1.1//EN" "http://www.w3.org/Graphics/SVG/1.1/DTD/svg11.dtd"><svg t="1712804756789" class="icon" viewBox="0 0 1024 1024" version="1.1" xmlns="http://www.w3.org/2000/svg" p-id="1650" xmlns:xlink="http://www.w3.org/1999/xlink" width="200" height="200"><path d="M512 1024C229.218462 1024 0 794.781538 0 512S229.218462 0 512 0s512 229.218462 512 512-229.218462 512-512 512z m12.642462-535.171282c-94.181744-92.606359-168.802462-139.565949-227.761231-139.565949-90.807795 0-164.548923 72.782769-164.548923 162.737231 0 89.954462 73.741128 162.737231 164.548923 162.737231 58.958769 0 133.579487-46.95959 227.761231-139.552821 85.687795 92.461949 156.356923 139.552821 215.604512 139.552821 90.807795 0 164.548923-72.782769 164.548923-162.737231 0-89.954462-73.741128-162.737231-164.548923-162.737231-59.24759 0-129.916718 47.090872-215.604512 139.552821z m-227.761231-89.153641c39.515897 0 100.365128 37.060923 179.226256 112.324923-78.861128 75.264-139.697231 112.324923-179.226256 112.324923-63.107282 0-114.136615-50.359795-114.136616-112.324923 0-61.965128 51.029333-112.324923 114.136616-112.324923z m443.365743 224.649846c-39.227077 0-96.321641-36.942769-168.211692-112.324923 71.890051-75.382154 128.984615-112.324923 168.211692-112.324923 63.107282 0 114.136615 50.359795 114.136616 112.324923 0 61.965128-51.029333 112.324923-114.136616 112.324923zM208.213333 299.454359c13.981538 0 25.337436-11.198359 25.337436-25.009231S222.181744 249.435897 208.213333 249.435897c-13.994667 0-25.337436 11.198359-25.337436 25.009231s11.342769 25.009231 25.337436 25.009231z m0 475.109744c13.981538 0 25.337436-11.198359 25.337436-25.009231s-11.355897-25.009231-25.337436-25.009231c-13.994667 0-25.337436 11.198359-25.337436 25.009231S194.218667 774.564103 208.213333 774.564103z m316.678564-475.109744c13.994667 0 25.337436-11.198359 25.337436-25.009231S538.886564 249.435897 524.891897 249.435897c-13.981538 0-25.337436 11.198359-25.337435 25.009231s11.355897 25.009231 25.337435 25.009231z m0 475.109744c13.994667 0 25.337436-11.198359 25.337436-25.009231s-11.342769-25.009231-25.337436-25.009231c-13.981538 0-25.337436 11.198359-25.337435 25.009231S510.923487 774.564103 524.905026 774.564103z m316.691693-475.109744c13.994667 0 25.337436-11.198359 25.337436-25.009231S855.578256 249.435897 841.58359 249.435897c-13.994667 0-25.337436 11.198359-25.337436 25.009231s11.342769 25.009231 25.337436 25.009231z m0 475.109744c13.994667 0 25.337436-11.198359 25.337436-25.009231s-11.342769-25.009231-25.337436-25.009231c-13.994667 0-25.337436 11.198359-25.337436 25.009231S827.602051 774.564103 841.58359 774.564103z" fill="#5FB5EC" p-id="1651"></path></svg>