<?xml version="1.0" standalone="no"?><!DOCTYPE svg PUBLIC "-//W3C//DTD SVG 1.1//EN" "http://www.w3.org/Graphics/SVG/1.1/DTD/svg11.dtd"><svg t="1709732066895" class="icon" viewBox="0 0 1024 1024" version="1.1" xmlns="http://www.w3.org/2000/svg" p-id="8517" xmlns:xlink="http://www.w3.org/1999/xlink" width="200" height="200"><path d="M512 512m-512 0a512 512 0 1 0 1024 0 512 512 0 1 0-1024 0Z" fill="#1B73F1" p-id="8518"></path><path d="M572 512.6v-0.1z" p-id="8519"></path><path d="M549.6 730.5V591.6l72.3 58.2c1.8-1.9 3.7-3.8 5.5-5.6 16.9-16.9 34.4-31.9 52.1-45.1L572 512.5l147.7-119c16.3-13.2 18.8-37 5.6-53.3-1.7-2.1-3.6-4-5.6-5.6L535.4 186.1c-16.3-13.1-40.1-10.5-53.2 5.7-5.4 6.7-8.3 15.1-8.4 23.7v217.9l-122.7-98.9c-16.3-13.1-40.1-10.5-53.2 5.7-13.1 16.3-10.5 40.1 5.7 53.2l147.7 119-147.7 119c-16.1 13.3-18.3 37.2-5 53.3 13.1 15.8 36.3 18.3 52.5 5.6l122.7-98.9v217.9c0 20.9 16.9 37.8 37.8 37.8 2.6 0 5.2-0.3 7.8-0.8 1.5-38.7 19-85.6 50-132.1l-19.8 16.3z m0-435.9l86.2 69.4-86.2 69.4V294.6z" fill="#FFFFFF" p-id="8520"></path><path d="M719.7 690.5c16.3-13.2 18.8-37 5.6-53.3-1.7-2.1-3.5-3.9-5.6-5.6l-40.3-32.5c-17.7 13.2-35.2 28.3-52.1 45.1-1.9 1.9-3.7 3.7-5.5 5.6l13.9 11.2-66.2 53.3c-31 46.6-48.6 93.4-50 132.1 5.8-1.2 11.3-3.8 15.9-7.5l184.3-148.4z" fill="#FFFFFF" opacity=".4" p-id="8521"></path></svg>