<?xml version="1.0" encoding="UTF-8"?>
<svg viewBox="0 0 891 309.85291" xmlns="http://www.w3.org/2000/svg">
 <defs>
  <filter id="a">
   <feGaussianBlur stdDeviation="1.38802"/>
  </filter>
 </defs>
 <g transform="translate(-132.36 -133.15)">
  <path d="m159.46 133.65h836.79a26.606 26.606 0 0 1 26.606 26.606v255.64a26.606 26.606 0 0 1 -26.606 26.606h-836.79a26.606 26.606 0 0 1 -26.606 -26.606v-255.64a26.606 26.606 0 0 1 26.606 -26.606" fill="#fffcd0" stroke="#0b280b"/>
  <g transform="translate(-2.8572 -1.4949)" filter="url(#a)" font-family="Trebuchet MS" font-size="16">
   <path d="m169 153.65h29.143a6.8571 6.8571 0 0 1 6.8571 6.8571v29.143a6.8571 6.8571 0 0 1 -6.8571 6.8571h-29.143a6.8571 6.8571 0 0 1 -6.8571 -6.8571v-29.143a6.8571 6.8571 0 0 1 6.8571 -6.8571"/>
   <path d="m221 153.65h29.143a6.8571 6.8571 0 0 1 6.8571 6.8571v29.143a6.8571 6.8571 0 0 1 -6.8571 6.8571h-29.143a6.8571 6.8571 0 0 1 -6.8571 -6.8571v-29.143a6.8571 6.8571 0 0 1 6.8571 -6.8571"/>
   <path d="m277 153.65h29.143a6.8571 6.8571 0 0 1 6.8571 6.8571v29.143a6.8571 6.8571 0 0 1 -6.8571 6.8571h-29.143a6.8571 6.8571 0 0 1 -6.8571 -6.8571v-29.143a6.8571 6.8571 0 0 1 6.8571 -6.8571"/>
   <path d="m331 153.65h29.143a6.8571 6.8571 0 0 1 6.8571 6.8571v29.143a6.8571 6.8571 0 0 1 -6.8571 6.8571h-29.143a6.8571 6.8571 0 0 1 -6.8571 -6.8571v-29.143a6.8571 6.8571 0 0 1 6.8571 -6.8571"/>
   <path d="m389 153.65h29.143a6.8571 6.8571 0 0 1 6.8571 6.8571v29.143a6.8571 6.8571 0 0 1 -6.8571 6.8571h-29.143a6.8571 6.8571 0 0 1 -6.8571 -6.8571v-29.143a6.8571 6.8571 0 0 1 6.8571 -6.8571"/>
   <path d="m441 153.65h29.143a6.8571 6.8571 0 0 1 6.8571 6.8571v29.143a6.8571 6.8571 0 0 1 -6.8571 6.8571h-29.143a6.8571 6.8571 0 0 1 -6.8571 -6.8571v-29.143a6.8571 6.8571 0 0 1 6.8571 -6.8571"/>
   <path d="m501 153.65h29.143a6.8571 6.8571 0 0 1 6.8571 6.8571v29.143a6.8571 6.8571 0 0 1 -6.8571 6.8571h-29.143a6.8571 6.8571 0 0 1 -6.8571 -6.8571v-29.143a6.8571 6.8571 0 0 1 6.8571 -6.8571"/>
   <path d="m557 153.65h29.143a6.8571 6.8571 0 0 1 6.8571 6.8571v29.143a6.8571 6.8571 0 0 1 -6.8571 6.8571h-29.143a6.8571 6.8571 0 0 1 -6.8571 -6.8571v-29.143a6.8571 6.8571 0 0 1 6.8571 -6.8571"/>
   <path d="m617 153.65h29.143a6.8571 6.8571 0 0 1 6.8571 6.8571v29.143a6.8571 6.8571 0 0 1 -6.8571 6.8571h-29.143a6.8571 6.8571 0 0 1 -6.8571 -6.8571v-29.143a6.8571 6.8571 0 0 1 6.8571 -6.8571"/>
   <path d="m673 153.65h29.143a6.8571 6.8571 0 0 1 6.8571 6.8571v29.143a6.8571 6.8571 0 0 1 -6.8571 6.8571h-29.143a6.8571 6.8571 0 0 1 -6.8571 -6.8571v-29.143a6.8571 6.8571 0 0 1 6.8571 -6.8571"/>
   <path d="m733 153.65h29.143a6.8571 6.8571 0 0 1 6.8571 6.8571v29.143a6.8571 6.8571 0 0 1 -6.8571 6.8571h-29.143a6.8571 6.8571 0 0 1 -6.8571 -6.8571v-29.143a6.8571 6.8571 0 0 1 6.8571 -6.8571"/>
   <path d="m789 153.65h29.143a6.8571 6.8571 0 0 1 6.8571 6.8571v29.143a6.8571 6.8571 0 0 1 -6.8571 6.8571h-29.143a6.8571 6.8571 0 0 1 -6.8571 -6.8571v-29.143a6.8571 6.8571 0 0 1 6.8571 -6.8571"/>
   <path d="m849 153.65h29.143a6.8571 6.8571 0 0 1 6.8571 6.8571v29.143a6.8571 6.8571 0 0 1 -6.8571 6.8571h-29.143a6.8571 6.8571 0 0 1 -6.8571 -6.8571v-29.143a6.8571 6.8571 0 0 1 6.8571 -6.8571"/>
   <path d="m907 153.65h84.143a6.8571 6.8571 0 0 1 6.8571 6.8571v29.143a6.8571 6.8571 0 0 1 -6.8571 6.8571h-84.143a6.8571 6.8571 0 0 1 -6.8571 -6.8571v-29.143a6.8571 6.8571 0 0 1 6.8571 -6.8571"/>
   <path d="m166.29 211.65h59.143a6.8571 6.8571 0 0 1 6.8571 6.8571v29.143a6.8571 6.8571 0 0 1 -6.8571 6.8571h-59.143a6.8571 6.8571 0 0 1 -6.8571 -6.8571v-29.143a6.8571 6.8571 0 0 1 6.8571 -6.8571"/>
   <path d="m249 211.65h29.143a6.8571 6.8571 0 0 1 6.8571 6.8571v29.143a6.8571 6.8571 0 0 1 -6.8571 6.8571h-29.143a6.8571 6.8571 0 0 1 -6.8571 -6.8571v-29.143a6.8571 6.8571 0 0 1 6.8571 -6.8571"/>
   <path d="m305 211.65h29.143a6.8571 6.8571 0 0 1 6.8571 6.8571v29.143a6.8571 6.8571 0 0 1 -6.8571 6.8571h-29.143a6.8571 6.8571 0 0 1 -6.8571 -6.8571v-29.143a6.8571 6.8571 0 0 1 6.8571 -6.8571"/>
   <path d="m359 211.65h29.143a6.8571 6.8571 0 0 1 6.8571 6.8571v29.143a6.8571 6.8571 0 0 1 -6.8571 6.8571h-29.143a6.8571 6.8571 0 0 1 -6.8571 -6.8571v-29.143a6.8571 6.8571 0 0 1 6.8571 -6.8571"/>
   <path d="m417 211.65h29.143a6.8571 6.8571 0 0 1 6.8571 6.8571v29.143a6.8571 6.8571 0 0 1 -6.8571 6.8571h-29.143a6.8571 6.8571 0 0 1 -6.8571 -6.8571v-29.143a6.8571 6.8571 0 0 1 6.8571 -6.8571"/>
   <path d="m469 211.65h29.143a6.8571 6.8571 0 0 1 6.8571 6.8571v29.143a6.8571 6.8571 0 0 1 -6.8571 6.8571h-29.143a6.8571 6.8571 0 0 1 -6.8571 -6.8571v-29.143a6.8571 6.8571 0 0 1 6.8571 -6.8571"/>
   <path d="m529 211.65h29.143a6.8571 6.8571 0 0 1 6.8571 6.8571v29.143a6.8571 6.8571 0 0 1 -6.8571 6.8571h-29.143a6.8571 6.8571 0 0 1 -6.8571 -6.8571v-29.143a6.8571 6.8571 0 0 1 6.8571 -6.8571"/>
   <path d="m585 211.65h29.143a6.8571 6.8571 0 0 1 6.8571 6.8571v29.143a6.8571 6.8571 0 0 1 -6.8571 6.8571h-29.143a6.8571 6.8571 0 0 1 -6.8571 -6.8571v-29.143a6.8571 6.8571 0 0 1 6.8571 -6.8571"/>
   <path d="m645 211.65h29.143a6.8571 6.8571 0 0 1 6.8571 6.8571v29.143a6.8571 6.8571 0 0 1 -6.8571 6.8571h-29.143a6.8571 6.8571 0 0 1 -6.8571 -6.8571v-29.143a6.8571 6.8571 0 0 1 6.8571 -6.8571"/>
   <path d="m701 211.65h29.143a6.8571 6.8571 0 0 1 6.8571 6.8571v29.143a6.8571 6.8571 0 0 1 -6.8571 6.8571h-29.143a6.8571 6.8571 0 0 1 -6.8571 -6.8571v-29.143a6.8571 6.8571 0 0 1 6.8571 -6.8571"/>
   <path d="m761 211.65h29.143a6.8571 6.8571 0 0 1 6.8571 6.8571v29.143a6.8571 6.8571 0 0 1 -6.8571 6.8571h-29.143a6.8571 6.8571 0 0 1 -6.8571 -6.8571v-29.143a6.8571 6.8571 0 0 1 6.8571 -6.8571"/>
   <path d="m817 211.65h29.143a6.8571 6.8571 0 0 1 6.8571 6.8571v29.143a6.8571 6.8571 0 0 1 -6.8571 6.8571h-29.143a6.8571 6.8571 0 0 1 -6.8571 -6.8571v-29.143a6.8571 6.8571 0 0 1 6.8571 -6.8571"/>
   <path d="m877 211.65h29.143a6.8571 6.8571 0 0 1 6.8571 6.8571v29.143a6.8571 6.8571 0 0 1 -6.8571 6.8571h-29.143a6.8571 6.8571 0 0 1 -6.8571 -6.8571v-29.143a6.8571 6.8571 0 0 1 6.8571 -6.8571"/>
   <path d="m935.71 211.65h54.857a6.8571 6.8571 0 0 1 6.8571 6.8571v29.143a6.8571 6.8571 0 0 1 -6.8571 6.8571h-54.857a6.8571 6.8571 0 0 1 -6.8571 -6.8571v-29.143a6.8571 6.8571 0 0 1 6.8571 -6.8571"/>
   <path d="m169.58 266.64h68.539a6.8571 6.8571 0 0 1 6.8571 6.8571v29.143a6.8571 6.8571 0 0 1 -6.8571 6.8571h-68.539a6.8571 6.8571 0 0 1 -6.8571 -6.8571v-29.143a6.8571 6.8571 0 0 1 6.8571 -6.8571"/>
   <path d="m264.98 266.64h29.143a6.8571 6.8571 0 0 1 6.8571 6.8571v29.143a6.8571 6.8571 0 0 1 -6.8571 6.8571h-29.143a6.8571 6.8571 0 0 1 -6.8571 -6.8571v-29.143a6.8571 6.8571 0 0 1 6.8571 -6.8571"/>
   <path d="m321 266.64h29.143a6.8571 6.8571 0 0 1 6.8571 6.8571v29.143a6.8571 6.8571 0 0 1 -6.8571 6.8571h-29.143a6.8571 6.8571 0 0 1 -6.8571 -6.8571v-29.143a6.8571 6.8571 0 0 1 6.8571 -6.8571"/>
   <path d="m375.97 266.64h29.143a6.8571 6.8571 0 0 1 6.8571 6.8571v29.143a6.8571 6.8571 0 0 1 -6.8571 6.8571h-29.143a6.8571 6.8571 0 0 1 -6.8571 -6.8571v-29.143a6.8571 6.8571 0 0 1 6.8571 -6.8571"/>
   <path d="m431 266.64h29.143a6.8571 6.8571 0 0 1 6.8571 6.8571v29.143a6.8571 6.8571 0 0 1 -6.8571 6.8571h-29.143a6.8571 6.8571 0 0 1 -6.8571 -6.8571v-29.143a6.8571 6.8571 0 0 1 6.8571 -6.8571"/>
   <path d="m487 266.64h29.143a6.8571 6.8571 0 0 1 6.8571 6.8571v29.143a6.8571 6.8571 0 0 1 -6.8571 6.8571h-29.143a6.8571 6.8571 0 0 1 -6.8571 -6.8571v-29.143a6.8571 6.8571 0 0 1 6.8571 -6.8571"/>
   <path d="m545 266.64h29.143a6.8571 6.8571 0 0 1 6.8571 6.8571v29.143a6.8571 6.8571 0 0 1 -6.8571 6.8571h-29.143a6.8571 6.8571 0 0 1 -6.8571 -6.8571v-29.143a6.8571 6.8571 0 0 1 6.8571 -6.8571"/>
   <path d="m603 266.64h29.143a6.8571 6.8571 0 0 1 6.8571 6.8571v29.143a6.8571 6.8571 0 0 1 -6.8571 6.8571h-29.143a6.8571 6.8571 0 0 1 -6.8571 -6.8571v-29.143a6.8571 6.8571 0 0 1 6.8571 -6.8571"/>
   <path d="m661 266.64h29.143a6.8571 6.8571 0 0 1 6.8571 6.8571v29.143a6.8571 6.8571 0 0 1 -6.8571 6.8571h-29.143a6.8571 6.8571 0 0 1 -6.8571 -6.8571v-29.143a6.8571 6.8571 0 0 1 6.8571 -6.8571"/>
   <path d="m717 266.64h29.143a6.8571 6.8571 0 0 1 6.8571 6.8571v29.143a6.8571 6.8571 0 0 1 -6.8571 6.8571h-29.143a6.8571 6.8571 0 0 1 -6.8571 -6.8571v-29.143a6.8571 6.8571 0 0 1 6.8571 -6.8571"/>
   <path d="m773 266.64h29.143a6.8571 6.8571 0 0 1 6.8571 6.8571v29.143a6.8571 6.8571 0 0 1 -6.8571 6.8571h-29.143a6.8571 6.8571 0 0 1 -6.8571 -6.8571v-29.143a6.8571 6.8571 0 0 1 6.8571 -6.8571"/>
   <path d="m833 266.64h29.143a6.8571 6.8571 0 0 1 6.8571 6.8571v29.143a6.8571 6.8571 0 0 1 -6.8571 6.8571h-29.143a6.8571 6.8571 0 0 1 -6.8571 -6.8571v-29.143a6.8571 6.8571 0 0 1 6.8571 -6.8571"/>
   <path d="m893 266.64h96.265a6.8571 6.8571 0 0 1 6.8571 6.8571v29.143a6.8571 6.8571 0 0 1 -6.8571 6.8571h-96.265a6.8571 6.8571 0 0 1 -6.8571 -6.8571v-29.143a6.8571 6.8571 0 0 1 6.8571 -6.8571"/>
   <path d="m170.35 324.64h92.782a6.8571 6.8571 0 0 1 6.8571 6.8571v29.143a6.8571 6.8571 0 0 1 -6.8571 6.8571h-92.782a6.8571 6.8571 0 0 1 -6.8571 -6.8571v-29.143a6.8571 6.8571 0 0 1 6.8571 -6.8571"/>
   <path d="m288.98 324.64h29.143a6.8571 6.8571 0 0 1 6.8571 6.8571v29.143a6.8571 6.8571 0 0 1 -6.8571 6.8571h-29.143a6.8571 6.8571 0 0 1 -6.8571 -6.8571v-29.143a6.8571 6.8571 0 0 1 6.8571 -6.8571"/>
   <path d="m345 324.64h29.143a6.8571 6.8571 0 0 1 6.8571 6.8571v29.143a6.8571 6.8571 0 0 1 -6.8571 6.8571h-29.143a6.8571 6.8571 0 0 1 -6.8571 -6.8571v-29.143a6.8571 6.8571 0 0 1 6.8571 -6.8571"/>
   <path d="m399.97 324.64h29.143a6.8571 6.8571 0 0 1 6.8571 6.8571v29.143a6.8571 6.8571 0 0 1 -6.8571 6.8571h-29.143a6.8571 6.8571 0 0 1 -6.8571 -6.8571v-29.143a6.8571 6.8571 0 0 1 6.8571 -6.8571"/>
   <path d="m455 324.64h29.143a6.8571 6.8571 0 0 1 6.8571 6.8571v29.143a6.8571 6.8571 0 0 1 -6.8571 6.8571h-29.143a6.8571 6.8571 0 0 1 -6.8571 -6.8571v-29.143a6.8571 6.8571 0 0 1 6.8571 -6.8571"/>
   <path d="m511 324.64h29.143a6.8571 6.8571 0 0 1 6.8571 6.8571v29.143a6.8571 6.8571 0 0 1 -6.8571 6.8571h-29.143a6.8571 6.8571 0 0 1 -6.8571 -6.8571v-29.143a6.8571 6.8571 0 0 1 6.8571 -6.8571"/>
   <path d="m569 324.64h29.143a6.8571 6.8571 0 0 1 6.8571 6.8571v29.143a6.8571 6.8571 0 0 1 -6.8571 6.8571h-29.143a6.8571 6.8571 0 0 1 -6.8571 -6.8571v-29.143a6.8571 6.8571 0 0 1 6.8571 -6.8571"/>
   <path d="m627 324.64h29.143a6.8571 6.8571 0 0 1 6.8571 6.8571v29.143a6.8571 6.8571 0 0 1 -6.8571 6.8571h-29.143a6.8571 6.8571 0 0 1 -6.8571 -6.8571v-29.143a6.8571 6.8571 0 0 1 6.8571 -6.8571"/>
   <path d="m685 324.64h29.143a6.8571 6.8571 0 0 1 6.8571 6.8571v29.143a6.8571 6.8571 0 0 1 -6.8571 6.8571h-29.143a6.8571 6.8571 0 0 1 -6.8571 -6.8571v-29.143a6.8571 6.8571 0 0 1 6.8571 -6.8571"/>
   <path d="m741 324.64h29.143a6.8571 6.8571 0 0 1 6.8571 6.8571v29.143a6.8571 6.8571 0 0 1 -6.8571 6.8571h-29.143a6.8571 6.8571 0 0 1 -6.8571 -6.8571v-29.143a6.8571 6.8571 0 0 1 6.8571 -6.8571"/>
   <path d="m797 324.64h33.183a6.8571 6.8571 0 0 1 6.8571 6.8571v29.143a6.8571 6.8571 0 0 1 -6.8571 6.8571h-33.183a6.8571 6.8571 0 0 1 -6.8571 -6.8571v-29.143a6.8571 6.8571 0 0 1 6.8571 -6.8571"/>
   <path d="m863.06 324.64h126.71a6.8571 6.8571 0 0 1 6.8571 6.8571v29.143a6.8571 6.8571 0 0 1 -6.8571 6.8571h-126.71a6.8571 6.8571 0 0 1 -6.8571 -6.8571v-29.143a6.8571 6.8571 0 0 1 6.8571 -6.8571"/>
   <path d="m169.58 382.64h57.427a6.8571 6.8571 0 0 1 6.8571 6.8571v29.143a6.8571 6.8571 0 0 1 -6.8571 6.8571h-57.427a6.8571 6.8571 0 0 1 -6.8571 -6.8571v-29.143a6.8571 6.8571 0 0 1 6.8571 -6.8571"/>
   <path d="m249.83 382.64h40.255a6.8571 6.8571 0 0 1 6.8571 6.8571v29.143a6.8571 6.8571 0 0 1 -6.8571 6.8571h-40.255a6.8571 6.8571 0 0 1 -6.8571 -6.8571v-29.143a6.8571 6.8571 0 0 1 6.8571 -6.8571"/>
   <path d="m315.95 382.64h40.673a6.8571 6.8571 0 0 1 6.8571 6.8571v29.143a6.8571 6.8571 0 0 1 -6.8571 6.8571h-40.673a6.8571 6.8571 0 0 1 -6.8571 -6.8571v-29.143a6.8571 6.8571 0 0 1 6.8571 -6.8571"/>
   <path d="m388.85 382.64h308.12a6.8571 6.8571 0 0 1 6.8571 6.8571v29.143a6.8571 6.8571 0 0 1 -6.8571 6.8571h-308.12a6.8571 6.8571 0 0 1 -6.8571 -6.8571v-29.143a6.8571 6.8571 0 0 1 6.8571 -6.8571"/>
   <path d="m733.16 382.64h39.244a6.8571 6.8571 0 0 1 6.8571 6.8571v29.143a6.8571 6.8571 0 0 1 -6.8571 6.8571h-39.244a6.8571 6.8571 0 0 1 -6.8571 -6.8571v-29.143a6.8571 6.8571 0 0 1 6.8571 -6.8571"/>
   <path d="m803.3 382.64h42.275a6.8571 6.8571 0 0 1 6.8571 6.8571v29.143a6.8571 6.8571 0 0 1 -6.8571 6.8571h-42.275a6.8571 6.8571 0 0 1 -6.8571 -6.8571v-29.143a6.8571 6.8571 0 0 1 6.8571 -6.8571"/>
   <path d="m874.82 382.64h55.859a6.8571 6.8571 0 0 1 6.8571 6.8571v29.143a6.8571 6.8571 0 0 1 -6.8571 6.8571h-55.859a6.8571 6.8571 0 0 1 -6.8571 -6.8571v-29.143a6.8571 6.8571 0 0 1 6.8571 -6.8571"/>
  </g>
  <g transform="translate(-.85715 -1.4949)" fill="#fff4b8" font-family="Trebuchet MS" font-size="16" opacity=".96" stroke="#decd87">
   <path d="m169 153.65h29.143a6.8571 6.8571 0 0 1 6.8571 6.8571v29.143a6.8571 6.8571 0 0 1 -6.8571 6.8571h-29.143a6.8571 6.8571 0 0 1 -6.8571 -6.8571v-29.143a6.8571 6.8571 0 0 1 6.8571 -6.8571"/>
   <path d="m221 153.65h29.143a6.8571 6.8571 0 0 1 6.8571 6.8571v29.143a6.8571 6.8571 0 0 1 -6.8571 6.8571h-29.143a6.8571 6.8571 0 0 1 -6.8571 -6.8571v-29.143a6.8571 6.8571 0 0 1 6.8571 -6.8571"/>
   <path d="m277 153.65h29.143a6.8571 6.8571 0 0 1 6.8571 6.8571v29.143a6.8571 6.8571 0 0 1 -6.8571 6.8571h-29.143a6.8571 6.8571 0 0 1 -6.8571 -6.8571v-29.143a6.8571 6.8571 0 0 1 6.8571 -6.8571"/>
   <path d="m331 153.65h29.143a6.8571 6.8571 0 0 1 6.8571 6.8571v29.143a6.8571 6.8571 0 0 1 -6.8571 6.8571h-29.143a6.8571 6.8571 0 0 1 -6.8571 -6.8571v-29.143a6.8571 6.8571 0 0 1 6.8571 -6.8571"/>
   <path d="m389 153.65h29.143a6.8571 6.8571 0 0 1 6.8571 6.8571v29.143a6.8571 6.8571 0 0 1 -6.8571 6.8571h-29.143a6.8571 6.8571 0 0 1 -6.8571 -6.8571v-29.143a6.8571 6.8571 0 0 1 6.8571 -6.8571"/>
   <path d="m441 153.65h29.143a6.8571 6.8571 0 0 1 6.8571 6.8571v29.143a6.8571 6.8571 0 0 1 -6.8571 6.8571h-29.143a6.8571 6.8571 0 0 1 -6.8571 -6.8571v-29.143a6.8571 6.8571 0 0 1 6.8571 -6.8571"/>
   <path d="m501 153.65h29.143a6.8571 6.8571 0 0 1 6.8571 6.8571v29.143a6.8571 6.8571 0 0 1 -6.8571 6.8571h-29.143a6.8571 6.8571 0 0 1 -6.8571 -6.8571v-29.143a6.8571 6.8571 0 0 1 6.8571 -6.8571"/>
   <path d="m557 153.65h29.143a6.8571 6.8571 0 0 1 6.8571 6.8571v29.143a6.8571 6.8571 0 0 1 -6.8571 6.8571h-29.143a6.8571 6.8571 0 0 1 -6.8571 -6.8571v-29.143a6.8571 6.8571 0 0 1 6.8571 -6.8571"/>
   <path d="m617 153.65h29.143a6.8571 6.8571 0 0 1 6.8571 6.8571v29.143a6.8571 6.8571 0 0 1 -6.8571 6.8571h-29.143a6.8571 6.8571 0 0 1 -6.8571 -6.8571v-29.143a6.8571 6.8571 0 0 1 6.8571 -6.8571"/>
   <path d="m673 153.65h29.143a6.8571 6.8571 0 0 1 6.8571 6.8571v29.143a6.8571 6.8571 0 0 1 -6.8571 6.8571h-29.143a6.8571 6.8571 0 0 1 -6.8571 -6.8571v-29.143a6.8571 6.8571 0 0 1 6.8571 -6.8571"/>
   <path d="m733 153.65h29.143a6.8571 6.8571 0 0 1 6.8571 6.8571v29.143a6.8571 6.8571 0 0 1 -6.8571 6.8571h-29.143a6.8571 6.8571 0 0 1 -6.8571 -6.8571v-29.143a6.8571 6.8571 0 0 1 6.8571 -6.8571"/>
   <path d="m789 153.65h29.143a6.8571 6.8571 0 0 1 6.8571 6.8571v29.143a6.8571 6.8571 0 0 1 -6.8571 6.8571h-29.143a6.8571 6.8571 0 0 1 -6.8571 -6.8571v-29.143a6.8571 6.8571 0 0 1 6.8571 -6.8571"/>
   <path d="m849 153.65h29.143a6.8571 6.8571 0 0 1 6.8571 6.8571v29.143a6.8571 6.8571 0 0 1 -6.8571 6.8571h-29.143a6.8571 6.8571 0 0 1 -6.8571 -6.8571v-29.143a6.8571 6.8571 0 0 1 6.8571 -6.8571"/>
   <path d="m907 153.65h84.143a6.8571 6.8571 0 0 1 6.8571 6.8571v29.143a6.8571 6.8571 0 0 1 -6.8571 6.8571h-84.143a6.8571 6.8571 0 0 1 -6.8571 -6.8571v-29.143a6.8571 6.8571 0 0 1 6.8571 -6.8571"/>
   <path d="m166.29 211.65h59.143a6.8571 6.8571 0 0 1 6.8571 6.8571v29.143a6.8571 6.8571 0 0 1 -6.8571 6.8571h-59.143a6.8571 6.8571 0 0 1 -6.8571 -6.8571v-29.143a6.8571 6.8571 0 0 1 6.8571 -6.8571"/>
   <path d="m249 211.65h29.143a6.8571 6.8571 0 0 1 6.8571 6.8571v29.143a6.8571 6.8571 0 0 1 -6.8571 6.8571h-29.143a6.8571 6.8571 0 0 1 -6.8571 -6.8571v-29.143a6.8571 6.8571 0 0 1 6.8571 -6.8571"/>
   <path d="m305 211.65h29.143a6.8571 6.8571 0 0 1 6.8571 6.8571v29.143a6.8571 6.8571 0 0 1 -6.8571 6.8571h-29.143a6.8571 6.8571 0 0 1 -6.8571 -6.8571v-29.143a6.8571 6.8571 0 0 1 6.8571 -6.8571"/>
   <path d="m359 211.65h29.143a6.8571 6.8571 0 0 1 6.8571 6.8571v29.143a6.8571 6.8571 0 0 1 -6.8571 6.8571h-29.143a6.8571 6.8571 0 0 1 -6.8571 -6.8571v-29.143a6.8571 6.8571 0 0 1 6.8571 -6.8571"/>
   <path d="m417 211.65h29.143a6.8571 6.8571 0 0 1 6.8571 6.8571v29.143a6.8571 6.8571 0 0 1 -6.8571 6.8571h-29.143a6.8571 6.8571 0 0 1 -6.8571 -6.8571v-29.143a6.8571 6.8571 0 0 1 6.8571 -6.8571"/>
   <path d="m469 211.65h29.143a6.8571 6.8571 0 0 1 6.8571 6.8571v29.143a6.8571 6.8571 0 0 1 -6.8571 6.8571h-29.143a6.8571 6.8571 0 0 1 -6.8571 -6.8571v-29.143a6.8571 6.8571 0 0 1 6.8571 -6.8571"/>
   <path d="m529 211.65h29.143a6.8571 6.8571 0 0 1 6.8571 6.8571v29.143a6.8571 6.8571 0 0 1 -6.8571 6.8571h-29.143a6.8571 6.8571 0 0 1 -6.8571 -6.8571v-29.143a6.8571 6.8571 0 0 1 6.8571 -6.8571"/>
   <path d="m585 211.65h29.143a6.8571 6.8571 0 0 1 6.8571 6.8571v29.143a6.8571 6.8571 0 0 1 -6.8571 6.8571h-29.143a6.8571 6.8571 0 0 1 -6.8571 -6.8571v-29.143a6.8571 6.8571 0 0 1 6.8571 -6.8571"/>
   <path d="m645 211.65h29.143a6.8571 6.8571 0 0 1 6.8571 6.8571v29.143a6.8571 6.8571 0 0 1 -6.8571 6.8571h-29.143a6.8571 6.8571 0 0 1 -6.8571 -6.8571v-29.143a6.8571 6.8571 0 0 1 6.8571 -6.8571"/>
   <path d="m701 211.65h29.143a6.8571 6.8571 0 0 1 6.8571 6.8571v29.143a6.8571 6.8571 0 0 1 -6.8571 6.8571h-29.143a6.8571 6.8571 0 0 1 -6.8571 -6.8571v-29.143a6.8571 6.8571 0 0 1 6.8571 -6.8571"/>
   <path d="m761 211.65h29.143a6.8571 6.8571 0 0 1 6.8571 6.8571v29.143a6.8571 6.8571 0 0 1 -6.8571 6.8571h-29.143a6.8571 6.8571 0 0 1 -6.8571 -6.8571v-29.143a6.8571 6.8571 0 0 1 6.8571 -6.8571"/>
   <path d="m817 211.65h29.143a6.8571 6.8571 0 0 1 6.8571 6.8571v29.143a6.8571 6.8571 0 0 1 -6.8571 6.8571h-29.143a6.8571 6.8571 0 0 1 -6.8571 -6.8571v-29.143a6.8571 6.8571 0 0 1 6.8571 -6.8571"/>
   <path d="m877 211.65h29.143a6.8571 6.8571 0 0 1 6.8571 6.8571v29.143a6.8571 6.8571 0 0 1 -6.8571 6.8571h-29.143a6.8571 6.8571 0 0 1 -6.8571 -6.8571v-29.143a6.8571 6.8571 0 0 1 6.8571 -6.8571"/>
   <path d="m935.71 211.65h54.857a6.8571 6.8571 0 0 1 6.8571 6.8571v29.143a6.8571 6.8571 0 0 1 -6.8571 6.8571h-54.857a6.8571 6.8571 0 0 1 -6.8571 -6.8571v-29.143a6.8571 6.8571 0 0 1 6.8571 -6.8571"/>
   <path d="m169.58 266.64h68.539a6.8571 6.8571 0 0 1 6.8571 6.8571v29.143a6.8571 6.8571 0 0 1 -6.8571 6.8571h-68.539a6.8571 6.8571 0 0 1 -6.8571 -6.8571v-29.143a6.8571 6.8571 0 0 1 6.8571 -6.8571"/>
   <path d="m264.98 266.64h29.143a6.8571 6.8571 0 0 1 6.8571 6.8571v29.143a6.8571 6.8571 0 0 1 -6.8571 6.8571h-29.143a6.8571 6.8571 0 0 1 -6.8571 -6.8571v-29.143a6.8571 6.8571 0 0 1 6.8571 -6.8571"/>
   <path d="m321 266.64h29.143a6.8571 6.8571 0 0 1 6.8571 6.8571v29.143a6.8571 6.8571 0 0 1 -6.8571 6.8571h-29.143a6.8571 6.8571 0 0 1 -6.8571 -6.8571v-29.143a6.8571 6.8571 0 0 1 6.8571 -6.8571"/>
   <path d="m375.97 266.64h29.143a6.8571 6.8571 0 0 1 6.8571 6.8571v29.143a6.8571 6.8571 0 0 1 -6.8571 6.8571h-29.143a6.8571 6.8571 0 0 1 -6.8571 -6.8571v-29.143a6.8571 6.8571 0 0 1 6.8571 -6.8571"/>
   <path d="m431 266.64h29.143a6.8571 6.8571 0 0 1 6.8571 6.8571v29.143a6.8571 6.8571 0 0 1 -6.8571 6.8571h-29.143a6.8571 6.8571 0 0 1 -6.8571 -6.8571v-29.143a6.8571 6.8571 0 0 1 6.8571 -6.8571"/>
   <path d="m487 266.64h29.143a6.8571 6.8571 0 0 1 6.8571 6.8571v29.143a6.8571 6.8571 0 0 1 -6.8571 6.8571h-29.143a6.8571 6.8571 0 0 1 -6.8571 -6.8571v-29.143a6.8571 6.8571 0 0 1 6.8571 -6.8571"/>
   <path d="m545 266.64h29.143a6.8571 6.8571 0 0 1 6.8571 6.8571v29.143a6.8571 6.8571 0 0 1 -6.8571 6.8571h-29.143a6.8571 6.8571 0 0 1 -6.8571 -6.8571v-29.143a6.8571 6.8571 0 0 1 6.8571 -6.8571"/>
   <path d="m603 266.64h29.143a6.8571 6.8571 0 0 1 6.8571 6.8571v29.143a6.8571 6.8571 0 0 1 -6.8571 6.8571h-29.143a6.8571 6.8571 0 0 1 -6.8571 -6.8571v-29.143a6.8571 6.8571 0 0 1 6.8571 -6.8571"/>
   <path d="m661 266.64h29.143a6.8571 6.8571 0 0 1 6.8571 6.8571v29.143a6.8571 6.8571 0 0 1 -6.8571 6.8571h-29.143a6.8571 6.8571 0 0 1 -6.8571 -6.8571v-29.143a6.8571 6.8571 0 0 1 6.8571 -6.8571"/>
   <path d="m717 266.64h29.143a6.8571 6.8571 0 0 1 6.8571 6.8571v29.143a6.8571 6.8571 0 0 1 -6.8571 6.8571h-29.143a6.8571 6.8571 0 0 1 -6.8571 -6.8571v-29.143a6.8571 6.8571 0 0 1 6.8571 -6.8571"/>
   <path d="m773 266.64h29.143a6.8571 6.8571 0 0 1 6.8571 6.8571v29.143a6.8571 6.8571 0 0 1 -6.8571 6.8571h-29.143a6.8571 6.8571 0 0 1 -6.8571 -6.8571v-29.143a6.8571 6.8571 0 0 1 6.8571 -6.8571"/>
   <path d="m833 266.64h29.143a6.8571 6.8571 0 0 1 6.8571 6.8571v29.143a6.8571 6.8571 0 0 1 -6.8571 6.8571h-29.143a6.8571 6.8571 0 0 1 -6.8571 -6.8571v-29.143a6.8571 6.8571 0 0 1 6.8571 -6.8571"/>
   <path d="m893 266.64h96.265a6.8571 6.8571 0 0 1 6.8571 6.8571v29.143a6.8571 6.8571 0 0 1 -6.8571 6.8571h-96.265a6.8571 6.8571 0 0 1 -6.8571 -6.8571v-29.143a6.8571 6.8571 0 0 1 6.8571 -6.8571"/>
   <path d="m170.35 324.64h92.782a6.8571 6.8571 0 0 1 6.8571 6.8571v29.143a6.8571 6.8571 0 0 1 -6.8571 6.8571h-92.782a6.8571 6.8571 0 0 1 -6.8571 -6.8571v-29.143a6.8571 6.8571 0 0 1 6.8571 -6.8571"/>
   <path d="m288.98 324.64h29.143a6.8571 6.8571 0 0 1 6.8571 6.8571v29.143a6.8571 6.8571 0 0 1 -6.8571 6.8571h-29.143a6.8571 6.8571 0 0 1 -6.8571 -6.8571v-29.143a6.8571 6.8571 0 0 1 6.8571 -6.8571"/>
   <path d="m345 324.64h29.143a6.8571 6.8571 0 0 1 6.8571 6.8571v29.143a6.8571 6.8571 0 0 1 -6.8571 6.8571h-29.143a6.8571 6.8571 0 0 1 -6.8571 -6.8571v-29.143a6.8571 6.8571 0 0 1 6.8571 -6.8571"/>
   <path d="m399.97 324.64h29.143a6.8571 6.8571 0 0 1 6.8571 6.8571v29.143a6.8571 6.8571 0 0 1 -6.8571 6.8571h-29.143a6.8571 6.8571 0 0 1 -6.8571 -6.8571v-29.143a6.8571 6.8571 0 0 1 6.8571 -6.8571"/>
   <path d="m455 324.64h29.143a6.8571 6.8571 0 0 1 6.8571 6.8571v29.143a6.8571 6.8571 0 0 1 -6.8571 6.8571h-29.143a6.8571 6.8571 0 0 1 -6.8571 -6.8571v-29.143a6.8571 6.8571 0 0 1 6.8571 -6.8571"/>
   <path d="m511 324.64h29.143a6.8571 6.8571 0 0 1 6.8571 6.8571v29.143a6.8571 6.8571 0 0 1 -6.8571 6.8571h-29.143a6.8571 6.8571 0 0 1 -6.8571 -6.8571v-29.143a6.8571 6.8571 0 0 1 6.8571 -6.8571"/>
   <path d="m569 324.64h29.143a6.8571 6.8571 0 0 1 6.8571 6.8571v29.143a6.8571 6.8571 0 0 1 -6.8571 6.8571h-29.143a6.8571 6.8571 0 0 1 -6.8571 -6.8571v-29.143a6.8571 6.8571 0 0 1 6.8571 -6.8571"/>
   <path d="m627 324.64h29.143a6.8571 6.8571 0 0 1 6.8571 6.8571v29.143a6.8571 6.8571 0 0 1 -6.8571 6.8571h-29.143a6.8571 6.8571 0 0 1 -6.8571 -6.8571v-29.143a6.8571 6.8571 0 0 1 6.8571 -6.8571"/>
   <path d="m685 324.64h29.143a6.8571 6.8571 0 0 1 6.8571 6.8571v29.143a6.8571 6.8571 0 0 1 -6.8571 6.8571h-29.143a6.8571 6.8571 0 0 1 -6.8571 -6.8571v-29.143a6.8571 6.8571 0 0 1 6.8571 -6.8571"/>
   <path d="m741 324.64h29.143a6.8571 6.8571 0 0 1 6.8571 6.8571v29.143a6.8571 6.8571 0 0 1 -6.8571 6.8571h-29.143a6.8571 6.8571 0 0 1 -6.8571 -6.8571v-29.143a6.8571 6.8571 0 0 1 6.8571 -6.8571"/>
   <path d="m797 324.64h33.183a6.8571 6.8571 0 0 1 6.8571 6.8571v29.143a6.8571 6.8571 0 0 1 -6.8571 6.8571h-33.183a6.8571 6.8571 0 0 1 -6.8571 -6.8571v-29.143a6.8571 6.8571 0 0 1 6.8571 -6.8571"/>
   <path d="m863.06 324.64h126.71a6.8571 6.8571 0 0 1 6.8571 6.8571v29.143a6.8571 6.8571 0 0 1 -6.8571 6.8571h-126.71a6.8571 6.8571 0 0 1 -6.8571 -6.8571v-29.143a6.8571 6.8571 0 0 1 6.8571 -6.8571"/>
   <path d="m169.58 382.64h57.427a6.8571 6.8571 0 0 1 6.8571 6.8571v29.143a6.8571 6.8571 0 0 1 -6.8571 6.8571h-57.427a6.8571 6.8571 0 0 1 -6.8571 -6.8571v-29.143a6.8571 6.8571 0 0 1 6.8571 -6.8571"/>
   <path d="m249.83 382.64h40.255a6.8571 6.8571 0 0 1 6.8571 6.8571v29.143a6.8571 6.8571 0 0 1 -6.8571 6.8571h-40.255a6.8571 6.8571 0 0 1 -6.8571 -6.8571v-29.143a6.8571 6.8571 0 0 1 6.8571 -6.8571"/>
   <path d="m315.95 382.64h40.673a6.8571 6.8571 0 0 1 6.8571 6.8571v29.143a6.8571 6.8571 0 0 1 -6.8571 6.8571h-40.673a6.8571 6.8571 0 0 1 -6.8571 -6.8571v-29.143a6.8571 6.8571 0 0 1 6.8571 -6.8571"/>
   <path d="m388.85 382.64h308.12a6.8571 6.8571 0 0 1 6.8571 6.8571v29.143a6.8571 6.8571 0 0 1 -6.8571 6.8571h-308.12a6.8571 6.8571 0 0 1 -6.8571 -6.8571v-29.143a6.8571 6.8571 0 0 1 6.8571 -6.8571"/>
   <path d="m733.16 382.64h39.244a6.8571 6.8571 0 0 1 6.8571 6.8571v29.143a6.8571 6.8571 0 0 1 -6.8571 6.8571h-39.244a6.8571 6.8571 0 0 1 -6.8571 -6.8571v-29.143a6.8571 6.8571 0 0 1 6.8571 -6.8571"/>
   <path d="m803.3 382.64h42.275a6.8571 6.8571 0 0 1 6.8571 6.8571v29.143a6.8571 6.8571 0 0 1 -6.8571 6.8571h-42.275a6.8571 6.8571 0 0 1 -6.8571 -6.8571v-29.143a6.8571 6.8571 0 0 1 6.8571 -6.8571"/>
   <path d="m874.82 382.64h55.859a6.8571 6.8571 0 0 1 6.8571 6.8571v29.143a6.8571 6.8571 0 0 1 -6.8571 6.8571h-55.859a6.8571 6.8571 0 0 1 -6.8571 -6.8571v-29.143a6.8571 6.8571 0 0 1 6.8571 -6.8571"/>
  </g>
  <path d="m174.77687,160.94203c-.27605,1.07813-.77605,1.61719-1.5,1.61719-.41146,0-.94011-.10026-1.58594-.30078s-1.04167-.30078-1.1875-.30078c-.36979,0-.65104.20052-.84375.60156h-.71093c.07291-.4375.24088-.8164.5039-1.13672s.57422-.48046.9336-.48047c.45312,1e-005 .98046.10027 1.58203.30078s1.02734.30079 1.27734.30078c.42187,1e-005 .70312-.20051.84375-.60156h.6875zm-2.69531,15.55469-1.76563-2.60156h1.53907l1.32031,2.60156h-1.09375z" fill="#28170b"/>
  <path d="m224.08369,165.01234h-.55468c-.40105-2.61978-.60157-4.44009-.60157-5.46093v-3.20313h1.76563v3.19531c0,.9948-.20313,2.81772-.60938,5.46875zm-.22656.78907c.32292,0 .59896.11458.82813.34375s.34374.50521.34375.82812-.11459.60026-.34375.83203-.50521.34766-.82813.34766-.59896-.11589-.82812-.34766-.34375-.50911-.34375-.83203 .11458-.59895.34375-.82812 .5052-.34375.82812-.34375zm.89063,22.19531v-8.77344l-2.32813,1.45313v-1.46094c.58854-.29687 1.21484-.70572 1.87891-1.22656s1.17838-1.01562 1.54297-1.48438h.46875v11.49219h-1.5625z" fill="#28170b"/>
  <path d="m285.33 167.19c0.23958 0.08854 0.59114 0.23959 1.0547 0.45313-1 1-2.3177 1.5-3.9531 1.5-1.6667 0-3.0013-0.51302-4.0039-1.5391s-1.5039-2.375-1.5039-4.0469c0-1.6979 0.50781-3.0911 1.5234-4.1797s2.3438-1.6328 3.9844-1.6328c1.5781 1e-5 2.8489 0.47136 3.8125 1.4141s1.4453 2.2005 1.4453 3.7734c-1e-5 0.88542-0.23309 1.6367-0.69922 2.2539s-1.082 0.92578-1.8477 0.92578c-0.82813 0-1.4271-0.18229-1.7969-0.54688-0.44272 0.40625-0.96615 0.60938-1.5703 0.60938-0.5573 0-1.0078-0.15234-1.3516-0.45703s-0.51563-0.71485-0.51562-1.2305c-1e-5 -0.65625 0.28124-1.1562 0.84375-1.5s1.3229-0.51562 2.2812-0.51563c-0.07813-0.76562-0.38543-1.1484-0.92188-1.1484-0.54688 1e-5 -0.97917 0.14584-1.2969 0.4375l-0.375-0.77343c0.42708-0.3177 0.94791-0.47656 1.5625-0.47657 1.4479 1e-5 2.1719 0.83074 2.1719 2.4922v1.8672c0.37499 0.27604 0.6927 0.41406 0.95313 0.41406 0.96874 0 1.4531-0.79166 1.4531-2.375-1e-5 -1.2031-0.39063-2.2057-1.1719-3.0078s-1.7734-1.2031-2.9766-1.2031c-1.3177 1e-5 -2.3802 0.45574-3.1875 1.3672s-1.2109 2.0755-1.2109 3.4922c0 1.3906 0.39974 2.5104 1.1992 3.3594s1.8659 1.2734 3.1992 1.2734c1.2031 0 2.1693-0.33333 2.8984-1zm-2.2969-2.1641v-1.8281h-0.39844c-1.0156 1e-5 -1.5234 0.41668-1.5234 1.25 0 0.28126 0.09896 0.51303 0.29688 0.69532s0.4453 0.27344 0.74219 0.27343c0.32811 1e-5 0.62238-0.1302 0.88281-0.39062zm-6.3516 23.07v-0.3125l3.5859-5.4922c0.75-1.151 1.125-2.1276 1.125-2.9297 0-1.0573-0.59636-1.5859-1.7891-1.5859-0.42188 1e-5 -0.81771 0.11069-1.1875 0.33203s-0.63802 0.50131-0.80469 0.83984l-1.0078-0.82812c0.17708-0.51041 0.52474-0.91666 1.043-1.2188s1.1445-0.45311 1.8789-0.45313c1.099 2e-5 1.9583 0.25392 2.5781 0.76172s0.92968 1.2253 0.92969 2.1524c-1e-5 0.85938-0.41147 1.9427-1.2344 3.25l-2.5703 4.0781h4.4844v1.4062h-7.0312z" fill="#28170b"/>
  <path d="m340.12 160.6-0.77344 3.0703h1.2578v1h-1.5156l-0.96875 3.4844h-0.99219l0.96875-3.4844h-2.3203l-0.96875 3.4844h-1.0156l0.96094-3.4844h-1.2109v-1h1.4688l0.77344-3.0703h-1.3438v-1h1.6016l0.79688-3.2188h1.0234l-0.80469 3.2188h2.3203l0.80469-3.2188h0.99219l-0.80469 3.2188h1.3672v1h-1.6172zm-3.3125 0-0.77344 3.0703h2.3203l0.77344-3.0703h-2.3203zm-2.7031 26.586 0.75-1.2031c0.51042 0.56251 1.1562 0.84376 1.9375 0.84375 1.4479 1e-5 2.1719-0.70833 2.1719-2.125-1e-5 -0.64583-0.21094-1.1706-0.63281-1.5742s-0.98178-0.60547-1.6797-0.60547h-0.125v-1.2656h0.07031c1.3229 1e-5 1.9844-0.58332 1.9844-1.75-1e-5 -1.2187-0.6224-1.8281-1.8672-1.8281-0.67709 1e-5 -1.2162 0.22657-1.6172 0.67968l-0.69531-1.0625c0.48437-0.63019 1.2943-0.9453 2.4297-0.94531 0.99999 1e-5 1.8151 0.26694 2.4453 0.80078s0.9453 1.2175 0.94531 2.0508c-1e-5 0.63543-0.17579 1.1979-0.52734 1.6875s-0.76433 0.81772-1.2383 0.98438c0.65624 0.21355 1.1784 0.57683 1.5664 1.0898s0.58203 1.1341 0.58203 1.8633c0 1.0625-0.33594 1.8828-1.0078 2.4609s-1.6146 0.86719-2.8281 0.86719c-0.51042 0-1.0104-0.09505-1.5-0.28516s-0.87761-0.41797-1.1641-0.68359z" fill="#28170b"/>
  <path d="m390.0589,168.65297c-.35938-.02083-.8125-.11198-1.35938-.27344s-.92187-.30989-1.125-.44531l.5625-1.4375c.27084.19792.62891.3724 1.07422.52344s.84245.22656 1.19141.22656c.60937,0 1.09895-.16667 1.46875-.5s.55468-.75781.55469-1.27344c-1e-005-.32291-.05339-.60937-.16016-.85937s-.25261-.45182-.4375-.60547-.60547-.38411-1.26172-.69141l-.92187-.42969c-.78126-.36457-1.32683-.79686-1.63672-1.29687s-.46485-1.10156-.46485-1.80469c0-.72395.22787-1.35415.6836-1.89062s1.0664-.87499 1.83203-1.01563v-1.25h1.08594v1.19531c1.11978.04689 1.87759.25002 2.27343.60938l-.46093,1.35937c-.20834-.15103-.52605-.29686-.95313-.4375s-.82292-.21092-1.1875-.21093c-.53125,1e-005-.94922.15105-1.2539.45312s-.45704.69012-.45704,1.16406c0,.29168.05469.5573.16407.79688s.26562.44272.46875.60937 .59895.39064 1.1875.67188l.71875.33594c.81249.38021 1.40624.84505 1.78125,1.39453 .37499.54948.56249,1.25391.5625,2.11328-1e-005,.70833-.25131,1.32943-.75391,1.86328s-1.19922.8763-2.08984,1.02734v1.80469h-1.08594v-1.72656zm3.3125,16.6875v3.11719h-1.48438v-3.11719h-5.21093v-.89063l6.14843-7.48437h.54688v7.17187h1.15625v1.20313h-1.15625zm-1.48438-5.25781-3.35937,4.05468h3.35937v-4.05468z" fill="#28170b"/>
  <path d="m441.63422,168.15297h-.99219l6.89844-11.80469h.98437l-6.89062,11.80469zm-1.22657-9.23438c0-.76561.21094-1.3854.63282-1.85937s.95833-.71093 1.60937-.71094c.64062,1e-005 1.15234.23439 1.53516.70313s.57421,1.14063.57422,2.01562c-1e-005,.81251-.20313,1.45704-.60938,1.9336s-.92969.71485-1.57031.71484c-1.44792,1e-005-2.17188-.93229-2.17188-2.79688zm.98438.07813c0,.60938.10286,1.08204.30859,1.41797s.47526.50391.8086.5039c.84374,1e-005 1.26562-.63801 1.26562-1.91406 0-1.23957-.38281-1.85936-1.14844-1.85937-.38021,1e-005-.68099.16667-.90234.5s-.33203.78386-.33203,1.35156zm3.23437,6.35937c0-.76562.21094-1.38541.63282-1.85937s.95832-.71093 1.60937-.71094c.64062,1e-005 1.15234.23438 1.53516.70313s.57421,1.14063.57422,2.01562c-1e-005,.8125-.20314,1.45703-.60938,1.9336s-.92969.71484-1.57031.71484c-1.44792,0-2.17188-.93229-2.17188-2.79688zm.98438.07813c-1e-005,.60938.10286,1.08203.30859,1.41797s.47526.50391.8086.5039c.84374,1e-005 1.26561-.63802 1.26562-1.91406-1e-005-1.23958-.38282-1.85937-1.14844-1.85937-.38021,0-.68099.16667-.90234.5s-.33204.78385-.33203,1.35156zm-3.86719,16.97656-.53125-.36719v-5.53906h5.69531v1.32813h-4.21093v2.78125c.38541-.28645.87499-.42968 1.46875-.42969 1.06249,1e-005 1.87369.31772 2.43359.95312s.83984,1.53907.83984,2.71094c0,2.86979-1.27865,4.30469-3.83593,4.30469-1.06771,0-1.95313-.29688-2.65625-.89063l.60156-1.30468c.70833.57812 1.39062.86719 2.04687.86718 1.46875,1e-005 2.20312-.91666 2.20313-2.75-1e-005-1.70832-.72396-2.56249-2.17188-2.5625-.69792,1e-005-1.32552.29949-1.88281.89844z" fill="#28170b"/>
  <path d="m506.29 160.91-1.9062-3.5-1.9375 3.5312h-0.95313l2.4844-4.4375h0.83593l2.4688 4.4062h-0.99218zm-0.71094 15.438 0.75781 0.83594c-0.45834 0.1823-1.1211 0.79819-1.9883 1.8477s-1.3477 1.8581-1.4414 2.4258c0.43229-0.41666 1.0338-0.625 1.8047-0.625 1.0104 0 1.8203 0.32292 2.4297 0.96875s0.91405 1.5339 0.91406 2.6641c-1e-5 1.1198-0.31381 2.0208-0.94141 2.7031s-1.4154 1.0234-2.3633 1.0234c-2.5104 0-3.7656-1.6641-3.7656-4.9922 0-1.3854 0.49088-2.8034 1.4726-4.2539s2.0221-2.3164 3.1211-2.5977zm-2.9531 8.0703c0 1.6302 0.66927 2.4453 2.0078 2.4453 0.56249 0 1.0065-0.21224 1.332-0.63672s0.48827-0.98568 0.48828-1.6836c-1e-5 -0.72395-0.17188-1.3021-0.51563-1.7344s-0.78646-0.64843-1.3281-0.64844c-1.3229 1e-5 -1.9844 0.75261-1.9844 2.2578z" fill="#28170b"/>
  <path d="m564.09967,167.69594c-.75521.36979-1.66667.55469-2.73437.55469-1.08855,0-1.92969-.32162-2.52344-.96485s-.89063-1.55338-.89063-2.73047c0-.60416.08985-1.1276.26953-1.57031s.50912-.90104.98829-1.375c-.73438-.72916-1.10157-1.48697-1.10157-2.27344 0-.79686.30078-1.47785.90235-2.04297s1.40755-.84764 2.41797-.84765c1.07291,1e-005 1.90103.23699 2.48437.71094l-.64844,1.20312c-.59375-.49478-1.125-.74218-1.59375-.74219-1.38542,1e-005-2.07812.62501-2.07812,1.875 0,.67709.30208,1.25001.90625,1.71875h2.90625v-1.42968l1.48437-.57032v2.02344h1.94532v1.25h-1.94532v2.57813c-1e-005,.71875.09635,1.20833.28907,1.46875s.52603.39062 1,.39062c.28124,0 .61196-.09635.99218-.28906l.21094,1.38281c-.54688.15625-1.17188.23438-1.875.23438-.48438,0-.95313-.1849-1.40625-.55469zm-.69531-2.05469v-3.15625h-3.14844c-.49479.63542-.74219,1.30209-.74219,2 0,1.625.79427,2.4375 2.38282,2.4375 .70832,0 1.23957-.1276 1.59375-.38281-.0573-.23958-.08595-.53906-.08594-.89844zm-3.21875,22.45313h-1.73438c.38542-1.22396 1.03385-2.84245 1.94532-4.85547s1.74478-3.73046 2.5-5.15235h-5.39844v-1.48437h7.42187v.60937l-1.00781,1.98438c-.33855.67188-.69271,1.40886-1.0625,2.21094s-.73178,1.61979-1.08594,2.45312-.66406,1.60677-.92968,2.32031-.48178,1.35157-.64844,1.91407z" fill="#28170b"/>
  <path d="m622.0462,159.18813-1.35156.02343 1.23438.82032 .36718.48437-.95312.8125-.42188-.54687-.64062-1.24219-.71094,1.26562-.33594.5-1.02343-.78906 .39062-.53906 1.23438-.64844-1.375-.21094-.70313-.25 .5625-1.17187 .75.28906 .97656.74219-.49218-1.60156v-.61719h1.375v.59375l-.46875,1.64844 1.23437-.83594 .57813-.21094 .44531,1.25781-.67188.22657zm-1.90625,22.4375c-.48437-.26041-.88021-.62239-1.1875-1.08594s-.46093-.9427-.46093-1.4375c0-.84895.28776-1.52082.86328-2.01563s1.319-.74217 2.23047-.74218c.98437,1e-005 1.74739.2474 2.28906.74218s.81249,1.16928.8125,2.02344c-1e-005,.50001-.16407,1.00912-.49219,1.52734s-.70834.89975-1.14062,1.14454c1.37499.77083 2.06249,1.78385 2.0625,3.03906-1e-005,1.05729-.31772,1.8763-.95313,2.45703s-1.50782.87109-2.61719.87109c-2.3125,0-3.46875-1.10937-3.46875-3.32812 0-.64062.19792-1.27083.59375-1.89063s.88542-1.05468 1.46875-1.30468zm1.91407-.48438c.70832-.66666 1.06249-1.35676 1.0625-2.07031-1e-005-.42708-.14194-.76692-.42579-1.01953s-.65234-.3789-1.10546-.37891c-1.02084,1e-005-1.53126.47136-1.53125,1.41406-1e-005,.69793.66666,1.38282 2,2.05469zm-.69532,1.16406c-1.14583.6198-1.71875,1.45834-1.71875,2.51563 0,.56771.17708,1.04297.53125,1.42578s.8125.57422 1.375.57422c.58333,0 1.0638-.1875 1.44141-.5625s.5664-.85417.56641-1.4375c-1e-005-.42187-.13022-.81901-.39063-1.19141s-.86198-.8138-1.80469-1.32422z" fill="#28170b"/>
  <path d="m678.22 156.47v0.64843c-1.0312 1.4896-1.5469 3.6641-1.5469 6.5234-1e-5 3.3958 0.51562 5.6875 1.5469 6.875v0.82031c-1.0521-0.73437-1.8685-1.7878-2.4492-3.1602s-0.87109-2.8893-0.87109-4.5508c0-1.4167 0.33073-2.8476 0.99219-4.293s1.4375-2.3997 2.3281-2.8633zm-1.7734 31.719-0.75781-0.83594c0.45312-0.18229 1.1159-0.79688 1.9883-1.8438s1.3529-1.8542 1.4414-2.4219c-0.42709 0.41147-1.0286 0.61719-1.8047 0.61719-1.0104 0-1.8203-0.32291-2.4297-0.96875s-0.91406-1.5338-0.91406-2.6641c0-1.1198 0.3138-2.0208 0.94141-2.7031s1.4154-1.0234 2.3633-1.0234c2.5104 1e-5 3.7656 1.6641 3.7656 4.9922 0 1.3854-0.49089 2.8034-1.4726 4.2539s-2.0221 2.3164-3.1211 2.5977zm2.9531-8.0703c-1e-5 -1.6302-0.66928-2.4453-2.0078-2.4453-0.56251 1e-5 -1.0065 0.21225-1.332 0.63672s-0.48828 0.98569-0.48828 1.6836c0 0.72397 0.17188 1.3021 0.51563 1.7344s0.78645 0.64844 1.3281 0.64844c1.3229 0 1.9844-0.7526 1.9844-2.2578z" fill="#28170b"/>
  <path d="m735.15 171.34v-0.82031c1.0312-1.1875 1.5469-3.4792 1.5469-6.875 0-2.8594-0.51563-5.0338-1.5469-6.5234v-0.64844c0.89063 0.46355 1.6667 1.418 2.3281 2.8633s0.99218 2.8763 0.99219 4.293c-1e-5 1.6615-0.29037 3.1784-0.8711 4.5508s-1.3971 2.4258-2.4492 3.1602zm-1.0078 10.586c0-1.6458 0.33333-2.987 1-4.0234s1.6042-1.5547 2.8125-1.5547c1.1979 1e-5 2.0976 0.4323 2.6992 1.2969s0.90234 2.375 0.90234 4.5312c0 1.8542-0.31511 3.3138-0.94531 4.3789s-1.5521 1.5977-2.7656 1.5977-2.1341-0.42969-2.7617-1.2891-0.94141-2.5052-0.94141-4.9375zm1.5625 0.14062c0 3.1719 0.67708 4.7578 2.0312 4.7578 0.77604 1e-5 1.3464-0.35156 1.7109-1.0547s0.54687-1.9349 0.54687-3.6953c0-1.2135-0.07032-2.1042-0.21093-2.6719s-0.3672-0.99739-0.67969-1.2891-0.70834-0.43749-1.1875-0.4375c-1.474 1e-5 -2.2109 1.4636-2.2109 4.3906z" fill="#28170b"/>
  <path d="m789.81 162.91v-1.0078h8.4766v1.0078h-8.4766zm1.3047 14.062v-1.3672h3.3438v1.3672h-3.3438z" fill="#28170b"/>
  <path d="m852.44 161.04h2.7266v1.1016h-2.7266v2.6953h-1.1016v-2.6953h-2.7188v-1.1016h2.7188v-2.6797h1.1016v2.6797zm2.7266 18.672v1.1016h-6.5469v-1.1016h6.5469zm0 2.6562v1.1016h-6.5469v-1.1016h6.5469z" fill="#28170b"/>
  <path d="m908.65503,172.41859h-3.26563v-11.44531c1.39063-.06769 2.39323-.10155 3.00782-.10156 1.1302,1e-005 2.0052.2435 2.625.73047s.92968,1.1836.92968,2.08984c0,.53126-.19792,1.01563-.59375,1.45313s-.83334.71094-1.3125.82031c.90625.21876 1.5664.58073 1.98047,1.08594s.62109,1.19271.6211,2.0625c-1e-005,1.00521-.3685,1.80729-1.10547,2.40625s-1.69923.89843-2.88672.89843zm-1.70313-10.19531v3.28906c.32813.03126.73438.04689 1.21875.04688 1.47917,1e-005 2.21875-.60156 2.21875-1.80469 0-1.05728-.67969-1.58593-2.03906-1.58594-.52084,1e-005-.98698.01824-1.39844.05469zm0,4.5v4.36719c.53646.05208.94792.07813 1.23438.07812 .97916,1e-005 1.694-.18359 2.14453-.55078s.67578-.95182.67578-1.7539c0-.74479-.21485-1.29427-.64453-1.64844s-1.14714-.53124-2.15234-.53125l-1.25782.03906zm12.10938,4.73438c-.59376.74479-1.50261,1.11718-2.72656,1.11718-.65626,0-1.22527-.23828-1.70703-.71484s-.72266-1.06901-.72266-1.77734c0-.84896.37109-1.56641 1.11328-2.15235s1.6888-.8789 2.83984-.8789c.3125,0 .66667.06771 1.0625.20312 0-1.35416-.60417-2.03124-1.8125-2.03125-.92708,1e-005-1.64062.25001-2.14062.75l-.625-1.24219c.28125-.22915.67057-.42577 1.16797-.58984s.97265-.24608 1.42578-.24609c1.21354,1e-005 2.09505.27605 2.64453.82812s.82421,1.4297.82422,2.63281v3c-1e-005,.73438.21874,1.22396.65625,1.46875v.74219c-.60417,0-1.056-.08594-1.35547-.25781s-.51433-.45573-.64453-.85156zm-.14063-3.14844c-.46875-.10416-.79688-.15625-.98437-.15625-.75,0-1.36198.19271-1.83594.57812s-.71094.84115-.71094,1.36719c0,.86979.51302,1.30469 1.53907,1.30469 .74999,0 1.41405-.35677 1.99218-1.07031v-2.02344zm10.13282-3.57813-.73438,1.04688c-.15105-.15104-.41797-.29426-.80078-.42969s-.75912-.20312-1.12891-.20312c-.80729,0-1.44792.28256-1.92187.84765s-.71094,1.33985-.71094,2.32422 .24219,1.72526.72656,2.23828 1.15625.76954 2.01563.76953c.66666,1e-005 1.33853-.25781 2.01562-.77343l.58594,1.25c-.79688.51562-1.78386.77343-2.96094.77343-1.14062,0-2.08333-.38281-2.82812-1.14843s-1.11719-1.80208-1.11719-3.10938c0-1.33333.38672-2.40364 1.16016-3.21094s1.83203-1.21092 3.17578-1.21093c.43229,1e-005 .90104.09115 1.40625.27343s.8776.3698 1.11719.5625zm7.03125,7.6875-2.625-4.1875-1.29688,1.33594v2.85156h-1.48437v-11.79687h1.48437v7.32031l3.20313-3.89062h1.73437l-2.67969,3.17968 3.27344,5.1875h-1.60937zm2.10937-.5 .52344-1.40625c.82812.54167 1.49479.81251 2,.8125 .91666,1e-005 1.37499-.38541 1.375-1.15625-1e-005-.55208-.44271-1.02603-1.32813-1.42187-.68229-.3125-1.14192-.54948-1.3789-.71094s-.44271-.34505-.61719-.55078-.30469-.42447-.39062-.65625-.12891-.48046-.12891-.74609c0-.6875.25-1.22395.75-1.60938s1.15364-.57811 1.96094-.57812c.60937,1e-005 1.3776.19271 2.30468.57812l-.42187,1.375c-.58855-.46874-1.17969-.70312-1.77344-.70312-.35417,0-.65234.08334-.89453.25s-.36328.37761-.36328.63281c0,.53646.30468.94271.91406,1.21875l1.0625.48437c.65104.29688 1.125.63543 1.42188,1.01563s.4453.85677.44531,1.42969c-1e-005,.75-.26303,1.33724-.78906,1.76172s-1.25522.63671-2.1875.63671c-.88021,0-1.70834-.21875-2.48438-.65625zm8.5.03907v3.74218h-1.48437v-11.64843h1.48437v.6875c.5625-.56249 1.24219-.84374 2.03906-.84375 1.1875,1e-005 2.11198.3698 2.77344,1.10937s.99218,1.82292.99219,3.25c-1e-005,1.27084-.33334,2.3086-1,3.11328s-1.63021,1.20703-2.89063,1.20703c-.35417,0-.73307-.0625-1.13671-.1875s-.66277-.26822-.77735-.42968zm0-6.10157v4.875c.09375.14063.29167.27475.59375.40235s.59635.19141.88281.1914c1.84375,1e-005 2.76562-1.04166 2.76563-3.125-1e-005-1.05728-.21876-1.83072-.65625-2.32031s-1.13803-.73437-2.10156-.73437c-.20834,0-.46355.07292-.76563.21875s-.54167.3099-.71875.49218zm12.14844,5.60157c-.59376.74479-1.50261,1.11718-2.72656,1.11718-.65626,0-1.22527-.23828-1.70703-.71484s-.72266-1.06901-.72266-1.77734c0-.84896.37109-1.56641 1.11328-2.15235s1.6888-.8789 2.83984-.8789c.3125,0 .66667.06771 1.0625.20312 0-1.35416-.60417-2.03124-1.8125-2.03125-.92708,1e-005-1.64062.25001-2.14062.75l-.625-1.24219c.28125-.22915.67057-.42577 1.16797-.58984s.97265-.24608 1.42578-.24609c1.21354,1e-005 2.09505.27605 2.64453.82812s.82421,1.4297.82422,2.63281v3c-1e-005,.73438.21874,1.22396.65625,1.46875v.74219c-.60417,0-1.056-.08594-1.35547-.25781s-.51433-.45573-.64453-.85156zm-.14063-3.14844c-.46875-.10416-.79688-.15625-.98437-.15625-.75,0-1.36198.19271-1.83594.57812s-.71094.84115-.71094,1.36719c0,.86979.51302,1.30469 1.53907,1.30469 .74999,0 1.41405-.35677 1.99218-1.07031v-2.02344zm10.13282-3.57813-.73438,1.04688c-.15105-.15104-.41797-.29426-.80078-.42969s-.75912-.20312-1.12891-.20312c-.80729,0-1.44792.28256-1.92187.84765s-.71094,1.33985-.71094,2.32422 .24219,1.72526.72656,2.23828 1.15625.76954 2.01563.76953c.66666,1e-005 1.33853-.25781 2.01562-.77343l.58594,1.25c-.79688.51562-1.78386.77343-2.96094.77343-1.14062,0-2.08333-.38281-2.82812-1.14843s-1.11719-1.80208-1.11719-3.10938c0-1.33333.38672-2.40364 1.16016-3.21094s1.83203-1.21092 3.17578-1.21093c.43229,1e-005 .90104.09115 1.40625.27343s.8776.3698 1.11719.5625zm8.67187,3.64844h-6.03125c0,.97917.26823,1.73178.80469,2.25781 .47395.45834 1.08333.68751 1.82812.6875 .84896,1e-005 1.55729-.24739 2.125-.74218l.625,1.07031c-.22917.22917-.58073.42708-1.05468.59375-.59376.21875-1.25522.32812-1.98438.32812-1.05208,0-1.94531-.35677-2.67969-1.07031-.8177-.78645-1.22656-1.84375-1.22656-3.17187 0-1.38021.41927-2.48698 1.25781-3.32032 .75-.74478 1.63802-1.11717 2.66407-1.11718 1.1927,1e-005 2.12759.33594 2.80468,1.00781 .65625.64584.98437,1.50261.98438,2.57031-1e-005,.32813-.03907.63021-.11719.90625zm-3.60156-3.23437c-.66146,0-1.21615.21355-1.66406.64062-.42709.40626-.66928.91147-.72657,1.51563h4.63282c-1e-005-.59896-.18751-1.09896-.5625-1.5-.41147-.4375-.97136-.65625-1.67969-.65625z" fill="#28170b"/>
  <path d="m172.01891,223.15564v10.03906h-1.5625v-10.03906h-3.64063v-1.40625h9.00781v1.40625h-3.80468zm9.71875,9.07812c-.59376.7448-1.50261,1.11719-2.72657,1.11719-.65625,0-1.22526-.23828-1.70703-.71484s-.72265-1.06901-.72265-1.77735c0-.84895.37109-1.5664 1.11328-2.15234s1.6888-.8789 2.83984-.87891c.3125,1e-005 .66666.06772 1.0625.20313-1e-005-1.35416-.60417-2.03124-1.8125-2.03125-.92709,1e-005-1.64063.25001-2.14062.75l-.625-1.24219c.28124-.22916.67057-.42577 1.16796-.58984s.97266-.24609 1.42579-.2461c1.21353,1e-005 2.09504.27605 2.64453.82813s.82421,1.42969.82422,2.63281v3c-1e-005,.73438.21874,1.22396.65625,1.46875v.74219c-.60418,0-1.056-.08594-1.35547-.25781s-.51433-.45573-.64453-.85157zm-.14063-3.14843c-.46875-.10417-.79688-.15625-.98437-.15625-.75001,0-1.36199.19271-1.83594.57812s-.71094.84115-.71094,1.36719c0,.86979.51302,1.30469 1.53906,1.30469 .75,0 1.41406-.35677 1.99219-1.07032v-2.02343zm5.08594,3.50781-.52344.75781h-.74219v-11.95312h1.48438v4.04687c.14062-.1927.40494-.36978.79297-.53125s.76952-.24218 1.14453-.24219c1.14583,1e-005 2.07421.39585 2.78515,1.1875s1.0664,1.79168 1.06641,3c-1e-005,1.39584-.35678,2.4935-1.07031,3.29297s-1.67969,1.19922-2.89844,1.19922c-.39584,0-.78516-.07422-1.16797-.22265s-.67318-.32683-.87109-.53516zm.21875-6.01563v4.82813c0,.08333.18489.22005.55469.41016s.65103.28515.84375.28515c1.01041,0 1.73436-.24218 2.17187-.72656s.65624-1.29687.65625-2.4375c-1e-005-.94791-.25521-1.68749-.76562-2.21875s-1.19793-.79687-2.0625-.79688c-.1823,1e-005-.43621.07814-.76172.23438s-.53777.29688-.63672.42187z" fill="#28170b"/>
  <path d="m260.39 233.66-0.23438 1.5234c-2.7292-1e-5 -4.5182-0.75782-5.3672-2.2734-0.16147 0.06771-0.50782 0.10156-1.0391 0.10156-1.4427 0-2.5716-0.5625-3.3867-1.6875s-1.2226-2.5677-1.2226-4.3281c0-1.651 0.41406-3.0352 1.2422-4.1524s1.9505-1.6758 3.3672-1.6758c1.5885 1e-5 2.806 0.51303 3.6524 1.5391s1.2695 2.4557 1.2695 4.2891c-1e-5 2.6302-0.78647 4.4349-2.3594 5.4141 0.5677 0.83333 1.5208 1.25 2.8594 1.25h1.2188zm-6.6406-11.086c-0.96875 1e-5 -1.7057 0.39585-2.2109 1.1875s-0.75782 1.8698-0.75782 3.2344c0 1.3125 0.25911 2.4088 0.77735 3.2891s1.2487 1.3203 2.1914 1.3203c1.0729 0 1.888-0.40755 2.4453-1.2226s0.83592-1.944 0.83593-3.3867c-1e-5 -2.9479-1.0938-4.4219-3.2812-4.4219z" fill="#28170b"/>
  <path d="m316.11 233.44h-0.49219l-2.7266-7.8906-2.5469 7.8906h-0.49219l-3.6094-11.602h1.625l2.2969 7.9922 2.5156-7.9922h0.54687l2.4844 7.9766 2.3359-7.9766h1.625l-3.5625 11.602z" fill="#28170b"/>
  <path d="m363.34 223.25v3.1797h3.7812v1.3281h-3.7812v4.125h5.1875v1.4062h-6.75v-11.445h6.8359v1.4062h-5.2734z" fill="#28170b"/>
  <path d="m427.81 233.29-3.0547-4.9141c-0.34896 0-0.90104-0.02604-1.6562-0.07813v4.9922h-1.5625v-11.445l1.2148-0.05859c0.7526-0.03906 1.3008-0.05859 1.6445-0.0586 2.75 1e-5 4.125 1.0938 4.125 3.2812-1e-5 0.71876-0.22136 1.3659-0.66406 1.9414s-0.96876 0.9336-1.5781 1.0742l3.3203 5.2656h-1.7891zm-4.7109-10.039v3.7188c0.375 0.05209 0.73958 0.07813 1.0938 0.07812 0.9375 1e-5 1.6198-0.15103 2.0469-0.45312s0.64062-0.84114 0.64062-1.6172c0-0.64061-0.22917-1.1016-0.6875-1.3828s-1.1823-0.42187-2.1719-0.42188c-0.15626 1e-5 -0.46355 0.02606-0.92188 0.07813z" fill="#28170b"/>
  <path d="m476.16 223.25v10.039h-1.5625v-10.039h-3.6406v-1.4062h9.0078v1.4062h-3.8047z" fill="#28170b"/>
  <path d="m536.71 228.16v5.125h-1.5625v-5.125l-3.6875-6.3203h1.6094l2.8516 5 2.8516-5h1.6094l-3.6719 6.3203z" fill="#28170b"/>
  <path d="m586.11 221.75h1.5625v7.8359c-1e-5 0.69792 0.22135 1.2721 0.66406 1.7227s1.0286 0.67578 1.7578 0.67578c0.77083 0 1.3776-0.21875 1.8203-0.65625s0.66406-1.0312 0.66407-1.7812v-7.7969h1.5625v7.9609c-1e-5 1.1562-0.36069 2.0586-1.082 2.707s-1.7044 0.97266-2.9492 0.97266c-1.2813 0-2.2682-0.31771-2.9609-0.95313s-1.0391-1.5469-1.0391-2.7344v-7.9531z" fill="#28170b"/>
  <path d="m651.03 233.29v-11.445h1.5625v11.445h-1.5625z" fill="#28170b"/>
  <path d="m700.7 227.47c0-1.6562 0.41537-3.0417 1.2461-4.1562s1.9518-1.6719 3.3633-1.6719c1.5885 2e-5 2.806 0.51304 3.6523 1.5391s1.2695 2.4557 1.2695 4.2891c-1e-5 1.8802-0.42448 3.3529-1.2734 4.418s-2.0651 1.5976-3.6484 1.5976c-1.4427 0-2.5716-0.56249-3.3867-1.6875-0.81511-1.125-1.2227-2.5677-1.2227-4.3281zm1.6406 0c0 1.3125 0.25911 2.4089 0.77734 3.2891s1.2487 1.3203 2.1914 1.3203c1.0677 1e-5 1.8815-0.40364 2.4414-1.2109s0.83983-1.9401 0.83984-3.3984c-1e-5 -2.9479-1.0938-4.4219-3.2812-4.4219-0.96876 1e-5 -1.7057 0.39585-2.2109 1.1875s-0.75781 1.8698-0.75781 3.2344z" fill="#28170b"/>
  <path d="m761.46 228.88v4.4062h-1.5625v-11.445c1.1823-0.05207 1.8958-0.07811 2.1406-0.07813 3.3229 2e-5 4.9844 1.112 4.9844 3.3359-1e-5 2.5729-1.4688 3.8594-4.4062 3.8594-0.17709 0-0.5625-0.02604-1.1562-0.07813zm0-5.6328v4.2266l1.0469 0.07813c1.9375 0 2.9062-0.76302 2.9062-2.2891 0-1.3958-1.0339-2.0937-3.1016-2.0938-0.20833 1e-5 -0.49219 0.02606-0.85156 0.07813z" fill="#28170b"/>
  <path d="m822.6814,229.62634c-.89063,0-1.62761-.21354-2.21094-.64062s-.875-.98959-.875-1.6875c0-.36459.09635-.92188.28906-1.67188s.28906-1.32031.28906-1.71093c0-1.03125-.54427-1.58333-1.63281-1.65625v-.65625c.51563-.04167.91667-.22266 1.20313-.54297s.42968-.73567.42968-1.2461c0-.35416-.09635-.85806-.28906-1.51172s-.28906-1.13931-.28906-1.45703c0-.66665.29036-1.20572.87109-1.61718s1.29557-.61718 2.14453-.61719h1.15625v1.03906h-1.36718c-.85417,1e-005-1.28126.47918-1.28125,1.4375-1e-005,.33855.08202.77345.24609,1.30469s.24609.95573.24609,1.27344c0,.82292-.58594,1.57292-1.75781,2.25 .54687.22396.97656.51562 1.28906.875s.46875.71875.46875,1.07812c0,.33854-.08203.80729-.24609,1.40625s-.2461,1.09115-.24609,1.47656c-1e-005,1.1875.68489,1.78125 2.05468,1.78125h.59375v1.09375h-1.08593zm-2.85938,20v-15.07812h3.61719v1.32812h-2.05469v12.42188h2.05469v1.32812h-3.61719z" fill="#28170b"/>
  <path d="m878.18036,229.05408v-1.09375h.59375c1.36979-1e-005 2.05468-.59375 2.05469-1.78125-1e-005-.38542-.08204-.87761-.2461-1.47657s-.24609-1.0677-.24609-1.40625c0-.35937.15625-.71874.46875-1.07812s.74218-.65104 1.28906-.875c-1.17188-.67708-1.75781-1.42708-1.75781-2.25 0-.3177.08203-.74218.24609-1.27344s.24609-.96613.2461-1.30469c-1e-005-.95832-.42709-1.43748-1.28125-1.4375h-1.36719v-1.03906h1.15625c.84895,1e-005 1.5638.20574 2.14453.61719s.87109.95053.87109,1.61719c0,.31771-.09635.80339-.28906,1.45703s-.28907,1.15756-.28906,1.51172c-1e-005,.51042.14322.92578.42969,1.24609s.68749.50131 1.20312.54297v.65625c-1.08854.07292-1.63282.625-1.63281,1.65625-1e-005,.38542.09635.94922.28906,1.69141s.28906,1.30598.28906,1.6914c0,.69792-.29167,1.26042-.875,1.6875s-1.32031.64062-2.21093.64063h-1.08594zm4,20h-3.61719v-1.32813h2.05469v-12.42187h-2.05469v-1.32813h3.61719v15.07813z" fill="#28170b"/>
  <path d="m941.17 229.44v-13.133h1.1406v13.133h-1.1406zm0.39062 17.844-4.0234-11.492h1.1094l4.0312 11.492h-1.1172z" fill="#28170b"/>
  <path d="m172.12126,274.12476-.52344,1.33593c-.5-.36457-1.28646-.54686-2.35937-.54687-1.00521,1e-005-1.8112.4323-2.41797,1.29687s-.91016,1.97918-.91016,3.34375c0,1.30209.3112,2.35808.9336,3.16797s1.42577,1.21485 2.41015,1.21485c1.07291,0 1.89843-.38021 2.47657-1.14063l.85937,1.19531c-.90626.90105-2.07292,1.35157-3.5,1.35157-1.49479,0-2.67188-.53907-3.53125-1.61719s-1.28906-2.5-1.28906-4.26563c0-1.70832.45833-3.12759 1.375-4.25781s2.10156-1.6953 3.55469-1.69531c1.24478,1e-005 2.21874.20574 2.92187.61719zm6.86719,10.0625c-.59376.74479-1.50261,1.11718-2.72656,1.11718-.65626,0-1.22527-.23828-1.70703-.71484s-.72266-1.06901-.72266-1.77734c0-.84896.37109-1.56641 1.11328-2.15235s1.6888-.8789 2.83984-.8789c.3125,0 .66667.06771 1.0625.20312 0-1.35416-.60417-2.03124-1.8125-2.03125-.92708,1e-005-1.64062.25001-2.14062.75l-.625-1.24219c.28125-.22916.67057-.42577 1.16797-.58984s.97265-.24609 1.42578-.24609c1.21354,0 2.09505.27605 2.64453.82812s.82421,1.42969.82422,2.63281v3c-1e-005,.73438.21874,1.22396.65625,1.46875v.74219c-.60417,0-1.056-.08594-1.35547-.25781s-.51433-.45573-.64453-.85156zm-.14063-3.14844c-.46875-.10416-.79688-.15625-.98437-.15625-.75,0-1.36198.19271-1.83594.57812s-.71094.84115-.71094,1.36719c0,.86979.51302,1.30469 1.53907,1.30469 .74999,0 1.41405-.35677 1.99218-1.07031v-2.02344zm5.30469,3.64844v3.74218h-1.48437v-11.64843h1.48437v.6875c.5625-.5625 1.24219-.84375 2.03906-.84375 1.1875,0 2.11198.3698 2.77344,1.10937s.99218,1.82292.99219,3.25c-1e-005,1.27084-.33334,2.3086-1,3.11328s-1.63021,1.20703-2.89063,1.20703c-.35417,0-.73307-.0625-1.13671-.1875s-.66277-.26823-.77735-.42968zm0-6.10157v4.875c.09375.14063.29167.27474.59375.40235s.59635.1914.88281.1914c1.84375,0 2.76562-1.04166 2.76563-3.125-1e-005-1.05728-.21876-1.83072-.65625-2.32031s-1.13803-.73437-2.10156-.73437c-.20834,0-.46355.07292-.76563.21875s-.54167.3099-.71875.49218zm6.875,6.0625 .52344-1.40625c.82812.54167 1.49479.8125 2,.8125 .91666,0 1.37499-.38541 1.375-1.15625-1e-005-.55208-.44271-1.02604-1.32813-1.42187-.68229-.3125-1.14192-.54948-1.3789-.71094s-.44271-.34505-.61719-.55078-.30469-.42447-.39062-.65625-.12891-.48046-.12891-.74609c0-.6875.25-1.22395.75-1.60938s1.15364-.57812 1.96094-.57812c.60937,0 1.3776.19271 2.30468.57812l-.42187,1.375c-.58855-.46874-1.17969-.70312-1.77344-.70312-.35417,0-.65234.08334-.89453.25s-.36328.37761-.36328.63281c0,.53646.30468.94271.91406,1.21875l1.0625.48437c.65104.29688 1.125.63542 1.42188,1.01563s.4453.85677.44531,1.42969c-1e-005,.75-.26303,1.33724-.78906,1.76171s-1.25522.63672-2.1875.63672c-.88021,0-1.70834-.21875-2.48438-.65625zm11.94531.5v-11.44531h1.5625v10.03906h5.17188v1.40625h-6.73438zm7.42969-4.20312c0-1.29166.34766-2.33463 1.04297-3.12891s1.61067-1.1914 2.74609-1.1914c1.19792,0 2.1276.38151 2.78907,1.14453s.99218,1.82162.99218,3.17578-.33855,2.41276-1.01562,3.1914-1.59896,1.16797-2.76563,1.16797c-1.19271,0-2.12239-.39323-2.78906-1.17968s-1-1.84636-1-3.17969zm1.5625,0c0,2.09896.74219,3.14844 2.22656,3.14844 .69271,0 1.23568-.28125 1.62891-.84375s.58984-1.33073.58984-2.30469c0-2.07291-.73959-3.10937-2.21875-3.10938-.67708,1e-005-1.21745.27605-1.62109.82813s-.60547,1.3125-.60547,2.28125zm13.89063-3.48438-.73438,1.04688c-.15105-.15104-.41797-.29427-.80078-.42969s-.75912-.20312-1.12891-.20312c-.80729,0-1.44792.28255-1.92187.84765s-.71094,1.33985-.71094,2.32422 .24219,1.72526.72656,2.23828 1.15625.76953 2.01563.76953c.66666,0 1.33853-.25781 2.01562-.77343l.58594,1.25c-.79688.51562-1.78386.77343-2.96094.77343-1.14062,0-2.08333-.38281-2.82812-1.14843s-1.11719-1.80208-1.11719-3.10938c0-1.33333.38672-2.40364 1.16016-3.21094s1.83203-1.21093 3.17578-1.21093c.43229,0 .90104.09115 1.40625.27343s.8776.3698 1.11719.5625zm7.03125,7.6875-2.625-4.1875-1.29688,1.33594v2.85156h-1.48437v-11.79687h1.48437v7.32031l3.20313-3.89062h1.73437l-2.67969,3.17968 3.27344,5.1875h-1.60937z" fill="#28170b"/>
  <path d="m273.42 286.61-0.78906-2.4141h-4.2578l-0.84375 2.4141h-1.75l4.6484-11.602h0.41406l4.3125 11.602h-1.7344zm-2.8594-8.6016-1.7734 5.0391h3.3984l-1.625-5.0391z" fill="#28170b"/>
  <path d="m321.90506,286.01147 .57031-1.4375c.29167.21355.65495.39193 1.08985.53516s.82421.21485 1.16796.21484c.60938,1e-005 1.09896-.16666 1.46875-.5s.55469-.75781.55469-1.27343c0-.38542-.10287-.74349-.30859-1.07422s-.72266-.6914-1.55078-1.08203l-.92188-.42969c-.78125-.36458-1.32682-.79687-1.63672-1.29688s-.46484-1.10155-.46484-1.80468c0-.85416.30208-1.56249.90625-2.125s1.38021-.84374 2.32812-.84375c1.26562,1e-005 2.14583.20574 2.64063.61718l-.46094,1.35938c-.20834-.15103-.52604-.29687-.95312-.4375s-.82292-.21093-1.1875-.21094c-.53126,1e-005-.94922.15105-1.25391.45313s-.45703.69011-.45703,1.16406c0,.29167.05469.5573.16406.79687s.26172.44012.45703.60157 .59505.38802 1.19922.67968l.9375.44532c.78125.36979 1.32942.8112 1.64453,1.32422s.47265,1.16536.47266,1.95703c-1e-005,.85937-.34506,1.58854-1.03516,2.1875s-1.61328.89843-2.76953.89843c-1.01562,0-1.88281-.23958-2.60156-.71875z" fill="#28170b"/>
  <path d="m379.33 286.57h-2.3047v-11.445c1.4687-0.05207 2.4088-0.07811 2.8203-0.07812 1.599 1e-5 2.8646 0.48569 3.7969 1.457s1.3984 2.2643 1.3984 3.8789c-1e-5 4.125-1.9036 6.1875-5.7109 6.1875zm-0.74218-10.039v8.5547c0.34895 0.05208 0.78124 0.07813 1.2969 0.07812 1.0938 1e-5 1.9531-0.41015 2.5781-1.2305 0.62499-0.82031 0.93749-1.9596 0.9375-3.418-1e-5 -2.7083-1.2162-4.0625-3.6484-4.0625-0.14584 1e-5 -0.53386 0.02605-1.1641 0.07812z" fill="#28170b"/>
  <path d="m435.12 276.5v3.1797h4.0234v1.3281h-4.0234v5.5312h-1.5625v-11.445h7.0703v1.4062h-5.5078z" fill="#28170b"/>
  <path d="m496.06 275.89-0.64844 1.2891c-0.78646-0.58333-1.5573-0.87499-2.3125-0.875-1.1979 1e-5 -2.1432 0.42188-2.8359 1.2656s-1.0391 1.961-1.0391 3.3516c0 1.3229 0.33984 2.388 1.0195 3.1953s1.6055 1.2109 2.7774 1.2109c0.83332 1e-5 1.5078-0.24999 2.0234-0.75v-2.6797h-1.5859v-1.3281h3.1484v4.9844c-0.41667 0.35416-0.9974 0.63932-1.7422 0.85547s-1.4688 0.32421-2.1719 0.32421c-1.5781 0-2.8242-0.53515-3.7383-1.6055s-1.3711-2.4935-1.3711-4.2695c0-1.7708 0.5013-3.207 1.5039-4.3086s2.3555-1.6523 4.0586-1.6523c1.1927 1e-5 2.164 0.33074 2.9141 0.99218z" fill="#28170b"/>
  <path d="m556.29 286.53v-5.5312h-5v5.5312h-1.5625v-11.445h1.5625v4.5859h5v-4.5859h1.5625v11.445h-1.5625z" fill="#28170b"/>
  <path d="m602.56 284.17h1.3672c0.125 0.69271 0.53906 1.0391 1.2422 1.0391s1.1888-0.14974 1.4726-0.44922 0.42578-1.1367 0.42578-2.5117v-7.2344h1.5625v7.1719c0 1.5625-0.25261 2.6914-0.75781 3.3867s-1.4036 1.043-2.6953 1.043c-0.74479 0-1.3555-0.22136-1.832-0.66407s-0.73828-1.0364-0.78516-1.7812z" fill="#28170b"/>
  <path d="m668.02 286.53-3.2266-5.2656-1.5234 2.1641v3.1016h-1.5625v-11.445h1.5625v6.2266l4.25-6.2266h1.7422l-3.4219 4.9609 3.9062 6.4844h-1.7266z" fill="#28170b"/>
  <path d="m718.54 286.53v-11.445h1.5625v10.039h5.1719v1.4062h-6.7344z" fill="#28170b"/>
  <path d="m776.66431,273.20679c.32291,1e-005 .59895.11459.82812.34375s.34375.50521.34375.82812-.11459.60027-.34375.83203-.50521.34767-.82812.34766-.59896-.11588-.82813-.34766-.34375-.5091-.34375-.83203 .11458-.59895.34375-.82812 .50521-.34374.82813-.34375zm0,6.32812c.32291,0 .59895.11459.82812.34375s.34375.50521.34375.82813-.11459.60026-.34375.83203-.50521.34765-.82812.34765-.59896-.11588-.82813-.34765-.34375-.50912-.34375-.83203 .11458-.59896.34375-.82813 .50521-.34375.82813-.34375zm0,13.67188c.32291,1e-005 .59895.11459.82812.34375s.34375.50521.34375.82812-.11459.60027-.34375.83203-.50521.34767-.82812.34766-.59896-.11588-.82813-.34766-.34375-.5091-.34375-.83203 .11458-.59895.34375-.82812 .50521-.34374.82813-.34375zm-1.01563,11.35937-.39844-.5625c.89584-.73437 1.34375-1.35937 1.34375-1.875 0-.22916-.07812-.45833-.23437-.6875-.44792-.21354-.67188-.52083-.67188-.92187 0-.27604.10677-.50391.32032-.6836s.48176-.26953.80468-.26953c.28646,0 .54297.125.76954.375s.33984.54167.33984.875c0,.69271-.14454,1.31641-.43359,1.8711s-.90235,1.18098-1.83985,1.8789z" fill="#28170b"/>
  <path d="m834.26 276.11h-1.0391l-0.1875-2.9766h1.4375l-0.21093 2.9766zm2.5781 0h-1.0391l-0.1875-2.9766h1.4375l-0.21094 2.9766zm-2.5781 20h-1.0391l-0.1875-2.9766h1.4375l-0.21093 2.9766z" fill="#28170b"/>
  <path d="m894.8006,274.41772v3.17969h3.78125v1.32813h-3.78125v4.125h5.1875v1.40625h-6.75v-11.44532h6.83594v1.40625h-5.27344zm12.03125,10.03907v-4.86719c-1e-005-.89062-.13412-1.51432-.40235-1.87109s-.71745-.53515-1.34765-.53516c-.33855,1e-005-.69271.10157-1.0625.30469s-.65365.45313-.85156.75v6.21875h-1.48438v-8.36719h1.01563l.46875,1.07812c.48958-.8229 1.28905-1.23436 2.39843-1.23437 1.83333,1e-005 2.75,1.11459 2.75,3.34375v5.17969h-1.48437zm4.13281-7.19532h-.96875v-1.17187h.96875v-1.75l1.48438-.57031v2.32031h2.29687v1.17187h-2.29687v4.15625c-1e-005,.70313.11848,1.20313.35546,1.5s.61849.44532 1.14454.44532c.3802,0 .77343-.09636 1.17968-.28907l.21875,1.30469c-.61459.15625-1.28906.23438-2.02343.23438-.66147,0-1.22006-.2461-1.67579-.73828s-.68359-1.11328-.68359-1.86329v-4.75zm12.85938,3.15625h-6.03125c-1e-005,.97917.26822,1.73178.80468,2.25782 .47396.45833 1.08333.6875 1.82813.6875 .84895,0 1.55728-.2474 2.125-.74219l.625,1.07031c-.22918.22917-.58074.42709-1.05469.59375-.59376.21875-1.25521.32813-1.98437.32813-1.05209,0-1.94532-.35677-2.67969-1.07032-.81771-.78645-1.22656-1.84374-1.22656-3.17187 0-1.3802.41927-2.48697 1.25781-3.32031 .75-.74479 1.63802-1.11718 2.66406-1.11719 1.1927,1e-005 2.1276.33595 2.80469,1.00781 .65624.64584.98436,1.50261.98437,2.57031-1e-005,.32813-.03907.63022-.11718.90625zm-3.60157-3.23437c-.66146,1e-005-1.21615.21355-1.66406.64062-.42709.40626-.66927.91147-.72656,1.51563h4.63281c-1e-005-.59895-.18751-1.09895-.5625-1.5-.41146-.43749-.97136-.65624-1.67969-.65625zm9.82032.33594c-.32293-.22395-.64845-.33593-.97657-.33594-.52604,1e-005-.98568.24219-1.3789.72656s-.58985,1.06772-.58985,1.75v4.79688h-1.48437v-8.36719h1.48437v1.33594c.54167-.99479 1.34635-1.49218 2.41407-1.49219 .26562,1e-005 .64843.04688 1.14843.14062l-.61718,1.44532z" fill="#28170b"/>
  <path d="m171.47354,342.86014 .57031-1.4375c.29167.21354.65495.39193 1.08985.53515s.82421.21485 1.16797.21485c.60937,0 1.09895-.16667 1.46875-.5s.55468-.75781.55468-1.27344c0-.38541-.10287-.74349-.30859-1.07422s-.72266-.6914-1.55078-1.08203l-.92188-.42969c-.78125-.36457-1.32682-.79687-1.63671-1.29687s-.46485-1.10156-.46485-1.80469c0-.85416.30208-1.56249.90625-2.125s1.38021-.84374 2.32813-.84375c1.26562,1e-005 2.14582.20574 2.64062.61719l-.46094,1.35937c-.20834-.15103-.52604-.29686-.95312-.4375s-.82292-.21092-1.1875-.21093c-.53125,1e-005-.94922.15105-1.25391.45312s-.45703.69011-.45703,1.16406c0,.29168.05469.5573.16406.79688s.26172.44011.45704.60156 .59504.38803 1.19921.67969l.9375.44531c.78125.3698 1.32942.8112 1.64454,1.32422s.47264,1.16537.47265,1.95703c-1e-005,.85938-.34506,1.58854-1.03515,2.1875s-1.61329.89844-2.76954.89844c-1.01562,0-1.88281-.23959-2.60156-.71875zm13.24219.52344v-5.25782c-1e-005-.62499-.15365-1.11718-.46094-1.47656s-.73959-.53905-1.29687-.53906c-.35938,1e-005-.72006.10547-1.08203.3164s-.63933.45704-.83204.73829v6.21875h-1.48437v-11.79688h1.48437v4.35156c.19792-.30728.51693-.56379.95704-.76953s.89452-.30858 1.36328-.30859c.88541,1e-005 1.57942.29167 2.08203.875s.7539,1.38021.7539,2.39062v5.25782h-1.48437zm5.125-11.53125c.2552,1e-005 .47265.08985.65234.26953s.26953.39454.26953.64453c0,.25522-.08984.47266-.26953.65234s-.39714.26954-.65234.26953c-.25,1e-005-.46485-.08983-.64453-.26953s-.26954-.39712-.26953-.65234 .08854-.47135.26562-.64844 .39323-.26561.64844-.26562zm-.8125,11.53125v-7.11719h-1.14844v-1.25h2.63281v8.36719h-1.48437zm8.36719-10.46875c-.30209-.10416-.58334-.15624-.84375-.15625-.45313,1e-005-.82683.17188-1.1211.51562s-.44141.77866-.4414,1.30469c-1e-005,.14063.01301.28646.03906.4375h1.70312v1.25h-1.70312v7.11719h-1.48438v-7.11719h-1.21875v-1.25h1.21875c0-1.0677.26302-1.90624.78907-2.51563s1.22135-.91405 2.08593-.91406c.43229,1e-005 .89583.07814 1.39063.23438l-.41406,1.09375zm1.91406,3.27343h-.96875v-1.17187h.96875v-1.75l1.48437-.57031v2.32031h2.29688v1.17187h-2.29688v4.15625c0,.70313.11849,1.20313.35547,1.5s.61849.44532 1.14453.44532c.38021,0 .77344-.09636 1.17969-.28907l.21875,1.30469c-.61459.15625-1.28907.23438-2.02344.23438-.66146,0-1.22005-.2461-1.67578-.73829s-.68359-1.11328-.68359-1.86328v-4.75z" fill="#28170b"/>
  <path d="m292.84 343.23v-0.39063l4.9219-9.6484h-4.8438v-1.4062h6.9922v0.39063l-4.9375 9.6484h5.1094v1.4062h-7.2422z" fill="#28170b"/>
  <path d="m354.7 343.23-2.8438-4.5938-2.625 4.5938h-1.5781l3.375-5.9375-3.1016-5.5156 1.5391 0.00781 2.4453 4.3281 2.6953-4.3281h1.5703l-3.5547 5.5391 3.7344 5.9062h-1.6562z" fill="#28170b"/>
  <path d="m409.65 332.2-0.52344 1.3359c-0.5-0.36458-1.2865-0.54687-2.3594-0.54688-1.0052 1e-5 -1.8112 0.4323-2.418 1.2969s-0.91016 1.9792-0.91016 3.3438c0 1.3021 0.3112 2.3581 0.9336 3.168s1.4258 1.2148 2.4102 1.2148c1.0729 0 1.8984-0.38021 2.4766-1.1406l0.85937 1.1953c-0.90626 0.90104-2.0729 1.3516-3.5 1.3516-1.4948 0-2.6719-0.53906-3.5312-1.6172s-1.2891-2.5-1.2891-4.2656c0-1.7083 0.45833-3.1276 1.375-4.2578s2.1016-1.6953 3.5547-1.6953c1.2448 1e-5 2.2187 0.20574 2.9219 0.61719z" fill="#28170b"/>
  <path d="m461.87 343.31h-0.78906l-4.2656-11.602h1.7344l2.9453 8.4297 2.8359-8.4297h1.6797l-4.1406 11.602z" fill="#28170b"/>
  <path d="m517.75739,343.27811h-3.26563v-11.44532c1.39062-.06769 2.39323-.10155 3.00781-.10156 1.13021,1e-005 2.0052.2435 2.625.73047s.92968,1.1836.92969,2.08984c-1e-005,.53126-.19792,1.01564-.59375,1.45313s-.83334.71094-1.3125.82031c.90624.21876 1.5664.58074 1.98047,1.08594s.62108,1.19271.62109,2.0625c-1e-005,1.00521-.36849,1.80729-1.10547,2.40625s-1.69922.89844-2.88671.89844zm-1.70313-10.19532v3.28907c.32812.03125.73437.04688 1.21875.04687 1.47916,1e-005 2.21874-.60155 2.21875-1.80469-1e-005-1.05728-.67969-1.58592-2.03906-1.58593-.52084,1e-005-.98698.01824-1.39844.05468zm0,4.5v4.36719c.53646.05209.94791.07813 1.23438.07813 .97916,0 1.694-.1836 2.14453-.55078s.67577-.95182.67578-1.75391c-1e-005-.74479-.21485-1.29427-.64453-1.64844s-1.14714-.53124-2.15235-.53125l-1.25781.03906z" fill="#28170b"/>
  <path d="m578.42 343.31-5.9141-8.3672v8.2109h-1.4844v-11.445h0.625l5.7578 7.9141v-7.9141h1.4844v11.602h-0.46875z" fill="#28170b"/>
  <path d="m637.32 343.15-1.3594-7.3516-2.5 7.5078h-0.39062l-2.5703-7.5078-1.3281 7.3516h-1.4844l2.1406-11.445h0.71094l2.7266 8.3516 2.5156-8.3516h0.70312l2.3203 11.445h-1.4844z" fill="#28170b"/>
  <path d="m695.88965,335.55228-5.77344-2.79688v-.96094l5.77344-2.76562v1.25781l-4.46094,1.99219 4.46094,2.01562v1.25782zm-5.19531,24.53906-.39844-.5625c.89583-.73438 1.34375-1.35938 1.34375-1.875 0-.22917-.07813-.45833-.23438-.6875-.44792-.21354-.67187-.52083-.67187-.92188 0-.27604.10677-.5039.32031-.68359s.48177-.26953.80469-.26953c.28645,0 .54296.125.76953.375s.33984.54167.33984.875c0,.69271-.14453,1.3164-.43359,1.87109s-.90235,1.18099-1.83984,1.87891z" fill="#28170b"/>
  <path d="m751.48865,333.11014-5.77344,2.79687v-1.25781l4.46094-2.01562-4.46094-1.99219v-1.25781l5.77344,2.76562v.96094zm-4.17969,22.30469c.32291,0 .59895.11458.82812.34375s.34375.50521.34375.82812-.11458.60026-.34375.83203-.50521.34766-.82812.34766-.59896-.11589-.82813-.34766-.34375-.50911-.34375-.83203 .11459-.59896.34375-.82812 .50521-.34375.82813-.34375z" fill="#28170b"/>
  <path d="m802.96106,335.97733h-1.03125c-.17709-.49479-.26563-.85156-.26563-1.07032 0-.37499.06901-.7578.20704-1.14843s.45051-.85807.9375-1.40235 .81379-.96223.98046-1.2539 .25-.57552.25-.85157c0-.91665-.55469-1.37499-1.66406-1.375-.53125,1e-005-.99479.19012-1.39062.57032l-.57032-1.11719c.52605-.43228 1.3099-.64843 2.35157-.64844 .78124,1e-005 1.43098.22137 1.94922.66406s.77733,1.03387.77734,1.77344c-1e-005,.37501-.06641.73569-.19922,1.08203s-.33724.66537-.61328.95703l-1.14063,1.21875c-.45833.56251-.6875,1.19272-.6875,1.89063 0,.10938.03646.34636.10938.71094zm-.32813,1.15625c.32292,0 .59896.11458.82813.34375s.34375.50521.34375.82812-.11459.60026-.34375.83203-.50521.34766-.82813.34766-.59896-.11589-.82812-.34766-.34375-.50911-.34375-.83203 .11458-.59896.34375-.82812 .50521-.34375.82812-.34375zm.20313,22.19531h-1.25781l4.14843-11.49219h1.24219l-4.13281,11.49219z" fill="#28170b"/>
  <path d="m864.43817,342.86014 .57031-1.4375c.29167.21354.65495.39193 1.08985.53515s.82421.21485 1.16797.21485c.60937,0 1.09895-.16667 1.46875-.5s.55468-.75781.55468-1.27344c0-.38541-.10287-.74349-.30859-1.07422s-.72266-.6914-1.55078-1.08203l-.92188-.42969c-.78125-.36457-1.32682-.79687-1.63671-1.29687s-.46485-1.10156-.46485-1.80469c0-.85416.30208-1.56249.90625-2.125s1.38021-.84374 2.32813-.84375c1.26562,1e-005 2.14582.20574 2.64062.61719l-.46094,1.35937c-.20834-.15103-.52604-.29686-.95312-.4375s-.82292-.21092-1.1875-.21093c-.53125,1e-005-.94922.15105-1.25391.45312s-.45703.69011-.45703,1.16406c0,.29168.05469.5573.16406.79688s.26172.44011.45704.60156 .59504.38803 1.19921.67969l.9375.44531c.78125.3698 1.32942.8112 1.64454,1.32422s.47264,1.16537.47265,1.95703c-1e-005,.85938-.34506,1.58854-1.03515,2.1875s-1.61329.89844-2.76954.89844c-1.01562,0-1.88281-.23959-2.60156-.71875zm13.24219.52344v-5.25782c-1e-005-.62499-.15365-1.11718-.46094-1.47656s-.73959-.53905-1.29687-.53906c-.35938,1e-005-.72006.10547-1.08203.3164s-.63933.45704-.83204.73829v6.21875h-1.48437v-11.79688h1.48437v4.35156c.19792-.30728.51693-.56379.95704-.76953s.89452-.30858 1.36328-.30859c.88541,1e-005 1.57942.29167 2.08203.875s.7539,1.38021.7539,2.39062v5.25782h-1.48437zm5.125-11.53125c.2552,1e-005 .47265.08985.65234.26953s.26953.39454.26953.64453c0,.25522-.08984.47266-.26953.65234s-.39714.26954-.65234.26953c-.25,1e-005-.46485-.08983-.64453-.26953s-.26954-.39712-.26953-.65234 .08854-.47135.26562-.64844 .39323-.26561.64844-.26562zm-.8125,11.53125v-7.11719h-1.14844v-1.25h2.63281v8.36719h-1.48437zm8.36719-10.46875c-.30209-.10416-.58334-.15624-.84375-.15625-.45313,1e-005-.82683.17188-1.1211.51562s-.44141.77866-.4414,1.30469c-1e-005,.14063.01301.28646.03906.4375h1.70312v1.25h-1.70312v7.11719h-1.48438v-7.11719h-1.21875v-1.25h1.21875c0-1.0677.26302-1.90624.78907-2.51563s1.22135-.91405 2.08593-.91406c.43229,1e-005 .89583.07814 1.39063.23438l-.41406,1.09375zm1.91406,3.27343h-.96875v-1.17187h.96875v-1.75l1.48437-.57031v2.32031h2.29688v1.17187h-2.29688v4.15625c0,.70313.11849,1.20313.35547,1.5s.61849.44532 1.14453.44532c.38021,0 .77344-.09636 1.17969-.28907l.21875,1.30469c-.61459.15625-1.28907.23438-2.02344.23438-.66146,0-1.22005-.2461-1.67578-.73829s-.68359-1.11328-.68359-1.86328v-4.75z" fill="#28170b"/>
  <path d="m881.25 391.79-0.52343 1.3359c-0.50001-0.36457-1.2865-0.54686-2.3594-0.54687-1.0052 1e-5 -1.8112 0.4323-2.418 1.2969s-0.91016 1.9792-0.91015 3.3438c-1e-5 1.3021 0.31119 2.3581 0.93359 3.168s1.4258 1.2148 2.4102 1.2148c1.0729 0 1.8984-0.38021 2.4766-1.1406l0.85937 1.1953c-0.90625 0.90105-2.0729 1.3516-3.5 1.3516-1.4948 0-2.6719-0.53906-3.5312-1.6172s-1.2891-2.5-1.2891-4.2656c0-1.7083 0.45833-3.1276 1.375-4.2578s2.1016-1.6953 3.5547-1.6953c1.2448 1e-5 2.2187 0.20574 2.9219 0.61719zm2.6719 3.8281h-0.96875v-1.1719h0.96875v-1.75l1.4844-0.57032v2.3203h2.2969v1.1719h-2.2969v4.1562c0 0.70313 0.11849 1.2031 0.35547 1.5s0.61849 0.44532 1.1445 0.44531c0.38021 1e-5 0.77344-0.09635 1.1797-0.28906l0.21875 1.3047c-0.61459 0.15625-1.2891 0.23437-2.0234 0.23437-0.66146 0-1.22-0.24609-1.6758-0.73828s-0.68359-1.1133-0.68359-1.8633v-4.75zm10.359 0.25781c-0.32292-0.22395-0.64844-0.33593-0.97656-0.33593-0.52605 0-0.98568 0.24219-1.3789 0.72656s-0.58984 1.0677-0.58984 1.75v4.7969h-1.4844v-8.3672h1.4844v1.3359c0.54166-0.99478 1.3464-1.4922 2.4141-1.4922 0.26562 1e-5 0.64843 0.04688 1.1484 0.14062l-0.61719 1.4453zm1.7891 4.5703v-9.4297h1.4844v9.1797c0 0.44792 0.1289 0.80078 0.38672 1.0586s0.59505 0.38672 1.0117 0.38672v1.3281c-1.9219 0-2.8828-0.84114-2.8828-2.5234z" fill="#28170b"/>
  <path d="m324.82 402.83-0.78906-2.4141h-4.2578l-0.84375 2.4141h-1.75l4.6484-11.602h0.41406l4.3125 11.602h-1.7344zm-2.8594-8.6016-1.7734 5.0391h3.3984l-1.625-5.0391zm5.7969 6.2344v-9.4297h1.4844v9.1797c0 0.44792 0.1289 0.80078 0.38672 1.0586s0.59505 0.38672 1.0117 0.38672v1.3281c-1.9219 0-2.8828-0.84115-2.8828-2.5234zm5.1328-4.8281h-0.96875v-1.1719h0.96875v-1.75l1.4844-0.57031v2.3203h2.2969v1.1719h-2.2969v4.1562c0 0.70313 0.11849 1.2031 0.35547 1.5s0.61848 0.44532 1.1445 0.44532c0.3802 0 0.77343-0.09636 1.1797-0.28907l0.21875 1.3047c-0.61459 0.15625-1.2891 0.23438-2.0234 0.23438-0.66146 0-1.22-0.2461-1.6758-0.73829s-0.6836-1.1133-0.68359-1.8633v-4.75z" fill="#28170b"/>
  <path d="m740.01 402.83-0.78907-2.4141h-4.2578l-0.84375 2.4141h-1.75l4.6484-11.602h0.41406l4.3125 11.602h-1.7344zm-2.8594-8.6016-1.7734 5.0391h3.3984l-1.625-5.0391zm5.7969 6.2344v-9.4297h1.4844v9.1797c0 0.44792 0.1289 0.80078 0.38672 1.0586s0.59505 0.38672 1.0117 0.38672v1.3281c-1.9219 0-2.8828-0.84115-2.8828-2.5234zm5.1328-4.8281h-0.96875v-1.1719h0.96875v-1.75l1.4844-0.57031v2.3203h2.2969v1.1719h-2.2969v4.1562c0 0.70313 0.11849 1.2031 0.35547 1.5s0.61849 0.44532 1.1445 0.44532c0.38021 0 0.77344-0.09636 1.1797-0.28907l0.21875 1.3047c-0.61459 0.15625-1.2891 0.23438-2.0234 0.23438-0.66146 0-1.22-0.2461-1.6758-0.73829s-0.68359-1.1133-0.68359-1.8633v-4.75z" fill="#28170b"/>
  <path d="m178.18 391.79-0.52344 1.3359c-0.50001-0.36457-1.2865-0.54686-2.3594-0.54687-1.0052 1e-5 -1.8112 0.4323-2.418 1.2969s-0.91016 1.9792-0.91016 3.3438c0 1.3021 0.3112 2.3581 0.9336 3.168s1.4258 1.2148 2.4102 1.2148c1.0729 0 1.8984-0.38021 2.4766-1.1406l0.85938 1.1953c-0.90626 0.90105-2.0729 1.3516-3.5 1.3516-1.4948 0-2.6719-0.53906-3.5312-1.6172s-1.2891-2.5-1.2891-4.2656c0-1.7083 0.45833-3.1276 1.375-4.2578s2.1016-1.6953 3.5547-1.6953c1.2448 1e-5 2.2188 0.20574 2.9219 0.61719zm2.6719 3.8281h-0.96875v-1.1719h0.96875v-1.75l1.4844-0.57032v2.3203h2.2969v1.1719h-2.2969v4.1562c0 0.70313 0.11849 1.2031 0.35547 1.5s0.61848 0.44532 1.1445 0.44531c0.3802 1e-5 0.77343-0.09635 1.1797-0.28906l0.21875 1.3047c-0.61459 0.15625-1.2891 0.23437-2.0234 0.23437-0.66146 0-1.22-0.24609-1.6758-0.73828s-0.6836-1.1133-0.6836-1.8633v-4.75zm10.359 0.25781c-0.32292-0.22395-0.64844-0.33593-0.97656-0.33593-0.52605 0-0.98568 0.24219-1.3789 0.72656s-0.58985 1.0677-0.58984 1.75v4.7969h-1.4844v-8.3672h1.4844v1.3359c0.54166-0.99478 1.3464-1.4922 2.4141-1.4922 0.26562 1e-5 0.64843 0.04688 1.1484 0.14062l-0.61719 1.4453zm1.7891 4.5703v-9.4297h1.4844v9.1797c-1e-5 0.44792 0.1289 0.80078 0.38672 1.0586s0.59504 0.38672 1.0117 0.38672v1.3281c-1.9219 0-2.8828-0.84114-2.8828-2.5234z" fill="#28170b"/>
  <switch transform="matrix(.31879 0 0 .31879 248.4 385.27)" font-family="Trebuchet MS" font-size="50.19">
   <g font-family="Trebuchet MS" font-size="50.19">
    <g font-family="Trebuchet MS" font-size="50.19">
     <g font-family="Trebuchet MS" font-size="50.19">
      <path d="m18.248 46.904a9.124 9.124 0 1 0 -18.248 0 9.124 9.124 0 1 0 18.248 0" fill="#ff6309"/>
      <path d="m83.672 84.667a9.124 9.124 0 1 0 -18.248 0 9.124 9.124 0 1 0 18.248 0" fill="#ffb515"/>
      <path d="m52.739,24.327c11.361,0 20.787,8.436 22.348,19.373h15.632c-.71-8.594-4.273-16.604-10.23-22.921-3.815,1.943-8.506,1.98-12.491-.32-3.988-2.303-6.302-6.387-6.524-10.667-2.831-.66-5.756-1.002-8.735-1.002-5.704,0-11.216,1.245-16.229,3.606l7.826,13.555c2.599-1.046 5.435-1.624 8.403-1.624z" fill="#ff6309"/>
      <path d="m75.088,50.098c-1.557,10.941-10.985,19.382-22.349,19.382-2.97,0-5.807-.578-8.406-1.626l-7.827,13.556c5.012,2.362 10.526,3.608 16.232,3.608 2.981,0 5.91-.344 8.742-1.004 .218-4.285 2.533-8.376 6.524-10.68s8.679-2.265 12.495-.318c5.952-6.318 9.511-14.327 10.219-22.918h-15.63z" fill="#c90016"/>
      <path d="m30.163 46.904c0-7.193 3.381-13.61 8.636-17.747l-7.824-13.553c-1.835 1.282-3.571 2.733-5.188 4.349-4.528 4.528-7.775 9.995-9.562 15.962 3.6 2.332 5.984 6.38 5.984 10.989s-2.384 8.657-5.984 10.988c1.787 5.967 5.034 11.434 9.562 15.962 1.616 1.616 3.35 3.065 5.184 4.348l7.825-13.554c-5.254-4.137-8.633-10.554-8.633-17.744z" fill="#ffb515"/>
      <path d="m83.664 9.126a9.124 9.124 0 1 0 -18.248 0 9.124 9.124 0 1 0 18.248 0" fill="#c90016"/>
     </g>
    </g>
   </g>
  </switch>
  <g transform="matrix(.91793 0 0 .91793 66.506 32.514)" stroke="#0b280b">
   <path d="m802.18 388.71h12.783v14.926h-12.783z" fill="none" stroke-width="1.0743"/>
   <path d="m802.09 391.11h12.967v10.11h-12.967z" fill="none" stroke-width=".8905"/>
   <path d="m801.92 394.17h13.29v4.0041h-13.29z" fill="none" stroke-width=".56737"/>
   <path d="m811.75 392.73 0.01112 3.6816-0.00734 3.6923 1.9731-1.1392 2.7468 4.7576 2.2313-1.2882-2.7468-4.7576 2.176-1.2563-3.1828-1.8504-3.2013-1.8398z" fill="#fffcd0" stroke-width=".68138"/>
  </g>
 </g>
</svg>
