<?xml version="1.0" standalone="no"?><!DOCTYPE svg PUBLIC "-//W3C//DTD SVG 1.1//EN" "http://www.w3.org/Graphics/SVG/1.1/DTD/svg11.dtd"><svg t="1712739298566" class="icon" viewBox="0 0 1024 1024" version="1.1" xmlns="http://www.w3.org/2000/svg" p-id="9636" xmlns:xlink="http://www.w3.org/1999/xlink" width="200" height="200"><path d="M893.491806 612.672589l-137.339021-237.338379a47.45454 47.45454 0 0 0-40.952118-23.513807h-274.283955a47.388859 47.388859 0 0 0-40.952118 23.513807L262.724095 612.672589a46.666367 46.666367 0 0 0 0 46.764889l137.33902 237.338379a47.323178 47.323178 0 0 0 40.952119 23.513807h274.283955a47.421699 47.421699 0 0 0 40.952118-23.513807l137.33902-237.338379a46.83057 46.83057 0 0 0-0.098521-46.764889z" fill="#9FD4FF" p-id="9637"></path><path d="M991.356531 474.019948l-209.522465-362.066643a72.249126 72.249126 0 0 0-62.396973-35.861839H300.950451a72.249126 72.249126 0 0 0-62.396973 35.894679L28.998172 473.987108a71.395273 71.395273 0 0 0 0 71.362432L238.487797 907.383342a72.249126 72.249126 0 0 0 62.396973 35.89468h418.486642a72.249126 72.249126 0 0 0 62.396973-35.89468l209.522465-362.033802a71.493794 71.493794 0 0 0 0.065681-71.329592z m-269.292197 402.361951H298.126167l-212.576634-366.500112L298.290369 142.987589 722.491261 143.184632l212.215387 366.303069z" fill="#333333" p-id="9638"></path><path d="M510.144511 342.62506a167.059684 167.059684 0 1 0 167.059684 167.059684 167.256727 167.256727 0 0 0-167.059684-167.059684z m0 266.763478a99.703794 99.703794 0 1 1 99.736635-99.703794 99.835156 99.835156 0 0 1-99.736635 99.703794z" fill="#333333" p-id="9639"></path></svg>