<svg xmlns="http://www.w3.org/2000/svg"  viewBox="0 0 128 128" width="512px" height="512px"><path fill="#fff0b3" d="M67.4,13.9l9.3-5.5c3.5-2,8-0.6,9.6,3.1l4.3,9.9c1,2.2,3.1,3.8,5.5,4l10.8,1c4,0.4,6.8,4.2,5.9,8.2 l-2.3,10.6c-0.5,2.4,0.3,4.9,2.1,6.5l8.1,7.2c3,2.7,3,7.4,0,10.1l-8.1,7.2c-1.8,1.6-2.6,4.1-2.1,6.5l2.3,10.6 c0.9,3.9-1.9,7.8-5.9,8.2l-10.8,1c-2.4,0.2-4.5,1.8-5.5,4l-4.3,9.9c-1.6,3.7-6.1,5.2-9.6,3.1l-9.3-5.5c-2.1-1.2-4.7-1.2-6.8,0 l-9.3,5.5c-3.5,2-8,0.6-9.6-3.1l-4.3-9.9c-1-2.2-3.1-3.8-5.5-4l-10.8-1c-4-0.4-6.8-4.2-5.9-8.2l2.3-10.6c0.5-2.4-0.3-4.9-2.1-6.5 L7.2,69c-3-2.7-3-7.4,0-10.1l8.1-7.2c1.8-1.6,2.6-4.1,2.1-6.5l-2.3-10.6c-0.9-3.9,1.9-7.8,5.9-8.2l10.8-1c2.4-0.2,4.5-1.8,5.5-4 l4.3-9.9c1.6-3.7,6.1-5.2,9.6-3.1l9.3,5.5C62.7,15.2,65.3,15.2,67.4,13.9z"/><path fill="#f2b630" d="M15.1,37.7c-1.4,0-2.6-1-2.9-2.4c-0.6-2.7,0-5.6,1.6-7.8c1.6-2.3,4.2-3.7,6.9-4l5-0.5c1.6-0.2,3.1,1,3.3,2.7 c0.2,1.6-1,3.1-2.7,3.3l-5,0.5c-1.1,0.1-2,0.6-2.7,1.5C18,31.9,17.8,33,18,34c0.4,1.6-0.7,3.2-2.3,3.6 C15.5,37.7,15.3,37.7,15.1,37.7z"/><path fill="#f2b630" d="M80.2,117.5c-0.7,0-1.3-0.2-1.9-0.5l-9.4-5.5c-3-1.8-6.9-1.8-9.9,0c-1.4,0.8-3.3,0.4-4.1-1.1 c-0.8-1.4-0.4-3.3,1.1-4.1c4.8-2.8,11.1-2.8,16,0l7.1,4.2l3.3-7.6c2.3-5.2,7.2-8.8,12.9-9.4l10.8-1c1.6-0.2,3.1,1,3.3,2.7 c0.2,1.6-1,3.1-2.7,3.3l-10.8,1c-3.5,0.3-6.6,2.6-8,5.8l-4.3,9.9C83,116.6,81.6,117.5,80.2,117.5z"/><path fill="#f2b630" d="M108.7,74.7c-0.8,0-1.7-0.3-2.2-1c-1.1-1.2-1-3.1,0.3-4.2l6.2-5.5l-6.2-5.5c-4.3-3.8-6.2-9.6-4.9-15.2 l2.1-9.3c-0.3-0.5-0.5-1.2-0.4-1.8c0.2-1.6,1.6-2.9,3.3-2.7c1.1,0.1,2,0.6,2.7,1.5c0.6,0.9,0.9,1.9,0.6,3l-2.3,10.6 c-0.8,3.4,0.4,7,3,9.4l8.1,7.2c0.8,0.7,1.3,1.7,1.3,2.8c0,1.1-0.4,2.1-1.3,2.8l-8.1,7.2C110.1,74.5,109.4,74.7,108.7,74.7z M114.8,62.3C114.8,62.3,114.8,62.3,114.8,62.3L114.8,62.3z M106.1,35.5L106.1,35.5L106.1,35.5z"/><circle cx="64" cy="64" r="34" fill="#fff"/><path fill="#f2b630" d="M59.4,43.4c-1.4,0-2.7-1-2.9-2.4c-0.3-1.6,0.7-3.2,2.4-3.5c1.7-0.3,3.4-0.5,5.2-0.5c1.7,0,3,1.3,3,3 s-1.3,3-3,3c-1.3,0-2.7,0.1-4,0.4C59.8,43.4,59.6,43.4,59.4,43.4z"/><path fill="#f2b630" d="M47,84c-0.8,0-1.5-0.3-2.1-0.9C39.8,78,37,71.2,37,64c0-5.3,1.5-10.5,4.5-14.9c0.9-1.4,2.8-1.8,4.2-0.8 c1.4,0.9,1.8,2.8,0.8,4.2C44.2,55.9,43,59.9,43,64c0,5.6,2.2,10.9,6.2,14.8c1.2,1.2,1.2,3.1,0,4.2C48.6,83.7,47.8,84,47,84z"/><path fill="#444b54" d="M41.7,119.5c-1.2,0-2.3-0.7-2.8-1.8l-4.3-9.9c-0.5-1.2-1.7-2.1-3.1-2.2l-10.8-1c-2.8-0.3-5.3-1.7-6.9-4 c-1.6-2.3-2.2-5.1-1.6-7.8l2.3-10.6c0.3-1.3-0.2-2.7-1.2-3.6l-8.1-7.2c-2.1-1.8-3.3-4.5-3.3-7.3s1.2-5.4,3.3-7.3l8.1-7.2 c1-0.9,1.5-2.3,1.2-3.6c-0.4-1.6,0.7-3.2,2.3-3.6c1.6-0.4,3.2,0.7,3.6,2.3c0.8,3.4-0.4,7-3,9.4l-8.1,7.2 c-0.8,0.7-1.3,1.7-1.3,2.8s0.4,2.1,1.3,2.8l8.1,7.2c2.6,2.3,3.8,5.9,3,9.4L18,94c-0.2,1.1,0,2.1,0.6,3c0.6,0.9,1.6,1.4,2.7,1.5 l10.8,1c3.5,0.3,6.6,2.6,8,5.8l4.3,9.9c0.7,1.5,0,3.3-1.6,3.9C42.5,119.4,42.1,119.5,41.7,119.5z"/><path fill="#444b54" d="M80.2,123.5c-1.7,0-3.4-0.5-4.9-1.3l-9.3-5.5c-1.2-0.7-2.6-0.7-3.8,0l-9.3,5.5c-1.4,0.8-3.3,0.4-4.1-1.1 c-0.8-1.4-0.4-3.3,1.1-4.1l9.3-5.5c3-1.8,6.8-1.8,9.9,0l9.3,5.5c0.9,0.5,2,0.7,3,0.3c1-0.3,1.8-1.1,2.3-2.1l4.3-9.9 c0.7-1.5,2.4-2.2,3.9-1.6c1.5,0.7,2.2,2.4,1.6,3.9l-4.3,9.9c-1.1,2.6-3.3,4.5-5.9,5.4C82.2,123.3,81.2,123.5,80.2,123.5z"/><path fill="#444b54" d="M107,104.5c-1.5,0-2.8-1.2-3-2.7c-0.2-1.6,1-3.1,2.7-3.3c1.1-0.1,2-0.6,2.7-1.5c0.6-0.9,0.9-1.9,0.6-3 l-2.3-10.6c-0.8-3.4,0.4-7,3-9.4l8.1-7.2c0.8-0.7,1.3-1.7,1.3-2.8s-0.4-2.1-1.3-2.8l-8.1-7.2c-2.6-2.3-3.8-5.9-3-9.4L110,34 c0.2-1.1,0-2.1-0.6-3c-0.6-0.9-1.6-1.4-2.7-1.5c-1.6-0.2-2.9-1.6-2.7-3.3c0.2-1.6,1.6-2.9,3.3-2.7c2.8,0.3,5.3,1.7,6.9,4 c1.6,2.3,2.2,5.1,1.6,7.8l-2.3,10.6c-0.3,1.3,0.2,2.7,1.2,3.6l8.1,7.2c2.1,1.8,3.3,4.5,3.3,7.3s-1.2,5.4-3.3,7.3l-8.1,7.2 c-1,0.9-1.5,2.3-1.2,3.6l2.3,10.6c0.6,2.7,0,5.6-1.6,7.8c-1.6,2.3-4.2,3.7-6.9,4C107.2,104.5,107.1,104.5,107,104.5z"/><path fill="#444b54" d="M90.7,24.5c-1.2,0-2.3-0.7-2.8-1.8l-4.3-9.9c-0.4-1-1.2-1.7-2.3-2.1c-1-0.3-2.1-0.2-3,0.3l-9.3,5.5 c-3,1.8-6.8,1.8-9.9,0L49.7,11c-0.9-0.5-2-0.7-3-0.3c-1,0.3-1.8,1.1-2.3,2.1c-0.7,1.5-2.4,2.2-3.9,1.6c-1.5-0.7-2.2-2.4-1.6-3.9 C40,7.8,42.2,5.8,44.8,5c2.6-0.9,5.5-0.5,7.9,0.9l9.3,5.5c1.2,0.7,2.6,0.7,3.8,0l9.3-5.5c2.4-1.4,5.3-1.7,7.9-0.9 s4.8,2.8,5.9,5.4l4.3,9.9c0.7,1.5,0,3.3-1.6,3.9C91.5,24.4,91.1,24.5,90.7,24.5z"/><path fill="#444b54" d="M124,127c-0.8,0-1.5-0.3-2.1-0.9l-10.6-10.5c-1.2-1.2-1.2-3.1,0-4.2s3.1-1.2,4.2,0l10.6,10.5 c1.2,1.2,1.2,3.1,0,4.2C125.5,126.7,124.8,127,124,127z"/><path fill="#444b54" d="M116,15c-0.8,0-1.5-0.3-2.1-0.9c-1.2-1.2-1.2-3.1,0-4.2l8-8c1.2-1.2,3.1-1.2,4.2,0c1.2,1.2,1.2,3.1,0,4.2 l-8,8C117.5,14.7,116.8,15,116,15z"/><path fill="#f2b630" d="M13.3,16.3c-0.8,0-1.5-0.3-2.1-0.9L1.9,6.1c-1.2-1.2-1.2-3.1,0-4.2C3,0.7,5,0.7,6.1,1.9l9.3,9.3 c1.2,1.2,1.2,3.1,0,4.2C14.9,16,14.1,16.3,13.3,16.3z"/><circle cx="24" cy="4" r="3" fill="#f2b630"/></svg>