<svg width="431" height="174" xmlns="http://www.w3.org/2000/svg">
    <rect x="8" y="8" width="27" height="14" stroke="black" stroke-width="1" fill="transparent" />
    <text x="21.5" y="15" text-anchor="middle" alignment-baseline="middle" font-size="8">ESC</text>
    <rect x="38" y="8" width="27" height="14" stroke="black" stroke-width="1" fill="transparent" />
    <rect x="68" y="8" width="27" height="14" stroke="black" stroke-width="1" fill="transparent" />
    <rect x="98" y="8" width="27" height="14" stroke="black" stroke-width="1" fill="transparent" />
    <rect x="128" y="8" width="27" height="14" stroke="black" stroke-width="1" fill="transparent" />
    <rect x="158" y="8" width="27" height="14" stroke="black" stroke-width="1" fill="transparent" />
    <rect x="188" y="8" width="27" height="14" stroke="black" stroke-width="1" fill="transparent" />
    <rect x="218" y="8" width="27" height="14" stroke="black" stroke-width="1" fill="transparent" />
    <rect x="248" y="8" width="27" height="14" stroke="black" stroke-width="1" fill="transparent" />
    <rect x="278" y="8" width="27" height="14" stroke="black" stroke-width="1" fill="transparent" />
    <rect x="308" y="8" width="27" height="14" stroke="black" stroke-width="1" fill="transparent" />
    <rect x="338" y="8" width="27" height="14" stroke="black" stroke-width="1" fill="transparent" />
    <rect x="368" y="8" width="27" height="14" stroke="black" stroke-width="1" fill="transparent" />
    <rect x="398" y="8" width="25" height="14" stroke="black" stroke-width="1" fill="transparent" />
    <rect x="8" y="26" width="30" height="25" stroke="black" stroke-width="1" fill="transparent" />
    <rect x="41" y="26" width="25" height="25" stroke="black" stroke-width="1" fill="transparent" />
    <rect x="69" y="26" width="25" height="25" stroke="black" stroke-width="1" fill="transparent" />
    <rect x="97" y="26" width="25" height="25" stroke="black" stroke-width="1" fill="transparent" />
    <rect x="125" y="26" width="25" height="25" stroke="black" stroke-width="1" fill="transparent" />
    <rect x="153" y="26" width="25" height="25" stroke="black" stroke-width="1" fill="transparent" />
    <rect x="181" y="26" width="25" height="25" stroke="black" stroke-width="1" fill="transparent" />
    <rect x="209" y="26" width="25" height="25" stroke="black" stroke-width="1" fill="transparent" />
    <rect x="237" y="26" width="25" height="25" stroke="black" stroke-width="1" fill="transparent" />
    <rect x="265" y="26" width="25" height="25" stroke="black" stroke-width="1" fill="transparent" />
    <rect x="293" y="26" width="25" height="25" stroke="black" stroke-width="1" fill="transparent" />
    <rect x="321" y="26" width="25" height="25" stroke="black" stroke-width="1" fill="transparent" />
    <rect x="349" y="26" width="25" height="25" stroke="black" stroke-width="1" fill="transparent" />
    <rect x="377" y="26" width="46" height="25" stroke="black" stroke-width="1" fill="transparent" />
    <rect x="8" y="55" width="41" height="25" stroke="black" stroke-width="1" fill="transparent" />
    <rect x="52" y="55" width="25" height="25" stroke="black" stroke-width="1" fill="transparent" />
    <rect x="80" y="55" width="25" height="25" stroke="black" stroke-width="1" fill="transparent" />
    <rect x="108" y="55" width="25" height="25" stroke="black" stroke-width="1" fill="transparent" />
    <rect x="136" y="55" width="25" height="25" stroke="black" stroke-width="1" fill="transparent" />
    <rect x="164" y="55" width="25" height="25" stroke="black" stroke-width="1" fill="transparent" />
    <rect x="192" y="55" width="25" height="25" stroke="black" stroke-width="1" fill="transparent" />
    <rect x="220" y="55" width="25" height="25" stroke="black" stroke-width="1" fill="transparent" />
    <rect x="248" y="55" width="25" height="25" stroke="black" stroke-width="1" fill="transparent" />
    <rect x="276" y="55" width="25" height="25" stroke="black" stroke-width="1" fill="transparent" />
    <rect x="304" y="55" width="25" height="25" stroke="black" stroke-width="1" fill="transparent" />
    <rect x="332" y="55" width="25" height="25" stroke="black" stroke-width="1" fill="transparent" />
    <rect x="360" y="55" width="25" height="25" stroke="black" stroke-width="1" fill="transparent" />
    <rect x="388" y="55" width="35" height="25" stroke="black" stroke-width="1" fill="transparent" />
    <rect x="8" y="84" width="51" height="25" stroke="black" stroke-width="1" fill="transparent" />
    <rect x="62" y="84" width="25" height="25" stroke="black" stroke-width="1" fill="transparent" />
    <rect x="90" y="84" width="25" height="25" stroke="black" stroke-width="1" fill="transparent" />
    <rect x="118" y="84" width="25" height="25" stroke="black" stroke-width="1" fill="transparent" />
    <rect x="146" y="84" width="25" height="25" stroke="black" stroke-width="1" fill="transparent" />
    <rect x="174" y="84" width="25" height="25" stroke="black" stroke-width="1" fill="transparent" />
    <rect x="202" y="84" width="25" height="25" stroke="black" stroke-width="1" fill="transparent" />
    <rect x="230" y="84" width="25" height="25" stroke="black" stroke-width="1" fill="transparent" />
    <rect x="258" y="84" width="25" height="25" stroke="black" stroke-width="1" fill="transparent" />
    <rect x="286" y="84" width="25" height="25" stroke="black" stroke-width="1" fill="transparent" />
    <rect x="314" y="84" width="25" height="25" stroke="black" stroke-width="1" fill="transparent" />
    <rect x="342" y="84" width="25" height="25" stroke="black" stroke-width="1" fill="transparent" />
    <rect x="370" y="84" width="53" height="25" stroke="black" stroke-width="1" fill="transparent" />
    <rect x="8" y="113" width="63" height="25" stroke="black" stroke-width="1" fill="transparent" />
    <rect x="74" y="113" width="25" height="25" stroke="black" stroke-width="1" fill="transparent" />
    <rect x="102" y="113" width="25" height="25" stroke="black" stroke-width="1" fill="transparent" />
    <rect x="130" y="113" width="25" height="25" stroke="black" stroke-width="1" fill="transparent" />
    <rect x="158" y="113" width="25" height="25" stroke="black" stroke-width="1" fill="transparent" />
    <rect x="186" y="113" width="25" height="25" stroke="black" stroke-width="1" fill="transparent" />
    <rect x="214" y="113" width="25" height="25" stroke="black" stroke-width="1" fill="transparent" />
    <rect x="242" y="113" width="25" height="25" stroke="black" stroke-width="1" fill="transparent" />
    <rect x="270" y="113" width="25" height="25" stroke="black" stroke-width="1" fill="transparent" />
    <rect x="298" y="113" width="25" height="25" stroke="black" stroke-width="1" fill="transparent" />
    <rect x="326" y="113" width="25" height="25" stroke="black" stroke-width="1" fill="transparent" />
    <rect x="354" y="113" width="69" height="25" stroke="black" stroke-width="1" fill="transparent" />
    <rect x="8" y="142" width="28" height="25" stroke="black" stroke-width="1" fill="transparent" />
    <rect x="39" y="142" width="25" height="25" stroke="black" stroke-width="1" fill="transparent" />
    <rect x="67" y="142" width="25" height="25" stroke="black" stroke-width="1" fill="transparent" />
    <rect x="95" y="142" width="27" height="25" stroke="black" stroke-width="1" fill="transparent" />
    <rect x="125" y="142" width="146" height="25" stroke="black" stroke-width="1" fill="transparent" />
    <rect x="274" y="142" width="28" height="25" stroke="black" stroke-width="1" fill="transparent" />
    <rect x="305" y="142" width="28" height="25" stroke="black" stroke-width="1" fill="transparent" />
    <rect x="336" y="153" width="26" height="14" stroke="black" stroke-width="1" fill="transparent" />
    <rect x="366" y="155" width="27" height="12" stroke="black" stroke-width="1" fill="transparent" />
    <rect x="366" y="142" width="27" height="12" stroke="black" stroke-width="1" fill="transparent" />
    <rect x="396" y="153" width="27" height="14" stroke="black" stroke-width="1" fill="transparent" />
</svg>