<svg width="431" height="174" xmlns="http://www.w3.org/2000/svg">
    <rect x="8" y="8" width="27" height="14" stroke="black" stroke-linejoin="round" stroke-width=".38075" fill="transparent" />
    <text x="21.5" y="15" text-anchor="middle" alignment-baseline="middle" font-size="8">ESC</text>
    <rect x="38" y="8" width="27" height="14" stroke="black" stroke-linejoin="round" stroke-width=".38075" fill="transparent" />
    <text x="51.5" y="15" text-anchor="middle" alignment-baseline="middle" font-size="8">F1</text>
    <rect x="68" y="8" width="27" height="14" stroke="black" stroke-linejoin="round" stroke-width=".38075" fill="transparent" />
    <text x="81.5" y="15" text-anchor="middle" alignment-baseline="middle" font-size="8">F2</text>
    <rect x="98" y="8" width="27" height="14" stroke="black" stroke-linejoin="round" stroke-width=".38075" fill="transparent" />
    <text x="111.5" y="15" text-anchor="middle" alignment-baseline="middle" font-size="8">F3</text>
    <rect x="128" y="8" width="27" height="14" stroke="black" stroke-linejoin="round" stroke-width=".38075" fill="transparent" />
    <text x="141.5" y="15" text-anchor="middle" alignment-baseline="middle" font-size="8">F4</text>
    <rect x="158" y="8" width="27" height="14" stroke="black" stroke-linejoin="round" stroke-width=".38075" fill="transparent" />
    <text x="171.5" y="15" text-anchor="middle" alignment-baseline="middle" font-size="8">F5</text>
    <rect x="188" y="8" width="27" height="14" stroke="black" stroke-linejoin="round" stroke-width=".38075" fill="transparent" />
    <text x="201.5" y="15" text-anchor="middle" alignment-baseline="middle" font-size="8">F6</text>
    <rect x="218" y="8" width="27" height="14" stroke="black" stroke-linejoin="round" stroke-width=".38075" fill="transparent" />
    <text x="231.5" y="15" text-anchor="middle" alignment-baseline="middle" font-size="8">F7</text>
    <rect x="248" y="8" width="27" height="14" stroke="black" stroke-linejoin="round" stroke-width=".38075" fill="transparent" />
    <text x="261.5" y="15" text-anchor="middle" alignment-baseline="middle" font-size="8">F8</text>
    <rect x="278" y="8" width="27" height="14" stroke="black" stroke-linejoin="round" stroke-width=".38075" fill="transparent" />
    <text x="291.5" y="15" text-anchor="middle" alignment-baseline="middle" font-size="8">F9</text>
    <rect x="308" y="8" width="27" height="14" stroke="black" stroke-linejoin="round" stroke-width=".38075" fill="transparent" />
    <text x="321.5" y="15" text-anchor="middle" alignment-baseline="middle" font-size="8">F10</text>
    <rect x="338" y="8" width="27" height="14" stroke="black" stroke-linejoin="round" stroke-width=".38075" fill="transparent" />
    <text x="351.5" y="15" text-anchor="middle" alignment-baseline="middle" font-size="8">F11</text>
    <rect x="368" y="8" width="27" height="14" stroke="black" stroke-linejoin="round" stroke-width=".38075" fill="transparent" />
    <text x="381.5" y="15" text-anchor="middle" alignment-baseline="middle" font-size="8">F12</text>
    <rect x="398" y="8" width="25" height="14" stroke="black" stroke-linejoin="round" stroke-width=".38075" fill="transparent" />
    <text x="410.5" y="15" text-anchor="middle" alignment-baseline="middle" font-size="5">DELETE</text>

    <rect x="8" y="26" width="30" height="25" stroke="black" stroke-linejoin="round" stroke-width=".38075" fill="transparent" />
    <text x="23" y="38.5" text-anchor="middle" alignment-baseline="middle" font-size="8">`</text>
    <rect x="41" y="26" width="25" height="25" stroke="black" stroke-linejoin="round" stroke-width=".38075" fill="transparent" />
    <text x="53.5" y="38.5" text-anchor="middle" alignment-baseline="middle" font-size="8">Text</text>
    <rect x="69" y="26" width="25" height="25" stroke="black" stroke-linejoin="round" stroke-width=".38075" fill="transparent" />
    <text x="81.5" y="38.5" text-anchor="middle" alignment-baseline="middle" font-size="8">Text</text>
    <rect x="97" y="26" width="25" height="25" stroke="black" stroke-linejoin="round" stroke-width=".38075" fill="transparent" />
    <text x="109.5" y="38.5" text-anchor="middle" alignment-baseline="middle" font-size="8">Text</text>
    <rect x="125" y="26" width="25" height="25" stroke="black" stroke-linejoin="round" stroke-width=".38075" fill="transparent" />
    <text x="137.5" y="38.5" text-anchor="middle" alignment-baseline="middle" font-size="8">Text</text>
    <rect x="153" y="26" width="25" height="25" stroke="black" stroke-linejoin="round" stroke-width=".38075" fill="transparent" />
    <text x="165.5" y="38.5" text-anchor="middle" alignment-baseline="middle" font-size="8">Text</text>
    <rect x="181" y="26" width="25" height="25" stroke="black" stroke-linejoin="round" stroke-width=".38075" fill="transparent" />
    <text x="193.5" y="38.5" text-anchor="middle" alignment-baseline="middle" font-size="8">Text</text>
    <rect x="209" y="26" width="25" height="25" stroke="black" stroke-linejoin="round" stroke-width=".38075" fill="transparent" />
    <text x="221.5" y="38.5" text-anchor="middle" alignment-baseline="middle" font-size="8">Text</text>
    <rect x="237" y="26" width="25" height="25" stroke="black" stroke-linejoin="round" stroke-width=".38075" fill="transparent" />
    <text x="249.5" y="38.5" text-anchor="middle" alignment-baseline="middle" font-size="8">Text</text>
    <rect x="265" y="26" width="25" height="25" stroke="black" stroke-linejoin="round" stroke-width=".38075" fill="transparent" />
    <text x="277.5" y="38.5" text-anchor="middle" alignment-baseline="middle" font-size="8">Text</text>
    <rect x="293" y="26" width="25" height="25" stroke="black" stroke-linejoin="round" stroke-width=".38075" fill="transparent" />
    <text x="305.5" y="38.5" text-anchor="middle" alignment-baseline="middle" font-size="8">Text</text>
    <rect x="321" y="26" width="25" height="25" stroke="black" stroke-linejoin="round" stroke-width=".38075" fill="transparent" />
    <text x="333.5" y="38.5" text-anchor="middle" alignment-baseline="middle" font-size="8">Text</text>
    <rect x="349" y="26" width="25" height="25" stroke="black" stroke-linejoin="round" stroke-width=".38075" fill="transparent" />
    <text x="361.5" y="38.5" text-anchor="middle" alignment-baseline="middle" font-size="8">Text</text>
    <rect x="377" y="26" width="46" height="25" stroke="black" stroke-linejoin="round" stroke-width=".38075" fill="transparent" />
    <text x="400" y="38.5" text-anchor="middle" alignment-baseline="middle" font-size="8">Text</text>

    <rect x="8" y="55" width="41" height="25" stroke="black" stroke-linejoin="round" stroke-width=".38075" fill="transparent" />
    <text x="28.5" y="67.5" text-anchor="middle" alignment-baseline="middle" font-size="8">Text</text>
    <rect x="52" y="55" width="25" height="25" stroke="black" stroke-linejoin="round" stroke-width=".38075" fill="transparent" />
    <text x="64.5" y="67.5" text-anchor="middle" alignment-baseline="middle" font-size="8">Text</text>
    <rect x="80" y="55" width="25" height="25" stroke="black" stroke-linejoin="round" stroke-width=".38075" fill="transparent" />
    <text x="92.5" y="67.5" text-anchor="middle" alignment-baseline="middle" font-size="8">Text</text>
    <rect x="108" y="55" width="25" height="25" stroke="black" stroke-linejoin="round" stroke-width=".38075" fill="transparent" />
    <text x="120.5" y="67.5" text-anchor="middle" alignment-baseline="middle" font-size="8">Text</text>
    <rect x="136" y="55" width="25" height="25" stroke="black" stroke-linejoin="round" stroke-width=".38075" fill="transparent" />
    <text x="148.5" y="67.5" text-anchor="middle" alignment-baseline="middle" font-size="8">Text</text>
    <rect x="164" y="55" width="25" height="25" stroke="black" stroke-linejoin="round" stroke-width=".38075" fill="transparent" />
    <text x="176.5" y="67.5" text-anchor="middle" alignment-baseline="middle" font-size="8">Text</text>
    <rect x="192" y="55" width="25" height="25" stroke="black" stroke-linejoin="round" stroke-width=".38075" fill="transparent" />
    <text x="204.5" y="67.5" text-anchor="middle" alignment-baseline="middle" font-size="8">Text</text>
    <rect x="220" y="55" width="25" height="25" stroke="black" stroke-linejoin="round" stroke-width=".38075" fill="transparent" />
    <text x="232.5" y="67.5" text-anchor="middle" alignment-baseline="middle" font-size="8">Text</text>
    <rect x="248" y="55" width="25" height="25" stroke="black" stroke-linejoin="round" stroke-width=".38075" fill="transparent" />
    <text x="260.5" y="67.5" text-anchor="middle" alignment-baseline="middle" font-size="8">Text</text>
    <rect x="276" y="55" width="25" height="25" stroke="black" stroke-linejoin="round" stroke-width=".38075" fill="transparent" />
    <text x="288.5" y="67.5" text-anchor="middle" alignment-baseline="middle" font-size="8">Text</text>
    <rect x="304" y="55" width="25" height="25" stroke="black" stroke-linejoin="round" stroke-width=".38075" fill="transparent" />
    <text x="316.5" y="67.5" text-anchor="middle" alignment-baseline="middle" font-size="8">Text</text>
    <rect x="332" y="55" width="25" height="25" stroke="black" stroke-linejoin="round" stroke-width=".38075" fill="transparent" />
    <text x="344.5" y="67.5" text-anchor="middle" alignment-baseline="middle" font-size="8">Text</text>
    <rect x="360" y="55" width="25" height="25" stroke="black" stroke-linejoin="round" stroke-width=".38075" fill="transparent" />
    <text x="372.5" y="67.5" text-anchor="middle" alignment-baseline="middle" font-size="8">Text</text>
    <rect x="388" y="55" width="35" height="25" stroke="black" stroke-linejoin="round" stroke-width=".38075" fill="transparent" />
    <text x="405.5" y="67.5" text-anchor="middle" alignment-baseline="middle" font-size="8">Text</text>

    <rect x="8" y="84" width="51" height="25" stroke="black" stroke-linejoin="round" stroke-width=".38075" fill="transparent" />
    <text x="33.5" y="96.5" text-anchor="middle" alignment-baseline="middle" font-size="8">Text</text>
    <rect x="62" y="84" width="25" height="25" stroke="black" stroke-linejoin="round" stroke-width=".38075" fill="transparent" />
    <text x="74.5" y="96.5" text-anchor="middle" alignment-baseline="middle" font-size="8">Text</text>
    <rect x="90" y="84" width="25" height="25" stroke="black" stroke-linejoin="round" stroke-width=".38075" fill="transparent" />
    <text x="102.5" y="96.5" text-anchor="middle" alignment-baseline="middle" font-size="8">Text</text>
    <rect x="118" y="84" width="25" height="25" stroke="black" stroke-linejoin="round" stroke-width=".38075" fill="transparent" />
    <text x="130.5" y="96.5" text-anchor="middle" alignment-baseline="middle" font-size="8">Text</text>
    <rect x="146" y="84" width="25" height="25" stroke="black" stroke-linejoin="round" stroke-width=".38075" fill="transparent" />
    <text x="158.5" y="96.5" text-anchor="middle" alignment-baseline="middle" font-size="8">Text</text>
    <rect x="174" y="84" width="25" height="25" stroke="black" stroke-linejoin="round" stroke-width=".38075" fill="transparent" />
    <text x="186.5" y="96.5" text-anchor="middle" alignment-baseline="middle" font-size="8">Text</text>
    <rect x="202" y="84" width="25" height="25" stroke="black" stroke-linejoin="round" stroke-width=".38075" fill="transparent" />
    <text x="214.5" y="96.5" text-anchor="middle" alignment-baseline="middle" font-size="8">Text</text>
    <rect x="230" y="84" width="25" height="25" stroke="black" stroke-linejoin="round" stroke-width=".38075" fill="transparent" />
    <text x="242.5" y="96.5" text-anchor="middle" alignment-baseline="middle" font-size="8">Text</text>
    <rect x="258" y="84" width="25" height="25" stroke="black" stroke-linejoin="round" stroke-width=".38075" fill="transparent" />
    <text x="270.5" y="96.5" text-anchor="middle" alignment-baseline="middle" font-size="8">Text</text>
    <rect x="286" y="84" width="25" height="25" stroke="black" stroke-linejoin="round" stroke-width=".38075" fill="transparent" />
    <text x="298.5" y="96.5" text-anchor="middle" alignment-baseline="middle" font-size="8">Text</text>
    <rect x="314" y="84" width="25" height="25" stroke="black" stroke-linejoin="round" stroke-width=".38075" fill="transparent" />
    <text x="326.5" y="96.5" text-anchor="middle" alignment-baseline="middle" font-size="8">Text</text>
    <rect x="342" y="84" width="25" height="25" stroke="black" stroke-linejoin="round" stroke-width=".38075" fill="transparent" />
    <text x="354.5" y="96.5" text-anchor="middle" alignment-baseline="middle" font-size="8">Text</text>
    <rect x="370" y="84" width="53" height="25" stroke="black" stroke-linejoin="round" stroke-width=".38075" fill="transparent" />
    <text x="396.5" y="96.5" text-anchor="middle" alignment-baseline="middle" font-size="8">Text</text>

    <rect x="8" y="113" width="63" height="25" stroke="black" stroke-linejoin="round" stroke-width=".38075" fill="transparent" />
    <text x="39.5" y="125.5" text-anchor="middle" alignment-baseline="middle" font-size="8">Text</text>
    <rect x="74" y="113" width="25" height="25" stroke="black" stroke-linejoin="round" stroke-width=".38075" fill="transparent" />
    <text x="86.5" y="125.5" text-anchor="middle" alignment-baseline="middle" font-size="8">Text</text>
    <rect x="102" y="113" width="25" height="25" stroke="black" stroke-linejoin="round" stroke-width=".38075" fill="transparent" />
    <text x="114.5" y="125.5" text-anchor="middle" alignment-baseline="middle" font-size="8">Text</text>
    <rect x="130" y="113" width="25" height="25" stroke="black" stroke-linejoin="round" stroke-width=".38075" fill="transparent" />
    <text x="142.5" y="125.5" text-anchor="middle" alignment-baseline="middle" font-size="8">Text</text>
    <rect x="158" y="113" width="25" height="25" stroke="black" stroke-linejoin="round" stroke-width=".38075" fill="transparent" />
    <text x="170.5" y="125.5" text-anchor="middle" alignment-baseline="middle" font-size="8">Text</text>
    <rect x="186" y="113" width="25" height="25" stroke="black" stroke-linejoin="round" stroke-width=".38075" fill="transparent" />
    <text x="198.5" y="125.5" text-anchor="middle" alignment-baseline="middle" font-size="8">Text</text>
    <rect x="214" y="113" width="25" height="25" stroke="black" stroke-linejoin="round" stroke-width=".38075" fill="transparent" />
    <text x="226.5" y="125.5" text-anchor="middle" alignment-baseline="middle" font-size="8">Text</text>
    <rect x="242" y="113" width="25" height="25" stroke="black" stroke-linejoin="round" stroke-width=".38075" fill="transparent" />
    <text x="254.5" y="125.5" text-anchor="middle" alignment-baseline="middle" font-size="8">Text</text>
    <rect x="270" y="113" width="25" height="25" stroke="black" stroke-linejoin="round" stroke-width=".38075" fill="transparent" />
    <text x="282.5" y="125.5" text-anchor="middle" alignment-baseline="middle" font-size="8">Text</text>
    <rect x="298" y="113" width="25" height="25" stroke="black" stroke-linejoin="round" stroke-width=".38075" fill="transparent" />
    <text x="310.5" y="125.5" text-anchor="middle" alignment-baseline="middle" font-size="8">Text</text>
    <rect x="326" y="113" width="25" height="25" stroke="black" stroke-linejoin="round" stroke-width=".38075" fill="transparent" />
    <text x="338.5" y="125.5" text-anchor="middle" alignment-baseline="middle" font-size="8">Text</text>
    <rect x="354" y="113" width="69" height="25" stroke="black" stroke-linejoin="round" stroke-width=".38075" fill="transparent" />
    <text x="388.5" y="125.5" text-anchor="middle" alignment-baseline="middle" font-size="8">Text</text>

    <rect x="8" y="142" width="28" height="25" stroke="black" stroke-linejoin="round" stroke-width=".38075" fill="transparent" />
    <text x="22" y="154.5" text-anchor="middle" alignment-baseline="middle" font-size="8">Text</text>
    <rect x="39" y="142" width="25" height="25" stroke="black" stroke-linejoin="round" stroke-width=".38075" fill="transparent" />
    <text x="51.5" y="154.5" text-anchor="middle" alignment-baseline="middle" font-size="8">Text</text>
    <rect x="67" y="142" width="25" height="25" stroke="black" stroke-linejoin="round" stroke-width=".38075" fill="transparent" />
    <text x="79.5" y="154.5" text-anchor="middle" alignment-baseline="middle" font-size="8">Text</text>
    <rect x="95" y="142" width="27" height="25" stroke="black" stroke-linejoin="round" stroke-width=".38075" fill="transparent" />
    <text x="108.5" y="154.5" text-anchor="middle" alignment-baseline="middle" font-size="8">Text</text>
    <rect x="125" y="142" width="146" height="25" stroke="black" stroke-linejoin="round" stroke-width=".38075" fill="transparent" />
    <text x="198" y="154.5" text-anchor="middle" alignment-baseline="middle" font-size="8">Text</text>
    <rect x="274" y="142" width="28" height="25" stroke="black" stroke-linejoin="round" stroke-width=".38075" fill="transparent" />
    <text x="288" y="154.5" text-anchor="middle" alignment-baseline="middle" font-size="8">Text</text>
    <rect x="305" y="142" width="28" height="25" stroke="black" stroke-linejoin="round" stroke-width=".38075" fill="transparent" />
    <text x="319" y="154.5" text-anchor="middle" alignment-baseline="middle" font-size="8">Text</text>
    <rect x="336" y="153" width="27" height="14" stroke="black" stroke-linejoin="round" stroke-width=".38075" fill="transparent" />
    <text x="349" y="160" text-anchor="middle" alignment-baseline="middle" font-size="8">Text</text>
    <rect x="366" y="155" width="27" height="12" stroke="black" stroke-linejoin="round" stroke-width=".38075" fill="transparent" />
    <text x="379.5" y="161" text-anchor="middle" alignment-baseline="middle" font-size="8">Text</text>
    <rect x="366" y="142" width="27" height="12" stroke="black" stroke-linejoin="round" stroke-width=".38075" fill="transparent" />
    <text x="379.5" y="148" text-anchor="middle" alignment-baseline="middle" font-size="8">Text</text>
    <rect x="396" y="153" width="27" height="14" stroke="black" stroke-linejoin="round" stroke-width=".38075" fill="transparent" />
    <text x="409.5" y="160" text-anchor="middle" alignment-baseline="middle" font-size="8">Text</text>
</svg>